<?xml version="1.0" encoding="UTF-8"?>
<svg version="1.1" xmlns="http://www.w3.org/2000/svg" width="500" height="500">
<path d="M0 0 C1.05563644 -0.00860046 2.11127289 -0.01720093 3.19889832 -0.02606201 C4.93586975 -0.03245193 4.93586975 -0.03245193 6.70793152 -0.03897095 C7.92768173 -0.04714844 9.14743195 -0.05532593 10.40414429 -0.06375122 C14.44965792 -0.08861006 18.49513421 -0.10527424 22.54069519 -0.11953735 C23.93449599 -0.12489826 25.32829673 -0.13027578 26.7220974 -0.13566971 C32.52031082 -0.15729235 38.3185215 -0.17602877 44.11676502 -0.1872921 C52.42107784 -0.20353102 60.72492278 -0.23671369 69.02905923 -0.29369295 C74.87120341 -0.33241029 80.71322253 -0.3519268 86.55549163 -0.35721266 C90.04347162 -0.36086344 93.5309522 -0.37285438 97.01879311 -0.4053154 C100.91140558 -0.44102541 104.80343196 -0.43702055 108.69621277 -0.42959595 C109.84812103 -0.44600128 111.0000293 -0.46240662 112.18684387 -0.47930908 C120.89974038 -0.41119674 120.89974038 -0.41119674 124.45845032 2.46292114 C125.26289581 3.35094421 126.06734131 4.23896729 126.89616394 5.15390015 C127.47016434 5.76754425 128.04416473 6.38118835 128.63555908 7.01342773 C129.1186705 7.60070648 129.60178192 8.18798523 130.09953308 8.7930603 C134.20547117 13.59882394 138.66088486 18.01704666 143.15528679 22.45762253 C144.67510519 23.95980396 146.19114104 25.46571349 147.70623779 26.97265625 C152.00799935 31.25015511 156.31564543 35.521694 160.62736511 39.78915405 C163.27856825 42.41365399 165.92494287 45.04294205 168.56836128 47.67528152 C169.57404572 48.67475092 170.5816245 49.67231789 171.59110832 50.66794968 C172.99341952 52.0511512 174.38918093 53.44098366 175.78459167 54.83114624 C176.97869911 56.01406754 176.97869911 56.01406754 178.19692993 57.22088623 C179.89616394 59.15390015 179.89616394 59.15390015 179.89616394 61.15390015 C180.45959409 61.41236221 181.02302423 61.67082428 181.60352802 61.93711853 C186.44760323 64.50803771 189.95271308 67.48783037 192.89616394 72.15390015 C194.21492473 78.32332954 194.07804185 84.37387689 193.98136902 90.6578064 C193.98538298 92.53614479 193.99330449 94.41447827 194.00482178 96.29278564 C194.02443604 101.37602138 193.98809784 106.45745388 193.94043565 111.54044724 C193.898924 116.86933169 193.90550515 122.19817541 193.90585327 127.52719116 C193.89935873 136.47500837 193.85841465 145.42213585 193.79484558 154.36972046 C193.72166561 164.70190335 193.69353441 175.03340759 193.69169694 185.36583424 C193.68944468 196.3837068 193.65666836 207.40132809 193.61368346 218.41910934 C193.60321301 221.58601098 193.59814193 224.75288395 193.59417152 227.9197998 C193.58623573 232.90393617 193.55760614 237.88755335 193.51323509 242.87149429 C193.50000297 244.6963247 193.49341813 246.52121779 193.49411011 248.34609604 C193.49221941 265.3243801 193.49221941 265.3243801 188.89616394 273.15390015 C188.23616394 273.15390015 187.57616394 273.15390015 186.89616394 273.15390015 C186.89616394 273.81390015 186.89616394 274.47390015 186.89616394 275.15390015 C178.84410978 281.57288387 169.85055133 280.86250565 160.11076355 280.8008728 C158.30962238 280.8076557 156.50848815 280.8165626 154.70736694 280.8274231 C149.83544301 280.85014149 144.96405079 280.84141143 140.09211802 280.82552767 C134.9842698 280.8128319 129.87646582 280.8246188 124.76861572 280.8324585 C116.19345459 280.84154353 107.6185091 280.82959636 99.04338074 280.80575562 C89.13944731 280.77853791 79.23602848 280.78736787 69.33210748 280.81488764 C60.81632783 280.8376 52.3007028 280.84076864 43.78490263 280.8276943 C38.70417159 280.81991262 33.62368221 280.81882309 28.54296684 280.83537674 C23.76648379 280.84985349 18.99066238 280.8397413 14.21425056 280.81090546 C12.46476463 280.80431212 10.7152227 280.80616226 8.96575928 280.81721878 C-0.83460119 280.87343171 -8.22257281 280.82140317 -15.60078526 273.71135902 C-21.2633725 267.56838154 -21.3974463 261.04736306 -21.3712616 253.16055298 C-21.37579271 252.15792821 -21.38032382 251.15530344 -21.38499224 250.12229609 C-21.39764652 246.76461979 -21.39601518 243.40710547 -21.3943634 240.04940796 C-21.40034803 237.6411315 -21.40715343 235.23285697 -21.41471863 232.82458496 C-21.43055739 226.96259025 -21.43682736 221.10063348 -21.43794338 215.23862174 C-21.43889483 210.47149143 -21.44300992 205.70437435 -21.44934464 200.93724823 C-21.46695279 187.41031504 -21.47618429 173.88341355 -21.47468369 160.35646883 C-21.47460377 159.62768757 -21.47452386 158.89890631 -21.47444153 158.14804077 C-21.47435977 157.41836565 -21.47427801 156.68869053 -21.47419377 155.93690404 C-21.47338121 144.11670946 -21.4925124 132.2966424 -21.52071826 120.47648469 C-21.54947649 108.32860406 -21.56325691 96.18078557 -21.56153071 84.03287005 C-21.56086777 77.21719396 -21.5663175 70.40165152 -21.58788681 63.58600616 C-21.60804944 57.17393066 -21.60739486 50.76206421 -21.59285355 44.34997177 C-21.59076404 41.99982923 -21.59547474 39.64966905 -21.60757446 37.29955673 C-21.62305231 34.08443527 -21.61370114 30.87028306 -21.59831238 27.65518188 C-21.6085995 26.73122974 -21.61888663 25.80727759 -21.62948549 24.85532689 C-21.55996026 18.25531005 -19.91164455 13.107005 -17.10383606 7.15390015 C-16.44383606 7.15390015 -15.78383606 7.15390015 -15.10383606 7.15390015 C-15.10383606 6.49390015 -15.10383606 5.83390015 -15.10383606 5.15390015 C-9.87878243 2.0977367 -6.17281941 0.03744444 0 0 Z " fill="#254E96" transform="translate(164.1038360595703,109.84609985351563)"/>
<path d="M0 0 C1.2375 0.31324219 2.475 0.62648437 3.75 0.94921875 C13.81051489 3.55711861 13.81051489 3.55711861 18 8 C19.78780863 9.02355456 21.60344846 9.99932167 23.4375 10.9375 C31.22048516 15.3481758 36.97910288 21.46533714 43 28 C43.65226563 28.69738281 44.30453125 29.39476562 44.9765625 30.11328125 C50.03352358 35.75373784 55.77860586 43.01863183 56.125 50.8125 C56.08375 51.534375 56.0425 52.25625 56 53 C56.66 53 57.32 53 58 53 C66.57246311 70.14492621 67.01413011 94.92743125 61 113 C56.64830037 124.50798882 50.90097964 134.57028675 43 144 C42.51273438 144.64839844 42.02546875 145.29679688 41.5234375 145.96484375 C36.03704069 153.03940806 27.79130853 158.73300954 20 163 C19.34 163 18.68 163 18 163 C18 163.66 18 164.32 18 165 C12.04240505 167.56348437 5.9910017 169.72911001 -0.1875 171.6875 C-0.85201172 171.90172607 -1.51652344 172.11595215 -2.20117188 172.33666992 C-18.69002269 177.47203818 -37.75584558 176.51756753 -54 171 C-55.04027344 170.649375 -56.08054688 170.29875 -57.15234375 169.9375 C-79.0209088 161.66135449 -96.92514852 144.51795904 -106.9375 123.5 C-111.55486662 113.25425278 -114.57164652 102.25712952 -115 91 C-115.06316406 89.95714844 -115.12632812 88.91429687 -115.19140625 87.83984375 C-115.52603163 78.26524023 -113.6143631 70.1018567 -111 61 C-110.79632813 60.11828125 -110.59265625 59.2365625 -110.3828125 58.328125 C-107.63510401 47.11145199 -100.15928879 34.13668688 -92 26 C-91.34 26 -90.68 26 -90 26 C-89.34 24.68 -88.68 23.36 -88 22 C-87.34 22 -86.68 22 -86 22 C-86 21.34 -86 20.68 -86 20 C-63.6559316 -1.22084773 -29.35717775 -8.98299059 0 0 Z " fill="#099A88" transform="translate(274,201)"/>
<path d="M0 0 C0 5.94 0 11.88 0 18 C-2.31 18.33 -4.62 18.66 -7 19 C-8.96287824 20.91738855 -8.96287824 20.91738855 -10 23 C-10.33 22.67 -10.66 22.34 -11 22 C-13.34148732 22.27017161 -15.67504723 22.61250787 -18 23 C-18.79535156 23.12761719 -19.59070313 23.25523437 -20.41015625 23.38671875 C-23.26465069 24.06266992 -25.57668516 25.10641891 -28.1875 26.4375 C-29.47720703 27.08525391 -29.47720703 27.08525391 -30.79296875 27.74609375 C-33.11072432 28.93371729 -33.11072432 28.93371729 -35 31 C-34.34 31.66 -33.68 32.32 -33 33 C-35.475 33.495 -35.475 33.495 -38 34 C-38.33 33.34 -38.66 32.68 -39 32 C-49.63039423 41.2306626 -56.80256663 50.37931585 -63 63 C-63.34675781 63.68449219 -63.69351563 64.36898437 -64.05078125 65.07421875 C-65.16569507 67.33616326 -66.08632398 69.65054737 -67 72 C-67.66 72 -68.32 72 -69 72 C-72.60288002 94.05665572 -68.72628214 113.65378361 -55.9140625 131.984375 C-52.3283466 136.62794578 -48.56450711 140.34839431 -44 144 C-44 144.66 -44 145.32 -44 146 C-43.15501953 146.14308594 -43.15501953 146.14308594 -42.29296875 146.2890625 C-39.46438127 147.16606918 -37.66370039 148.58036396 -35.3125 150.375 C-30.68770194 153.69589024 -26.48843675 155.61448258 -21 157 C-19.16501953 157.50660156 -19.16501953 157.50660156 -17.29296875 158.0234375 C-12.85681557 159.12011308 -8.49359796 159.56497805 -3.9375 159.8125 C-2.70555908 159.87993408 -2.70555908 159.87993408 -1.44873047 159.94873047 C6.41498005 160.24245916 13.39728979 158.93419076 21 157 C25.74193548 155.87096774 25.74193548 155.87096774 28 157 C28.33 156.01 28.66 155.02 29 154 C30.65283444 153.29974253 32.32212405 152.63792988 34 152 C36.35974022 150.27695192 38.57262 148.42906374 40.81640625 146.55859375 C42.97915323 145.0148799 44.46172435 144.58319244 47 144 C47.33 143.34 47.66 142.68 48 142 C48.66 142 49.32 142 50 142 C50.40992188 141.12408203 50.40992188 141.12408203 50.828125 140.23046875 C51.97367207 138.05011082 53.2376947 136.25166567 54.75 134.3125 C59.72077817 127.75789545 64.02645309 122.0586499 66 114 C66.66 113.34 67.32 112.68 68 112 C69.83527602 106.17029972 70.38048186 100.5305101 70.75390625 94.44140625 C71 92 71 92 72 91 C74.69654854 90.92680379 77.36691458 90.90757463 80.0625 90.9375 C80.82111328 90.94201172 81.57972656 90.94652344 82.36132812 90.95117188 C84.24091871 90.9629932 86.12046899 90.98092922 88 91 C87.71766639 93.75125089 87.42452667 96.50061337 87.125 99.25 C87.04636719 100.02730469 86.96773437 100.80460937 86.88671875 101.60546875 C86.45830574 105.46118581 86.08848989 108.64203587 84 112 C82.80244697 114.67688325 82.01389492 116.89578807 81.625 119.8125 C80.83169106 123.85837561 79.49764423 127.67773673 77 131 C74.86328125 131.73046875 74.86328125 131.73046875 73 132 C73.33 132.99 73.66 133.98 74 135 C73.175 135.763125 72.35 136.52625 71.5 137.3125 C68.65944803 139.75434142 68.65944803 139.75434142 69 143 C68.34 143.33 67.68 143.66 67 144 C66.67 144.99 66.34 145.98 66 147 C64.36395804 148.37073786 62.69321939 149.70055256 61 151 C59.9790625 152.051875 59.9790625 152.051875 58.9375 153.125 C56.19220593 155.7817362 53.59394516 156.80201828 50 158 C49.71125 158.66 49.4225 159.32 49.125 160 C48.568125 160.99 48.568125 160.99 48 162 C45.4375 162.625 45.4375 162.625 43 163 C42.67 163.66 42.34 164.32 42 165 C41.0409375 165.433125 41.0409375 165.433125 40.0625 165.875 C37.83728675 166.79408527 37.83728675 166.79408527 37.3046875 168.90625 C35.34293819 172.0544465 32.44809703 172.60293297 29.0625 173.625 C27.81597656 174.02976562 26.56945312 174.43453125 25.28515625 174.8515625 C7.53425229 179.8857485 -11.50855507 179.94122822 -29 174 C-30.04027344 173.649375 -31.08054688 173.29875 -32.15234375 172.9375 C-54.0209088 164.66135449 -71.92514852 147.51795904 -81.9375 126.5 C-86.55486662 116.25425278 -89.57164652 105.25712952 -90 94 C-90.06316406 92.95714844 -90.12632812 91.91429687 -90.19140625 90.83984375 C-90.52603163 81.26524023 -88.6143631 73.1018567 -86 64 C-85.79632813 63.11828125 -85.59265625 62.2365625 -85.3828125 61.328125 C-82.63510401 50.11145199 -75.15928879 37.13668688 -67 29 C-66.34 29 -65.68 29 -65 29 C-64.34 27.68 -63.68 26.36 -63 25 C-62.34 25 -61.68 25 -61 25 C-61 24.34 -61 23.68 -61 23 C-44.97964871 7.78498056 -22.09365402 -1.26249452 0 0 Z " fill="#17C48B" transform="translate(249,198)"/>
<path d="M0 0 C13.5212766 0 13.5212766 0 18.375 1.25 C19.97794922 1.66185547 19.97794922 1.66185547 21.61328125 2.08203125 C23.28970703 2.53642578 23.28970703 2.53642578 25 3 C26.25167969 3.31324219 27.50335938 3.62648437 28.79296875 3.94921875 C38.83364128 6.58164378 38.83364128 6.58164378 43 11 C44.78780863 12.02355456 46.60344846 12.99932167 48.4375 13.9375 C56.22048516 18.3481758 61.97910288 24.46533714 68 31 C68.97839844 32.04607422 68.97839844 32.04607422 69.9765625 33.11328125 C75.03352358 38.75373784 80.77860586 46.01863183 81.125 53.8125 C81.08375 54.534375 81.0425 55.25625 81 56 C81.66 56 82.32 56 83 56 C88.49618436 66.99236873 89 77.78061194 89 90 C59.63 89.67 30.26 89.34 0 89 C0 59.63 0 30.26 0 0 Z " fill="#0A7694" transform="translate(249,198)"/>
<path d="M0 0 C3.64732525 2.13501966 6.33674262 4.2305326 9.04321289 7.48291016 C13.21240144 12.33202247 17.71189285 16.81095112 22.25912285 21.30372238 C23.77894125 22.80590382 25.2949771 24.31181334 26.81007385 25.8187561 C31.11183541 30.09625496 35.41948148 34.36779386 39.73120117 38.63525391 C42.38240431 41.25975384 45.02877893 43.88904191 47.67219734 46.52138138 C48.67788178 47.52085078 49.68546056 48.51841774 50.69494438 49.51404953 C52.09725558 50.89725105 53.49301699 52.28708352 54.88842773 53.67724609 C56.08253517 54.86016739 56.08253517 54.86016739 57.30076599 56.06698608 C59 58 59 58 59 60 C59.84502248 60.38796926 59.84502248 60.38796926 60.70711613 60.78377628 C65.55754171 63.35660725 69.06218176 66.32003023 72 71 C73.30245159 77.21965719 73.14077948 83.3174653 73.02172852 89.64672852 C73.01918729 91.53965635 73.02061986 93.43259305 73.02571106 95.32551575 C73.0282861 100.44543848 72.97549573 105.56345116 72.91254544 110.68293118 C72.85615989 116.03998116 72.85098719 121.39707833 72.84031677 126.75437927 C72.81237967 136.89055026 72.73857378 147.02584425 72.64817137 157.16162962 C72.54746164 168.70442075 72.49806222 180.24725449 72.45291245 191.79037583 C72.35892095 215.52740282 72.20068883 239.2636522 72 263 C71.67 263 71.34 263 71 263 C71 199.97 71 136.94 71 72 C69.515 72.495 69.515 72.495 68 73 C66.11979939 73.08536561 64.23660796 73.11012089 62.35449219 73.10107422 C60.61688629 73.09513748 60.61688629 73.09513748 58.84417725 73.08908081 C53.54620884 73.04109551 48.24841636 72.99184771 42.95068359 72.92285156 C39.46619 72.87917759 35.98214685 72.86329205 32.49741745 72.85362053 C29.15942571 72.83759545 25.82209715 72.78735933 22.484375 72.7421875 C20.61685577 72.74338089 20.61685577 72.74338089 18.71160889 72.74459839 C7.8124855 72.53173001 7.8124855 72.53173001 3.2824707 68.50106812 C-2.14710112 62.14602459 -1.40980389 54.89996165 -1.328125 46.953125 C-1.32625183 45.70497009 -1.32437866 44.45681519 -1.32244873 43.1708374 C-1.3140332 39.87076374 -1.29210461 36.57113405 -1.26428223 33.2711792 C-1.24522246 30.57389596 -1.24113647 27.87668195 -1.2375679 25.17934036 C-1.23241435 21.95807199 -1.21788099 18.73686176 -1.203125 15.515625 C-1.19887512 14.30626282 -1.19462524 13.09690063 -1.19024658 11.85089111 C-1.18063904 10.73252869 -1.17103149 9.61416626 -1.16113281 8.46191406 C-1.15430481 7.47709045 -1.14747681 6.49226685 -1.14044189 5.4776001 C-1 3 -1 3 0 0 Z " fill="#3997D5" transform="translate(285,111)"/>
<path d="M0 0 C0.99 0.66 1.98 1.32 3 2 C3.34057617 4.70556641 3.34057617 4.70556641 3.29296875 8.1015625 C3.28330078 9.31328125 3.27363281 10.525 3.26367188 11.7734375 C3.23853516 13.04445313 3.21339844 14.31546875 3.1875 15.625 C3.17396484 16.90375 3.16042969 18.1825 3.14648438 19.5 C3.11103196 22.66708282 3.06161441 25.83333541 3 29 C3.66 29.33 4.32 29.66 5 30 C3.25 34.875 3.25 34.875 1 36 C0.37791727 37.77846041 0.37791727 37.77846041 0 39.9375 C-0.24363281 41.14019531 -0.24363281 41.14019531 -0.4921875 42.3671875 C-0.74355469 43.67042969 -0.74355469 43.67042969 -1 45 C-1.37494456 46.85417788 -1.74994298 48.70834487 -2.125 50.5625 C-2.41764321 52.04147377 -2.70967339 53.52056973 -3 55 C-3.66 55 -4.32 55 -5 55 C-5 55.66 -5 56.32 -5 57 C-4.34 57.33 -3.68 57.66 -3 58 C-3.66 58 -4.32 58 -5 58 C-5.33 58.99 -5.66 59.98 -6 61 C-6.5775 61.556875 -7.155 62.11375 -7.75 62.6875 C-12.75791061 67.83451923 -17 74.59758898 -17 82 C-18.65 81.67 -20.3 81.34 -22 81 C-23.2065625 82.3921875 -23.2065625 82.3921875 -24.4375 83.8125 C-25.11619141 84.59560547 -25.11619141 84.59560547 -25.80859375 85.39453125 C-27.20871231 87.10712971 -27.20871231 87.10712971 -28 90 C-29.32 90 -30.64 90 -32 90 C-34.03335209 91.28189588 -36.03081154 92.62156808 -38 94 C-39.99107248 95.01765927 -41.99218823 96.01577854 -44 97 C-45.58872575 97.84409456 -47.17179015 98.69890357 -48.75 99.5625 C-49.88695312 100.18318359 -49.88695312 100.18318359 -51.046875 100.81640625 C-53.13401044 101.97516739 -53.13401044 101.97516739 -55 104 C-57.3260857 104.38063221 -59.66055264 104.71269945 -62 105 C-63.485 105.495 -63.485 105.495 -65 106 C-73.82138694 107.39714452 -82.6297923 108.19656687 -91.5625 108.25 C-92.28703369 108.259104 -93.01156738 108.26820801 -93.75805664 108.27758789 C-98.80512745 108.24911932 -103.1296835 107.30905861 -108 106 C-111.33394439 105.8309611 -111.33394439 105.8309611 -114 106 C-114 105.34 -114 104.68 -114 104 C-114.928125 104.04125 -115.85625 104.0825 -116.8125 104.125 C-120 104 -120 104 -123 102 C-123.66 102.99 -124.32 103.98 -125 105 C-125.66 105 -126.32 105 -127 105 C-127.66 102.69 -128.32 100.38 -129 98 C-129.66 98 -130.32 98 -131 98 C-131 97.34 -131 96.68 -131 96 C-132.98 96.495 -132.98 96.495 -135 97 C-135.66 96.01 -136.32 95.02 -137 94 C-137.99 93.67 -138.98 93.34 -140 93 C-140 92.34 -140 91.68 -140 91 C-141.65 90.67 -143.3 90.34 -145 90 C-145 89.34 -145 88.68 -145 88 C-146.98 88.495 -146.98 88.495 -149 89 C-149.433125 88.030625 -149.86625 87.06125 -150.3125 86.0625 C-151.7014861 82.72268235 -151.7014861 82.72268235 -155 82 C-156.0625 79.6875 -156.0625 79.6875 -157 77 C-157.85790183 74.78228936 -157.85790183 74.78228936 -159 73 C-159.99 72.67 -160.98 72.34 -162 72 C-162 71.34 -162 70.68 -162 70 C-162.66 70 -163.32 70 -164 70 C-164.37125 69.0925 -164.7425 68.185 -165.125 67.25 C-167.08201681 62.60446011 -169.49997058 58.203626 -171.890625 53.76953125 C-173.052011 50.87015563 -173.1632929 49.83383562 -172 47 C-171.30777344 48.48886719 -171.30777344 48.48886719 -170.6015625 50.0078125 C-158.55294584 75.33155171 -141.39030922 92.31131587 -114.72265625 101.88671875 C-106.3832469 104.38066593 -98.50932843 105.36316114 -89.8125 105.3125 C-88.30465942 105.30512817 -88.30465942 105.30512817 -86.76635742 105.29760742 C-74.94334785 105.11291729 -64.47276277 103.13618683 -53.68359375 98.0859375 C-50.78846565 96.91440095 -48.08816996 96.40812819 -45 96 C-45 95.34 -45 94.68 -45 94 C-43.12890625 92.73828125 -43.12890625 92.73828125 -40.5625 91.3125 C-21.58915135 80.19572107 -8.43977397 61.37652178 -1.89453125 40.46875 C1.11719403 27.23412625 0.27713433 13.48436152 0 0 Z " fill="#0B3767" transform="translate(337,270)"/>
<path d="M0 0 C0.99 0.33 1.98 0.66 3 1 C2.625 2.9375 2.625 2.9375 2 5 C-0.96131664 6.48065832 -3.96603737 6.13720134 -7.21240234 6.12698364 C-8.33990937 6.12932363 -8.33990937 6.12932363 -9.49019432 6.13171089 C-12.02212835 6.13571622 -14.55400297 6.13253304 -17.0859375 6.12939453 C-18.89577266 6.13074878 -20.70560754 6.13252884 -22.51544189 6.13470459 C-27.44092734 6.13927613 -32.36639192 6.1374905 -37.29187775 6.1343255 C-42.43726153 6.13180047 -47.58264349 6.13413984 -52.72802734 6.13571167 C-61.37012046 6.13753294 -70.01220505 6.13512816 -78.65429688 6.13037109 C-88.65744142 6.12492856 -98.66056559 6.12669124 -108.66370964 6.1321975 C-117.23950818 6.13672982 -125.81530058 6.13737859 -134.39109993 6.13475883 C-139.51861022 6.13319672 -144.64611092 6.13300051 -149.77362061 6.13629532 C-154.59325875 6.13917576 -159.41287052 6.13719513 -164.2325058 6.13140106 C-166.00548 6.1300744 -167.77845641 6.13046601 -169.55142975 6.13266373 C-171.96351608 6.13537888 -174.37551684 6.13198959 -176.78759766 6.12698364 C-177.49634222 6.12921436 -178.20508678 6.13144509 -178.93530846 6.13374341 C-183.77169981 6.11415009 -183.77169981 6.11415009 -186 5 C-186 3.68 -186 2.36 -186 1 C-181.46041056 0.87390029 -181.46041056 0.87390029 -179.16015625 1.50390625 C-175.76500365 2.28362484 -172.41515646 2.01660842 -168.94921875 1.9375 C-166 2 -166 2 -162.76416016 2.49560547 C-159.06643236 2.99109812 -155.55253402 3.12932972 -151.82421875 3.1328125 C-151.17298538 3.13376923 -150.52175201 3.13472595 -149.8507843 3.13571167 C-148.48865664 3.13638661 -147.12652562 3.13458067 -145.7644043 3.13037109 C-143.67554618 3.12496909 -141.5868988 3.13036148 -139.49804688 3.13671875 C-138.18255859 3.13542969 -136.86707031 3.13414062 -135.51171875 3.1328125 C-133.70900513 3.13112061 -133.70900513 3.13112061 -131.86987305 3.12939453 C-129.05595026 3.19733907 -129.05595026 3.19733907 -127 2 C-127 2.66 -127 3.32 -127 4 C-124.54149928 3.8566383 -122.08319771 3.71091742 -119.625 3.5625 C-118.89853271 3.51883301 -118.17206543 3.47516602 -117.42358398 3.43017578 C-112.5034581 3.12345246 -107.61634768 2.69050038 -102.72265625 2.0859375 C-102.15417969 2.05757813 -101.58570313 2.02921875 -101 2 C-100.505 2.495 -100.505 2.495 -100 3 C-97.14031588 3.10057642 -94.30474889 3.13615342 -91.44458008 3.12939453 C-90.54698975 3.13114685 -89.64939941 3.13289917 -88.72460938 3.13470459 C-85.739564 3.13912686 -82.7545773 3.13618257 -79.76953125 3.1328125 C-77.70025115 3.13348573 -75.63097112 3.13445591 -73.56169128 3.13571167 C-69.21454112 3.13718939 -64.86741146 3.13503281 -60.52026367 3.13037109 C-54.95284537 3.1246915 -49.38547546 3.12794108 -43.81805897 3.13394356 C-39.53978615 3.13756234 -35.26152474 3.13640421 -30.98325157 3.13381577 C-28.93117962 3.13314922 -26.87910664 3.13396541 -24.8270359 3.13629532 C-21.95212706 3.13884143 -19.07729567 3.1349528 -16.20239258 3.12939453 C-14.9326786 3.13243088 -14.9326786 3.13243088 -13.63731384 3.13552856 C-9.33739456 3.1201672 -5.2000024 3.0416849 -1 2 C-0.67 1.34 -0.34 0.68 0 0 Z " fill="#8691B8" transform="translate(342,384)"/>
<path d="M0 0 C0 5.94 0 11.88 0 18 C-1.485 17.505 -1.485 17.505 -3 17 C-3 12.05 -3 7.1 -3 2 C-6.155625 2.495 -6.155625 2.495 -9.375 3 C-15.75 4 -15.75 4 -18 4 C-18.33 4.66 -18.66 5.32 -19 6 C-21.5625 6.625 -21.5625 6.625 -24 7 C-23.505 7.99 -23.505 7.99 -23 9 C-23.99 9 -24.98 9 -26 9 C-26 8.34 -26 7.68 -26 7 C-26.66 7 -27.32 7 -28 7 C-28 7.66 -28 8.32 -28 9 C-29.5778125 9.1546875 -29.5778125 9.1546875 -31.1875 9.3125 C-34.92820632 9.9870536 -37.0454781 10.65376202 -40 13 C-40.87822312 15.08533633 -40.87822312 15.08533633 -41 17 C-42.32 16.34 -43.64 15.68 -45 15 C-45.598125 15.66 -46.19625 16.32 -46.8125 17 C-49 19 -49 19 -52 19 C-52.0928125 19.8971875 -52.0928125 19.8971875 -52.1875 20.8125 C-53.33271869 23.89578108 -55.17414947 24.39440311 -58 26 C-61.8359041 29.44444695 -61.8359041 29.44444695 -64 34 C-64.66 34 -65.32 34 -66 34 C-66.28875 34.598125 -66.5775 35.19625 -66.875 35.8125 C-68 38 -68 38 -70 41 C-70.66 41 -71.32 41 -72 41 C-72.474375 42.11375 -72.94875 43.2275 -73.4375 44.375 C-74.25306463 46.26710994 -75.07856355 48.15712709 -76 50 C-76.66 50 -77.32 50 -78 50 C-79.00039548 52.86780037 -79.93107312 55.6381339 -80.5 58.625 C-81.15379567 61.73052945 -82.50904515 64.13360908 -84.0625 66.875 C-85.15706764 69.1095678 -85.15706764 69.1095678 -85.5 72.1875 C-85.665 73.115625 -85.83 74.04375 -86 75 C-86.99 75.495 -86.99 75.495 -88 76 C-87.26394424 59.36513989 -78.90399045 40.87101541 -67 29 C-66.34 29 -65.68 29 -65 29 C-64.34 27.68 -63.68 26.36 -63 25 C-62.34 25 -61.68 25 -61 25 C-61 24.34 -61 23.68 -61 23 C-44.97964871 7.78498056 -22.09365402 -1.26249452 0 0 Z " fill="#2EE7A8" transform="translate(249,198)"/>
<path d="M0 0 C1.0643074 -0.00137466 2.12861481 -0.00274933 3.22517395 -0.00416565 C4.39258118 -0.00057037 5.5599884 0.0030249 6.76277161 0.00672913 C8.60685356 0.00651009 8.60685356 0.00651009 10.4881897 0.00628662 C13.8598293 0.00686436 17.23140785 0.0118834 20.60303664 0.01886058 C24.1264387 0.02510726 27.64984155 0.02569896 31.17324829 0.02688599 C37.84552448 0.02999542 44.5177843 0.03820359 51.19005328 0.04823548 C58.78610665 0.05940864 66.3821608 0.0649101 73.97822034 0.06993091 C89.6040861 0.08038652 105.22993554 0.09797847 120.85578918 0.12025452 C120.85578918 0.45025452 120.85578918 0.78025452 120.85578918 1.12025452 C100.72578918 1.45025452 80.59578918 1.78025452 59.85578918 2.12025452 C59.85578918 2.45025452 59.85578918 2.78025452 59.85578918 3.12025452 C38.73578918 3.12025452 17.61578918 3.12025452 -4.14421082 3.12025452 C-4.47421082 4.44025452 -4.80421082 5.76025452 -5.14421082 7.12025452 C-6.79421082 6.79025452 -8.44421082 6.46025452 -10.14421082 6.12025452 C-11.25266 9.44560208 -10.98875438 11.74208027 -10.14421082 15.12025452 C-12.12421082 16.11025452 -12.12421082 16.11025452 -14.14421082 17.12025452 C-14.14421082 16.46025452 -14.14421082 15.80025452 -14.14421082 15.12025452 C-15.13421082 15.12025452 -16.12421082 15.12025452 -17.14421082 15.12025452 C-18.26921082 9.37025452 -18.26921082 9.37025452 -17.14421082 7.12025452 C-16.48421082 7.12025452 -15.82421082 7.12025452 -15.14421082 7.12025452 C-15.14421082 6.46025452 -15.14421082 5.80025452 -15.14421082 5.12025452 C-9.89498731 2.04995397 -6.20465764 -0.00617379 0 0 Z " fill="#92B8DC" transform="translate(164.1442108154297,109.87974548339844)"/>
<path d="M0 0 C2.97 0.495 2.97 0.495 6 1 C6 1.66 6 2.32 6 3 C8.97 3.495 8.97 3.495 12 4 C12 5.32 12 6.64 12 8 C14.97 9.65 17.94 11.3 21 13 C21.33 12.34 21.66 11.68 22 11 C22.33 11.99 22.66 12.98 23 14 C23.99 14.33 24.98 14.66 26 15 C26 15.66 26 16.32 26 17 C26.7425 17.12375 27.485 17.2475 28.25 17.375 C31 18 31 18 32.8125 19.0625 C36.20285833 20.51551071 39.33354409 20.1222152 43 20 C43 20.66 43 21.32 43 22 C44.13888672 22.09087891 44.13888672 22.09087891 45.30078125 22.18359375 C46.29464844 22.26738281 47.28851563 22.35117187 48.3125 22.4375 C49.29863281 22.51871094 50.28476563 22.59992188 51.30078125 22.68359375 C54 23 54 23 57 24 C62.7998344 24.34116673 68.67932903 24.58222531 74.3125 23 C78.46447649 21.87404027 81.72573633 21.84734773 86 22 C86.495 20.515 86.495 20.515 87 19 C88.92578125 18.234375 88.92578125 18.234375 91.3125 17.75 C92.09238281 17.57984375 92.87226563 17.4096875 93.67578125 17.234375 C96.07651867 16.99228383 97.71809588 17.2689552 100 18 C79.32969978 27.73852133 55.69997808 29.37071881 34 22 C32.43958984 21.4740625 32.43958984 21.4740625 30.84765625 20.9375 C19.66023215 16.70362596 8.29621653 9.65692159 0 1 C0 0.67 0 0.34 0 0 Z " fill="#178D82" transform="translate(186,350)"/>
<path d="M0 0 C-0.66 1.32 -1.32 2.64 -2 4 C-2.495 3.505 -2.495 3.505 -3 3 C-5.34148732 3.27017161 -7.67504723 3.61250787 -10 4 C-10.79535156 4.12761719 -11.59070313 4.25523437 -12.41015625 4.38671875 C-15.26465069 5.06266992 -17.57668516 6.10641891 -20.1875 7.4375 C-21.04730469 7.86933594 -21.90710938 8.30117187 -22.79296875 8.74609375 C-25.11072432 9.93371729 -25.11072432 9.93371729 -27 12 C-26.34 12.66 -25.68 13.32 -25 14 C-26.65 14.33 -28.3 14.66 -30 15 C-30.33 14.34 -30.66 13.68 -31 13 C-41.63039423 22.2306626 -48.80256663 31.37931585 -55 44 C-55.52013672 45.02673828 -55.52013672 45.02673828 -56.05078125 46.07421875 C-57.16569507 48.33616326 -58.08632398 50.65054737 -59 53 C-59.66 53 -60.32 53 -61 53 C-59.55036525 44.94647361 -55.76895608 38.17512494 -52 31 C-51.34 31 -50.68 31 -50 31 C-49.7525 30.10152344 -49.505 29.20304687 -49.25 28.27734375 C-44.64834394 16.21237676 -29.3160496 8.68194455 -18.26953125 3.4453125 C-12.12928553 0.73098643 -6.69317721 -0.27888238 0 0 Z " fill="#0CB796" transform="translate(241,217)"/>
<path d="M0 0 C41.25 0 82.5 0 125 0 C125.495 1.485 125.495 1.485 126 3 C124.34385343 3.38218767 122.67542976 3.71395102 121 4 C120.505 3.505 120.505 3.505 120 3 C118.44462349 2.87984397 116.88390138 2.82821535 115.32408142 2.80381775 C113.80747169 2.77651329 113.80747169 2.77651329 112.26022339 2.74865723 C111.14173004 2.73355103 110.02323669 2.71844482 108.87084961 2.70288086 C107.70027512 2.68322769 106.52970062 2.66357452 105.32365417 2.64332581 C102.10485034 2.59024836 98.88601514 2.54154624 95.66711497 2.49474788 C92.30646762 2.44486766 88.9459118 2.38945128 85.58534241 2.33460999 C79.21764245 2.23154281 72.84987545 2.13348949 66.48206955 2.03721577 C59.23423824 1.92739454 51.98649876 1.81201686 44.73876178 1.69616115 C29.82593537 1.45790341 14.91300753 1.22666021 0 1 C0 0.67 0 0.34 0 0 Z " fill="#5076A2" transform="translate(160,111)"/>
<path d="M0 0 C3.64513031 2.13373482 6.33672438 4.22946448 9.04321289 7.47851562 C13.67587604 12.86653494 18.71078848 17.83578493 23.74609375 22.84375 C24.76764047 23.86342709 25.78896326 24.88332856 26.81007385 25.90344238 C29.47266437 28.56225061 32.13824599 31.21803958 34.80450439 33.87316895 C37.53492671 36.59328393 40.26245074 39.31630185 42.99023438 42.0390625 C48.324022 47.36218863 53.66097916 52.68212218 59 58 C58.505 58.99 58.505 58.99 58 60 C57.5247287 59.51806686 57.0494574 59.03613373 56.55978394 58.53959656 C51.60466157 53.51802279 46.63894659 48.5071047 41.66699219 43.50219727 C39.81367514 41.63380864 37.96306149 39.76273433 36.11523438 37.88891602 C33.45631455 35.19354326 30.7877719 32.50802853 28.1171875 29.82421875 C27.29507782 28.98662521 26.47296814 28.14903168 25.62594604 27.28605652 C21.60466639 23.2636092 18.22243919 20.24907592 13 18 C12.67 17.34 12.34 16.68 12 16 C9.03 16.33 6.06 16.66 3 17 C3 12.91621923 3.80712589 9.87684087 5 6 C3.35 5.67 1.7 5.34 0 5 C0 3.33333333 0 1.66666667 0 0 Z " fill="#85C3E8" transform="translate(285,111)"/>
<path d="M0 0 C2.66111333 3.24894135 4.30531142 6.63385592 6.0625 10.4375 C14.99227281 28.84850504 29.70510112 42.08433902 48 51 C49.70736328 51.54140625 49.70736328 51.54140625 51.44921875 52.09375 C52.29097656 52.3928125 53.13273437 52.691875 54 53 C54.33 53.99 54.66 54.98 55 56 C53 56 51 56 49 56 C48.505 56.99 48.505 56.99 48 58 C47.34 58 46.68 58 46 58 C45.34 55.69 44.68 53.38 44 51 C43.34 51 42.68 51 42 51 C42 50.34 42 49.68 42 49 C40.02 49.495 40.02 49.495 38 50 C37.34 49.01 36.68 48.02 36 47 C35.01 46.67 34.02 46.34 33 46 C33 45.34 33 44.68 33 44 C31.35 43.67 29.7 43.34 28 43 C28 42.34 28 41.68 28 41 C26.02 41.495 26.02 41.495 24 42 C23.566875 41.030625 23.13375 40.06125 22.6875 39.0625 C21.2985139 35.72268235 21.2985139 35.72268235 18 35 C16.9375 32.6875 16.9375 32.6875 16 30 C15.14209817 27.78228936 15.14209817 27.78228936 14 26 C13.01 25.67 12.02 25.34 11 25 C11 24.34 11 23.68 11 23 C10.34 23 9.68 23 9 23 C8.62875 22.0925 8.2575 21.185 7.875 20.25 C5.91643186 15.62323758 3.55021685 11.21075165 1.20703125 6.76953125 C0 4 0 4 0 0 Z " fill="#0E4272" transform="translate(164,317)"/>
<path d="M0 0 C1 2 1 2 0.43017578 3.78076172 C-0.6570968 6.15313983 -1.74934019 8.52050803 -2.875 10.875 C-3.28339111 11.73254883 -3.69178223 12.59009766 -4.11254883 13.47363281 C-7.6615698 20.70631858 -11.81700515 26.81416515 -17 33 C-17.48726563 33.64839844 -17.97453125 34.29679687 -18.4765625 34.96484375 C-23.96295931 42.03940806 -32.20869147 47.73300954 -40 52 C-40.66 52 -41.32 52 -42 52 C-42 52.66 -42 53.32 -42 54 C-44.97 54.495 -44.97 54.495 -48 55 C-47 52 -47 52 -44.671875 50.60546875 C-43.70765625 50.13753906 -42.7434375 49.66960937 -41.75 49.1875 C-38.21237026 47.35926758 -35.51684868 45.89720661 -33.125 42.6875 C-30.60215126 39.49683836 -29.78471214 39.75694243 -26 39 C-24.15698229 37.12511455 -22.62965446 35.07010161 -21 33 C-20.34 33 -19.68 33 -19 33 C-18.87625 32.4225 -18.7525 31.845 -18.625 31.25 C-17.63872193 27.69939895 -16.60405411 25.53501935 -13.8125 23.0625 C-13.214375 22.381875 -12.61625 21.70125 -12 21 C-12.14025199 18.29294488 -12.14025199 18.29294488 -13 16 C-11.35 16 -9.7 16 -8 16 C-7.59007812 15.01257813 -7.18015625 14.02515625 -6.7578125 13.0078125 C-6.21379826 11.71343379 -5.66951331 10.41916884 -5.125 9.125 C-4.85558594 8.47402344 -4.58617187 7.82304687 -4.30859375 7.15234375 C-3.11576714 4.33029055 -2.18742011 2.18742011 0 0 Z " fill="#168E80" transform="translate(334,312)"/>
<path d="M0 0 C7.11905227 5.80683219 13.47374812 12.36285444 19.9375 18.875 C21.10979204 20.05231638 22.28231614 21.22940174 23.45507812 22.40625 C26.30606982 25.26817489 29.15389615 28.13321457 32 31 C31.34 31.66 30.68 32.32 30 33 C26.9609375 32.9765625 26.9609375 32.9765625 23.375 32.625 C22.18648438 32.51414063 20.99796875 32.40328125 19.7734375 32.2890625 C18.85820312 32.19367188 17.94296875 32.09828125 17 32 C17 31.01 17 30.02 17 29 C18.65 28.34 20.3 27.68 22 27 C22 26.01 22 25.02 22 24 C21.443125 24.165 20.88625 24.33 20.3125 24.5 C18 25 18 25 13 25 C13.33 21.7 13.66 18.4 14 15 C12.824375 14.9071875 12.824375 14.9071875 11.625 14.8125 C10.75875 14.544375 9.8925 14.27625 9 14 C7.9375 11.625 7.9375 11.625 7 9 C4.64955469 6.87701714 3.03010726 6.01003575 0 5 C0 3.35 0 1.7 0 0 Z " fill="#2D86BA" transform="translate(323,151)"/>
<path d="M0 0 C-3.55410336 2.36940224 -5.97058483 2.53388257 -10.1875 3.125 C-26.31767513 5.82104619 -40.45376923 14.86580575 -50.87890625 27.39453125 C-52.12852258 29.1840515 -53.0714623 31.02739226 -54 33 C-54.66 33 -55.32 33 -56 33 C-56.268125 33.886875 -56.53625 34.77375 -56.8125 35.6875 C-57.91710819 38.76877548 -59.22849144 41.26221405 -61 44 C-61.66 43.34 -62.32 42.68 -63 42 C-61.12497439 38.07042505 -59.26442295 34.25259254 -56.75 30.6875 C-54.72716341 28.11550894 -54.72716341 28.11550894 -55 25 C-53.35 24.67 -51.7 24.34 -50 24 C-49.67 23.01 -49.34 22.02 -49 21 C-47.71034824 19.62437146 -46.37310707 18.29233607 -45 17 C-44.2575 16.1646875 -44.2575 16.1646875 -43.5 15.3125 C-41.70521977 13.7420673 -40.28654188 13.57163547 -38 13 C-37.319375 12.319375 -37.319375 12.319375 -36.625 11.625 C-34.39689256 9.39689256 -31.83438681 8.32271384 -29 7 C-29 6.01 -29 5.02 -29 4 C-27.68 3.34 -26.36 2.68 -25 2 C-25 2.66 -25 3.32 -25 4 C-24.13375 3.53980469 -24.13375 3.53980469 -23.25 3.0703125 C-15.87642296 -0.43725714 -8.00155451 -0.24370217 0 0 Z " fill="#26EBA4" transform="translate(245,215)"/>
<path d="M0 0 C0.33 0 0.66 0 1 0 C1 1.98 1 3.96 1 6 C5.02474375 6.69659026 8.08360578 7.17491826 12 6 C13.66623639 5.96213099 15.33397597 5.95372155 17 6 C16.67 6.99 16.34 7.98 16 9 C-10.4 9 -36.8 9 -64 9 C-63.67 8.34 -63.34 7.68 -63 7 C-42.21 7 -21.42 7 0 7 C0 4.69 0 2.38 0 0 Z " fill="#006179" transform="translate(319,278)"/>
<path d="M0 0 C0.99 0.33 1.98 0.66 3 1 C2.67 1.99 2.34 2.98 2 4 C-1.85730459 5.2857682 -5.49180882 5.13111459 -9.51049805 5.11352539 C-10.37900391 5.11367142 -11.24750977 5.11381744 -12.14233398 5.1139679 C-15.01548757 5.11327076 -17.88857648 5.10548761 -20.76171875 5.09765625 C-22.75283269 5.09579137 -24.74394708 5.09436779 -26.73506165 5.09336853 C-31.97772486 5.0895489 -37.22036041 5.07972332 -42.4630127 5.06866455 C-47.81192653 5.05843854 -53.16084483 5.05386835 -58.50976562 5.04882812 C-69.00652258 5.03810058 -79.50325899 5.02103077 -90 5 C-90 4.67 -90 4.34 -90 4 C-68.42086612 2.90265697 -46.86507073 2.92489367 -25.26318359 3.03710938 C-24.10462357 3.04133911 -22.94606354 3.04556885 -21.75239563 3.04992676 C-19.55884229 3.05810229 -17.3652992 3.07048613 -15.17179871 3.08776855 C-8.02356071 3.16812143 -8.02356071 3.16812143 -1 2 C-0.67 1.34 -0.34 0.68 0 0 Z " fill="#1E295E" transform="translate(342,384)"/>
<path d="M0 0 C23.43 0 46.86 0 71 0 C71 0.66 71 1.32 71 2 C67.59619598 3.13460134 65.09632988 3.08230201 61.5090332 3.02172852 C60.8551059 3.01212097 60.20117859 3.00251343 59.5274353 2.99261475 C57.36843974 2.95966373 55.209649 2.9193168 53.05078125 2.87890625 C51.55291972 2.85460131 50.05505063 2.83075794 48.55717468 2.80735779 C44.61647937 2.74455402 40.67591797 2.67547692 36.73535156 2.60510254 C32.71360365 2.53438559 28.69176087 2.46958874 24.66992188 2.40429688 C16.77984286 2.27533232 8.88989546 2.1397417 1 2 C0.67 1.34 0.34 0.68 0 0 Z " fill="#128C8C" transform="translate(249,287)"/>
<path d="M0 0 C0.99 0.495 0.99 0.495 2 1 C2.19713345 4.74955875 2.3810316 8.49965304 2.5625 12.25 C2.61857422 13.31347656 2.67464844 14.37695312 2.73242188 15.47265625 C2.78076172 16.49746094 2.82910156 17.52226562 2.87890625 18.578125 C2.9260376 19.52075195 2.97316895 20.46337891 3.02172852 21.43457031 C3 24 3 24 2.51147461 25.89013672 C1.75776387 28.99923848 1.90858188 31.98544023 1.9375 35.1796875 C1.94128662 35.87007111 1.94507324 36.56045471 1.94897461 37.27175903 C1.9652504 40.21298597 1.99334089 43.15407155 2.02050781 46.09521484 C2.03868594 48.24836575 2.05072279 50.40149355 2.0625 52.5546875 C2.07410156 53.83843262 2.08570313 55.12217773 2.09765625 56.44482422 C2.00729092 59.73457397 1.63118709 62.77510612 1 66 C0.67 66 0.34 66 0 66 C0 44.22 0 22.44 0 0 Z " fill="#2D5C9F" transform="translate(145,175)"/>
<path d="M0 0 C12.41951884 -0.44889827 23.23692729 2.25599717 35 6 C35 6.66 35 7.32 35 8 C35.66 8.33 36.32 8.66 37 9 C32.84312708 9 31.41069706 8.39534786 27.8125 6.5625 C22.74287657 4.16287825 18.53881406 3.31372189 13 3 C11.906875 2.814375 10.81375 2.62875 9.6875 2.4375 C6.79580809 1.89288293 6.79580809 1.89288293 3 2 C2.30110847 6.93524945 1.81178588 11.09861675 3 16 C2.67 16.66 2.34 17.32 2 18 C1.34 18 0.68 18 0 18 C0 12.06 0 6.12 0 0 Z " fill="#1C90B0" transform="translate(249,198)"/>
<path d="M0 0 C2.31 0 4.62 0 7 0 C7 23.43 7 46.86 7 71 C6.67 71 6.34 71 6 71 C5.33433022 55.46829523 4.87186105 39.99352092 5.03710938 24.44604492 C5.04548828 23.37974854 5.05386719 22.31345215 5.0625 21.21484375 C5.07410156 20.27761475 5.08570313 19.34038574 5.09765625 18.37475586 C5.10361117 15.84919802 5.10361117 15.84919802 4 13 C4.66 13 5.32 13 6 13 C5.67 9.04 5.34 5.08 5 1 C3.35 1.33 1.7 1.66 0 2 C0 1.34 0 0.68 0 0 Z " fill="#109196" transform="translate(242,216)"/>
<path d="M0 0 C4.53958944 -0.12609971 4.53958944 -0.12609971 6.83984375 0.50390625 C10.23499635 1.28362484 13.58484354 1.01660842 17.05078125 0.9375 C20 1 20 1 23.203125 1.46484375 C27.94511277 2.13321034 32.65663219 2.35254108 37.4375 2.5625 C38.35982422 2.60568359 39.28214844 2.64886719 40.23242188 2.69335938 C42.48816163 2.79854931 44.74399499 2.90069107 47 3 C47 3.33 47 3.66 47 4 C40.94938454 4.02472278 34.89879851 4.04287086 28.84814453 4.05493164 C26.78987109 4.05995973 24.73160122 4.06678306 22.67333984 4.07543945 C19.71450926 4.08757166 16.75572592 4.09324357 13.796875 4.09765625 C12.87694763 4.10281754 11.95702026 4.10797882 11.00921631 4.11329651 C10.1486261 4.11337204 9.28803589 4.11344757 8.40136719 4.11352539 C7.26885529 4.11685631 7.26885529 4.11685631 6.11346436 4.12025452 C3.9606277 3.99775975 2.06919263 3.59128419 0 3 C0 2.01 0 1.02 0 0 Z " fill="#24396A" transform="translate(156,385)"/>
<path d="M0 0 C2.81256281 -0.02684312 5.62487241 -0.04676188 8.4375 -0.0625 C9.23994141 -0.07087891 10.04238281 -0.07925781 10.86914062 -0.08789062 C12.91295221 -0.0965143 14.95683902 -0.0522815 17 0 C18.55693587 1.55693587 18.20754302 3.01865612 18.25 5.1875 C18.16655792 12.41566976 17.7901096 21.80687457 12.890625 27.4140625 C12.26671875 27.93742187 11.6428125 28.46078125 11 29 C11 25.07103605 12.00299863 21.80106772 13 18 C13.33 18 13.66 18 14 18 C14.99 12.72 15.98 7.44 17 2 C8.585 2.495 8.585 2.495 0 3 C0 2.01 0 1.02 0 0 Z " fill="#1BA08C" transform="translate(320,287)"/>
<path d="M0 0 C2.97 0.495 2.97 0.495 6 1 C6 1.66 6 2.32 6 3 C8.97 3.495 8.97 3.495 12 4 C12 5.32 12 6.64 12 8 C14.97 9.65 17.94 11.3 21 13 C21.33 12.34 21.66 11.68 22 11 C22.33 11.99 22.66 12.98 23 14 C23.99 14.33 24.98 14.66 26 15 C26 15.66 26 16.32 26 17 C26.7425 17.12375 27.485 17.2475 28.25 17.375 C30.80141485 17.95486701 32.7267573 18.73708739 35 20 C30.09687991 21.63437336 26.48074416 19.2200841 22 17 C14.15497517 12.56429315 6.26466888 7.53704578 0 1 C0 0.67 0 0.34 0 0 Z " fill="#1C9789" transform="translate(186,350)"/>
<path d="M0 0 C0.33 0 0.66 0 1 0 C1 6.6 1 13.2 1 20 C1.66 20 2.32 20 3 20 C3.04898438 20.96421875 3.09796875 21.9284375 3.1484375 22.921875 C3.22320312 24.18515625 3.29796875 25.4484375 3.375 26.75 C3.44460937 28.00296875 3.51421875 29.2559375 3.5859375 30.546875 C3.96168444 33.68046272 4.51294253 35.31370264 6 38 C6.125 41.25 6.125 41.25 6 44 C-1.64945824 32.52581264 -1.60614035 15.26377716 -1 2 C-0.67 1.34 -0.34 0.68 0 0 Z " fill="#26BB9F" transform="translate(160,276)"/>
<path d="M0 0 C2.67360514 3.26596077 4.34552051 6.68314544 6.125 10.5 C9.12528913 16.75835769 12.71779898 21.96305175 17.08203125 27.37890625 C18.91039579 29.877547 20.00350943 32.08434239 21 35 C20.01 35 19.02 35 18 35 C17.71125 34.2575 17.4225 33.515 17.125 32.75 C15.7398151 29.28490054 15.7398151 29.28490054 14 26 C13.01 25.67 12.02 25.34 11 25 C11 24.34 11 23.68 11 23 C10.34 23 9.68 23 9 23 C8.62875 22.0925 8.2575 21.185 7.875 20.25 C5.91643186 15.62323758 3.55021685 11.21075165 1.20703125 6.76953125 C0 4 0 4 0 0 Z " fill="#10537C" transform="translate(164,317)"/>
<path d="M0 0 C4.13621084 3.3810038 7.81316569 6.66590534 11 11 C8.05613377 12.47193312 5.62609964 11.84936173 2.375 11.5625 C1.18648438 11.46066406 -0.00203125 11.35882813 -1.2265625 11.25390625 C-2.14179688 11.17011719 -3.05703125 11.08632812 -4 11 C-4 10.01 -4 9.02 -4 8 C-2.35 7.34 -0.7 6.68 1 6 C0.67 4.02 0.34 2.04 0 0 Z " fill="#257EB6" transform="translate(344,172)"/>
<path d="M0 0 C0 5.94 0 11.88 0 18 C-0.99 17.67 -1.98 17.34 -3 17 C-3 12.05 -3 7.1 -3 2 C-7.62 2 -12.24 2 -17 2 C-17 1.67 -17 1.34 -17 1 C-11.30629211 -0.23107198 -5.79784572 -0.07070544 0 0 Z " fill="#29E1AD" transform="translate(249,198)"/>
<path d="M0 0 C19.8 0 39.6 0 60 0 C60 0.99 60 1.98 60 3 C59.18308685 2.75885216 59.18308685 2.75885216 58.34967041 2.51283264 C55.65207295 1.92406239 53.16685617 1.8382162 50.40527344 1.79467773 C49.28441345 1.77473251 48.16355347 1.75478729 47.00872803 1.73423767 C45.20229828 1.70916893 45.20229828 1.70916893 43.359375 1.68359375 C42.12205627 1.66281265 40.88473755 1.64203156 39.60992432 1.62062073 C36.32861309 1.56634128 33.04727267 1.51608221 29.76586914 1.46777344 C26.41416896 1.41743908 23.0625628 1.3617364 19.7109375 1.30664062 C13.14069536 1.19955491 6.57038702 1.09776964 0 1 C0 0.67 0 0.34 0 0 Z " fill="#3264A6" transform="translate(224,112)"/>
<path d="M0 0 C1.04414063 0.16242188 2.08828125 0.32484375 3.1640625 0.4921875 C9.21925885 1.24741913 15.28227787 1.1452416 21.375 1.125 C22.56222656 1.12886719 23.74945313 1.13273438 24.97265625 1.13671875 C26.10316406 1.13542969 27.23367188 1.13414062 28.3984375 1.1328125 C29.94023682 1.13112061 29.94023682 1.13112061 31.51318359 1.12939453 C34.00096035 1.16624203 34.00096035 1.16624203 36 0 C38.69565202 0.16780163 41.32405554 0.61155645 44 1 C44 1.66 44 2.32 44 3 C38.21593031 3.07410115 32.43213629 3.12857885 26.64770508 3.16479492 C24.67955717 3.17989082 22.71144294 3.20036948 20.7434082 3.22631836 C17.91609388 3.26266649 15.0892239 3.27971814 12.26171875 3.29296875 C11.38037766 3.30845261 10.49903656 3.32393646 9.59098816 3.33988953 C8.77036392 3.34011612 7.94973969 3.34034271 7.10424805 3.34057617 C6.38254929 3.34723801 5.66085052 3.35389984 4.9172821 3.36076355 C2.47021711 2.90031391 1.57504115 1.87299108 0 0 Z " fill="#2882C5" transform="translate(291,180)"/>
<path d="M0 0 C0.66 0.33 1.32 0.66 2 1 C1.54109375 1.76441406 1.0821875 2.52882812 0.609375 3.31640625 C-4.20000131 11.71260732 -6.87920573 19.50438344 -9 29 C-9.33837891 30.45986328 -9.33837891 30.45986328 -9.68359375 31.94921875 C-10.14172644 33.96184305 -10.5747721 35.98016749 -11 38 C-11.33 38 -11.66 38 -12 38 C-12.32691748 32.09126921 -12.13779287 27.33292453 -9.7890625 21.8671875 C-8.85124702 19.75721575 -8.85124702 19.75721575 -8 16.4375 C-6.21138701 10.28914284 -3.66875049 5.18685414 0 0 Z " fill="#156F8F" transform="translate(171,240)"/>
<path d="M0 0 C2.475 0.99 2.475 0.99 5 2 C5 2.66 5 3.32 5 4 C6.11955078 4.35578125 6.11955078 4.35578125 7.26171875 4.71875 C10.43612184 6.20406271 11.73257637 7.70864279 13.8125 10.5 C14.41707031 11.2940625 15.02164062 12.088125 15.64453125 12.90625 C17 15 17 15 17 17 C17.66 17 18.32 17 19 17 C19.66 19.64 20.32 22.28 21 25 C19 24 19 24 17.4375 21.0625 C15.00435947 16.62452457 11.68290952 13.14359145 8.26171875 9.4453125 C5.41691879 6.3695875 2.70903654 3.19527387 0 0 Z " fill="#135189" transform="translate(307,219)"/>
<path d="M0 0 C0.99 0.33 1.98 0.66 3 1 C1.35 2.65 -0.3 4.3 -2 6 C-1.01 5.67 -0.02 5.34 1 5 C1 8.27275026 0.70074844 10.846632 0 14 C-3 14 -3 14 -6 13 C-7.125 7.25 -7.125 7.25 -6 5 C-5.34 5 -4.68 5 -4 5 C-4 4.34 -4 3.68 -4 3 C-2.1875 1.3125 -2.1875 1.3125 0 0 Z " fill="#2F6CBB" transform="translate(153,112)"/>
<path d="M0 0 C0.66 1.32 1.32 2.64 2 4 C1.01 5.485 1.01 5.485 0 7 C0.33 7.66 0.66 8.32 1 9 C0.525625 9.5775 0.05125 10.155 -0.4375 10.75 C-1.9676987 12.95348613 -2.48276485 14.41382425 -3 17 C-3.33 17.66 -3.66 18.32 -4 19 C-4.2165625 20.5159375 -4.2165625 20.5159375 -4.4375 22.0625 C-4.623125 23.031875 -4.80875 24.00125 -5 25 C-5.66 25.33 -6.32 25.66 -7 26 C-6.59289869 16.79951037 -4.31533251 8.16623461 0 0 Z " fill="#29E0A2" transform="translate(168,248)"/>
<path d="M0 0 C0.33 0.66 0.66 1.32 1 2 C2.32 2 3.64 2 5 2 C5 1.34 5 0.68 5 0 C5.66 0.33 6.32 0.66 7 1 C6.9175 1.763125 6.835 2.52625 6.75 3.3125 C6.8325 4.199375 6.915 5.08625 7 6 C8.9600281 7.63676257 8.9600281 7.63676257 11 9 C11 9.99 11 10.98 11 12 C5.90025053 10.65006632 2.80502464 7.32802771 0 3 C0 2.01 0 1.02 0 0 Z " fill="#526696" transform="translate(145,376)"/>
<path d="M0 0 C0.33 0 0.66 0 1 0 C1.05534912 0.62455078 1.11069824 1.24910156 1.16772461 1.89257812 C1.42284782 4.76185148 1.68015928 7.63092471 1.9375 10.5 C2.02451172 11.48226563 2.11152344 12.46453125 2.20117188 13.4765625 C2.69841092 19.00144082 3.27328115 24.50050598 4 30 C1.90149549 26.85224323 1.51433498 25.0492934 0.9375 21.375 C0.63491174 17.87862912 0.63491174 17.87862912 -1 15 C-1.09927286 13.0437407 -1.12969729 11.08377091 -1.125 9.125 C-1.12757813 8.05507813 -1.13015625 6.98515625 -1.1328125 5.8828125 C-1 3 -1 3 0 0 Z " fill="#135D87" transform="translate(158,280)"/>
<path d="M0 0 C1.91423658 0.81210037 3.52072017 1.52072017 5 3 C5.04063832 4.66617115 5.042721 6.33388095 5 8 C2.33333333 8 -0.33333333 8 -3 8 C-2.74438677 5.6568787 -2.40729228 3.32156597 -2 1 C-1.34 0.67 -0.68 0.34 0 0 Z " fill="#2185C2" transform="translate(339,168)"/>
<path d="M0 0 C2.31 0 4.62 0 7 0 C7 8.58 7 17.16 7 26 C6.34 26 5.68 26 5 26 C5.01160156 25.31292969 5.02320313 24.62585938 5.03515625 23.91796875 C5.04417969 23.01691406 5.05320313 22.11585938 5.0625 21.1875 C5.07410156 20.29417969 5.08570313 19.40085938 5.09765625 18.48046875 C5.11009967 15.86586209 5.11009967 15.86586209 4 13 C4.66 13 5.32 13 6 13 C5.67 9.04 5.34 5.08 5 1 C3.35 1.33 1.7 1.66 0 2 C0 1.34 0 0.68 0 0 Z " fill="#11A59F" transform="translate(242,216)"/>
<path d="M0 0 C2.31 0 4.62 0 7 0 C5.68 0.33 4.36 0.66 3 1 C2.30110847 5.93524945 1.81178588 10.09861675 3 15 C2.67 15.66 2.34 16.32 2 17 C1.34 17 0.68 17 0 17 C0 11.39 0 5.78 0 0 Z " fill="#0FAAAB" transform="translate(249,199)"/>
<path d="M0 0 C3 1 3 1 4.09765625 3.07421875 C4.41605469 3.93660156 4.73445313 4.79898438 5.0625 5.6875 C5.39894531 6.595 5.73539062 7.5025 6.08203125 8.4375 C6.53642578 9.7059375 6.53642578 9.7059375 7 11 C7.4125 12.051875 7.825 13.10375 8.25 14.1875 C9.14341477 17.5378054 9.13806861 20.54828485 9 24 C7.15209462 20.68983906 6.25458513 17.42826509 5.375 13.75 C5.11460937 12.67234375 4.85421875 11.5946875 4.5859375 10.484375 C4.39257812 9.66453125 4.19921875 8.8446875 4 8 C3.34 8 2.68 8 2 8 C1.34 5.36 0.68 2.72 0 0 Z " fill="#10477D" transform="translate(328,246)"/>
<path d="M0 0 C-3.83948559 1.9492773 -7.73024443 3.78954048 -11.625 5.625 C-12.305625 5.94984375 -12.98625 6.2746875 -13.6875 6.609375 C-18.77008929 9 -18.77008929 9 -21 9 C-20.67 8.01 -20.34 7.02 -20 6 C-18.02 5.67 -16.04 5.34 -14 5 C-14 4.34 -14 3.68 -14 3 C-8.99067246 -0.00559652 -5.67276511 -0.29341888 0 0 Z " fill="#187093" transform="translate(224,201)"/>
<path d="M0 0 C4.54722114 -0.1263117 4.54722114 -0.1263117 6.8203125 0.5078125 C10.3726973 1.30996391 13.91753907 0.96120848 17.5390625 0.83984375 C20 1 20 1 22 3 C14.74 3 7.48 3 0 3 C0 2.01 0 1.02 0 0 Z " fill="#1C3575" transform="translate(156,385)"/>
<path d="M0 0 C0.66 0.33 1.32 0.66 2 1 C1.11267606 8.47887324 1.11267606 8.47887324 0.5 11.3125 C-0.11958432 14.6427657 -0.34141566 17.93306795 -0.5625 21.3125 C-0.64628906 22.56675781 -0.73007813 23.82101562 -0.81640625 25.11328125 C-0.87699219 26.06589844 -0.93757812 27.01851563 -1 28 C-1.33 28 -1.66 28 -2 28 C-2.05834353 24.77090994 -2.09371115 21.54195662 -2.125 18.3125 C-2.15013672 16.94448242 -2.15013672 16.94448242 -2.17578125 15.54882812 C-2.2099359 10.85256356 -2.0890884 7.30154816 0 3 C0 2.01 0 1.02 0 0 Z " fill="#22DD9E" transform="translate(179,263)"/>
<path d="M0 0 C2 2 2 2 2 4 C2.31043992 5.38034893 2.64646577 6.75505487 3 8.125 C3.185625 8.84945313 3.37125 9.57390625 3.5625 10.3203125 C3.706875 10.87460937 3.85125 11.42890625 4 12 C3.01 12.33 2.02 12.66 1 13 C-1.32845886 9.36178302 -1.23553948 6.23971058 -1 2 C-0.67 1.34 -0.34 0.68 0 0 Z " fill="#18D590" transform="translate(164,301)"/>
<path d="M0 0 C2.97 0.495 2.97 0.495 6 1 C6 1.66 6 2.32 6 3 C8.97 3.495 8.97 3.495 12 4 C11.34 5.32 10.68 6.64 10 8 C2.42857143 4 2.42857143 4 0 0 Z " fill="#1BA58D" transform="translate(186,350)"/>
<path d="M0 0 C2.66666667 0 5.33333333 0 8 0 C7.67 0.99 7.34 1.98 7 3 C2.05 3 -2.9 3 -8 3 C-8 2.34 -8 1.68 -8 1 C-6.865625 1.020625 -5.73125 1.04125 -4.5625 1.0625 C-1.18424326 1.41577477 -1.18424326 1.41577477 0 0 Z " fill="#01707B" transform="translate(328,284)"/>
<path d="M0 0 C4.74908547 2.80627778 7.19372222 5.25091453 10 10 C7.03 9.505 7.03 9.505 4 9 C4.33 8.01 4.66 7.02 5 6 C3.35 5.67 1.7 5.34 0 5 C0 3.33333333 0 1.66666667 0 0 Z " fill="#80BCE0" transform="translate(285,111)"/>
<path d="M0 0 C4.875 4.625 4.875 4.625 6 8 C6.66 8 7.32 8 8 8 C8.66 10.64 9.32 13.28 10 16 C7.26096728 14.63048364 6.51391488 12.5230738 5.0859375 9.9140625 C4.05591588 8.09855676 2.94011735 6.40093136 1.75 4.6875 C0 2 0 2 0 0 Z " fill="#124481" transform="translate(318,228)"/>
<path d="M0 0 C4.73166914 2.18384729 9.66173992 4.91990435 13 9 C13 9.66 13 10.32 13 11 C9.83884224 9.63016497 9.0072908 9.0109362 7 6 C4.69855891 4.92863949 2.3659787 3.92010283 0 3 C0 2.01 0 1.02 0 0 Z " fill="#1983A7" transform="translate(296,212)"/>
<path d="M0 0 C1.15518918 0.90484792 2.29885406 1.8244206 3.4375 2.75 C4.07558594 3.26046875 4.71367187 3.7709375 5.37109375 4.296875 C7.18810554 6.19667629 7.60423197 7.43586908 8 10 C4.12539202 8.74337038 2.0139745 7.60395437 0 4 C0 2.68 0 1.36 0 0 Z " fill="#6CAEDA" transform="translate(295,121)"/>
<path d="M0 0 C2 1.1875 2 1.1875 4 3 C4.25 5.6875 4.25 5.6875 4 8 C2.68 8 1.36 8 0 8 C-0.38063221 5.6739143 -0.71269945 3.33944736 -1 1 C-0.67 0.67 -0.34 0.34 0 0 Z " fill="#20397A" transform="translate(146,370)"/>
<path d="M0 0 C0.66 0.33 1.32 0.66 2 1 C1.525625 1.598125 1.05125 2.19625 0.5625 2.8125 C-1.16465744 5.00382924 -1.16465744 5.00382924 -2 8 C-2.66 8 -3.32 8 -4 8 C-4.66 9.32 -5.32 10.64 -6 12 C-6.66 11.67 -7.32 11.34 -8 11 C-7.23832543 9.53686228 -6.46529293 8.07963339 -5.6875 6.625 C-5.25824219 5.81289062 -4.82898438 5.00078125 -4.38671875 4.1640625 C-3 2 -3 2 0 0 Z " fill="#25F89F" transform="translate(187,224)"/>
<path d="M0 0 C0.99 0.33 1.98 0.66 3 1 C1.02 1.99 1.02 1.99 -1 3 C-1 3.66 -1 4.32 -1 5 C-2.875 7.125 -2.875 7.125 -5 9 C-5.66 9 -6.32 9 -7 9 C-7.33 9.66 -7.66 10.32 -8 11 C-8 9.35 -8 7.7 -8 6 C-7.01 6 -6.02 6 -5 6 C-4.67 5.01 -4.34 4.02 -4 3 C-1.9375 2.3125 -1.9375 2.3125 0 2 C0 1.34 0 0.68 0 0 Z " fill="#196F94" transform="translate(189,218)"/>
<path d="M0 0 C0 0.33 0 0.66 0 1 C-1.65 1.33 -3.3 1.66 -5 2 C-4.67 2.66 -4.34 3.32 -4 4 C-4.99 4 -5.98 4 -7 4 C-7 3.34 -7 2.68 -7 2 C-7.66 2 -8.32 2 -9 2 C-9 2.66 -9 3.32 -9 4 C-11.31 4 -13.62 4 -16 4 C-10.4459427 0.29729514 -6.54495663 -0.22186294 0 0 Z " fill="#29FAA0" transform="translate(230,203)"/>
<path d="M0 0 C0.99 0 1.98 0 3 0 C2.125 4.75 2.125 4.75 1 7 C0.34 7 -0.32 7 -1 7 C-1 7.66 -1 8.32 -1 9 C-1.66 8.67 -2.32 8.34 -3 8 C-2.45276317 4.62537285 -1.9451 2.91765 0 0 Z " fill="#6C759B" transform="translate(352,376)"/>
<path d="M0 0 C0.66 0.33 1.32 0.66 2 1 C0.89932004 1.81721717 -0.20569731 2.62859451 -1.3125 3.4375 C-1.92738281 3.88996094 -2.54226563 4.34242188 -3.17578125 4.80859375 C-5 6 -5 6 -8 7 C-8.33 7.66 -8.66 8.32 -9 9 C-9.99 8.67 -10.98 8.34 -12 8 C-8.71268307 4.16479692 -4.74852829 1.67534656 0 0 Z " fill="#0E967E" transform="translate(286,346)"/>
<path d="M0 0 C3.11364609 2.80228148 4.59219741 5.07826421 6 9 C6.99 10.485 6.99 10.485 8 12 C7.67 12.99 7.34 13.98 7 15 C6.0115904 13.44333045 5.03464918 11.87937574 4.0625 10.3125 C3.51722656 9.44238281 2.97195312 8.57226562 2.41015625 7.67578125 C1.02832828 5.05375311 0.41519827 2.91689925 0 0 Z " fill="#23B49A" transform="translate(167,321)"/>
<path d="M0 0 C0.66 0.33 1.32 0.66 2 1 C1.67 2.32 1.34 3.64 1 5 C0.34 5 -0.32 5 -1 5 C-1 5.66 -1 6.32 -1 7 C-0.34 7.33 0.32 7.66 1 8 C0.34 8 -0.32 8 -1 8 C-1.33 8.99 -1.66 9.98 -2 11 C-2.99 11.33 -3.98 11.66 -5 12 C-4.67 10.35 -4.34 8.7 -4 7 C-3.34 7 -2.68 7 -2 7 C-1.855625 6.21625 -1.71125 5.4325 -1.5625 4.625 C-1 2 -1 2 0 0 Z " fill="#122A6D" transform="translate(333,320)"/>
<path d="M0 0 C3.69418201 1.231394 5.35109746 3.20791354 8 6 C7.67 6.66 7.34 7.32 7 8 C4 8 4 8 1.8125 6.8125 C0 5 0 5 -0.25 2.3125 C-0.1675 1.549375 -0.085 0.78625 0 0 Z " fill="#2A94E0" transform="translate(296,128)"/>
<path d="M0 0 C0.33 0.66 0.66 1.32 1 2 C1.66 2 2.32 2 3 2 C3 3.65 3 5.3 3 7 C1.68 7 0.36 7 -1 7 C-1 1 -1 1 0 0 Z M2 0 C2.99 0.33 3.98 0.66 5 1 C4.01 1 3.02 1 2 1 C2 0.67 2 0.34 2 0 Z " fill="#152260" transform="translate(347,377)"/>
<path d="M0 0 C1.1484375 1.734375 1.1484375 1.734375 2 4 C1.1015625 6.140625 1.1015625 6.140625 -0.375 8.25 C-0.85710937 8.95640625 -1.33921875 9.6628125 -1.8359375 10.390625 C-2.22007812 10.92171875 -2.60421875 11.4528125 -3 12 C-4 10 -4 10 -3.22265625 7.6171875 C-2.83980469 6.71226562 -2.45695313 5.80734375 -2.0625 4.875 C-1.68222656 3.96492187 -1.30195313 3.05484375 -0.91015625 2.1171875 C-0.60980469 1.41851562 -0.30945313 0.71984375 0 0 Z " fill="#2FD5A9" transform="translate(168,248)"/>
<path d="M0 0 C0.99 0.33 1.98 0.66 3 1 C2.02471263 2.33617352 1.04466681 3.6688751 0.0625 5 C-0.48277344 5.7425 -1.02804688 6.485 -1.58984375 7.25 C-2.28787109 8.11625 -2.28787109 8.11625 -3 9 C-3.33 9 -3.66 9 -4 9 C-4 7.35 -4 5.7 -4 4 C-2.68 3.34 -1.36 2.68 0 2 C0 1.34 0 0.68 0 0 Z " fill="#186B93" transform="translate(177,230)"/>
<path d="M0 0 C2.64 0 5.28 0 8 0 C8 0.66 8 1.32 8 2 C9.32 2.33 10.64 2.66 12 3 C8.69564916 4.12377697 6.9493138 3.89554742 3.75 2.5625 C3.04359375 2.27503906 2.3371875 1.98757812 1.609375 1.69140625 C1.07828125 1.46324219 0.5471875 1.23507813 0 1 C0 0.67 0 0.34 0 0 Z " fill="#155A93" transform="translate(272,200)"/>
<path d="M0 0 C0.99 0.33 1.98 0.66 3 1 C1.37660195 2.70884005 -0.29319053 4.37446717 -2 6 C-2.66 6 -3.32 6 -4 6 C-4 6.66 -4 7.32 -4 8 C-4.99 8.33 -5.98 8.66 -7 9 C-6.67 7.68 -6.34 6.36 -6 5 C-5.34 5 -4.68 5 -4 5 C-4 4.34 -4 3.68 -4 3 C-2.1875 1.3125 -2.1875 1.3125 0 0 Z " fill="#A9C4E0" transform="translate(153,112)"/>
<path d="M0 0 C0.66 0.33 1.32 0.66 2 1 C2.25 3.75 2.25 3.75 2 7 C0 9.375 0 9.375 -2 11 C-2 7.07103605 -0.99700137 3.80106772 0 0 Z " fill="#15A086" transform="translate(333,305)"/>
<path d="M0 0 C0.66 0.66 1.32 1.32 2 2 C1.64644564 4.26274788 1.02455574 5.95088852 0 8 C-1.32 6.02 -2.64 4.04 -4 2 C-2.68 1.34 -1.36 0.68 0 0 Z " fill="#1DB493" transform="translate(180,336)"/>
<path d="M0 0 C2.475 0.99 2.475 0.99 5 2 C5 2.99 5 3.98 5 5 C2.525 4.01 2.525 4.01 0 3 C0 2.01 0 1.02 0 0 Z " fill="#68789F" transform="translate(151,383)"/>
<path d="M0 0 C0.66 0 1.32 0 2 0 C2.33 1.65 2.66 3.3 3 5 C2.01 5 1.02 5 0 5 C-0.66 4.01 -1.32 3.02 -2 2 C-1.34 1.34 -0.68 0.68 0 0 Z " fill="#2654A2" transform="translate(162,248)"/>
<path d="M0 0 C0 0.99 0 1.98 0 3 C-0.99 3 -1.98 3 -3 3 C-3.33 3.99 -3.66 4.98 -4 6 C-4.33 6 -4.66 6 -5 6 C-5 4.35 -5 2.7 -5 1 C-3 0 -3 0 0 0 Z " fill="#2757A7" transform="translate(197,210)"/>
<path d="M0 0 C2.86724686 0.57344937 3.8614515 0.8614515 6 3 C5.01 4.485 5.01 4.485 4 6 C3.34 6 2.68 6 2 6 C1.34 4.02 0.68 2.04 0 0 Z " fill="#182F73" transform="translate(208,369)"/>
<path d="M0 0 C0.99 0.33 1.98 0.66 3 1 C2.1875 3.4375 2.1875 3.4375 1 6 C0.01 6.33 -0.98 6.66 -2 7 C-1.34 4.69 -0.68 2.38 0 0 Z " fill="#182C71" transform="translate(339,299)"/>
<path d="M0 0 C0.99 0.33 1.98 0.66 3 1 C2.34 2.65 1.68 4.3 1 6 C0.01 5.67 -0.98 5.34 -2 5 C-2.33 4.01 -2.66 3.02 -3 2 C-2.01 2 -1.02 2 0 2 C0 1.34 0 0.68 0 0 Z " fill="#29F8A0" transform="translate(207,209)"/>
<path d="M0 0 C5.75 2.625 5.75 2.625 8 6 C4.65750371 5.40312566 2.53563658 4.26396123 0 2 C0 1.34 0 0.68 0 0 Z " fill="#338ECB" transform="translate(299,129)"/>
</svg>
