<?xml version="1.0" encoding="UTF-8"?>
<svg version="1.1" xmlns="http://www.w3.org/2000/svg" width="500" height="500">
<path d="M0 0 C0.6739682 -0.01044342 1.3479364 -0.02088684 2.04232788 -0.03164673 C15.31686305 -0.19194042 27.61118507 2.05760356 39.375 8.4375 C40.03822266 8.78377441 40.70144531 9.13004883 41.38476562 9.48681641 C46.0449097 11.94633689 50.63350127 14.45133423 54.9375 17.5 C54.9375 18.16 54.9375 18.82 54.9375 19.5 C56.5875 20.16 58.2375 20.82 59.9375 21.5 C59.9375 22.16 59.9375 22.82 59.9375 23.5 C60.78248047 23.84611328 60.78248047 23.84611328 61.64453125 24.19921875 C64.5379941 25.84065509 66.39214341 27.85082174 68.625 30.3125 C69.41261719 31.16457031 70.20023438 32.01664063 71.01171875 32.89453125 C72.98277347 35.56125234 73.59238669 37.24189639 73.9375 40.5 C72.6175 41.16 71.2975 41.82 69.9375 42.5 C69.9375 43.16 69.9375 43.82 69.9375 44.5 C68.20358049 46.10634015 66.399409 47.6375287 64.5625 49.125 C63.06589844 50.35089844 63.06589844 50.35089844 61.5390625 51.6015625 C58.9375 53.5 58.9375 53.5 56.9375 53.5 C56.9375 54.16 56.9375 54.82 56.9375 55.5 C56.2775 55.5 55.6175 55.5 54.9375 55.5 C54.9375 56.16 54.9375 56.82 54.9375 57.5 C49.46130952 62.5 49.46130952 62.5 46.9375 62.5 C46.9375 63.16 46.9375 63.82 46.9375 64.5 C46.2775 64.5 45.6175 64.5 44.9375 64.5 C44.9375 65.16 44.9375 65.82 44.9375 66.5 C42.4625 66.995 42.4625 66.995 39.9375 67.5 C39.5971875 66.943125 39.256875 66.38625 38.90625 65.8125 C34.28218922 58.53206387 28.85887145 51.34102259 20.9375 47.5 C17.86923173 46.99917115 14.82356755 46.93708057 11.71875 46.890625 C10.82442261 46.87352478 9.93009521 46.85642456 9.00866699 46.83880615 C7.11591149 46.81051735 5.22300959 46.79087837 3.33007812 46.77929688 C0.47252956 46.75035479 -2.37836298 46.65737099 -5.234375 46.5625 C-15.82266102 46.37686242 -22.97746299 47.20772357 -31.38867188 53.87402344 C-32.27103516 54.7405957 -33.15339844 55.60716797 -34.0625 56.5 C-34.60569885 56.96688736 -35.14889771 57.43377472 -35.70855713 57.91481018 C-39.41170933 61.47558877 -40.47847873 64.27393995 -40.83886719 69.40014648 C-40.87828204 71.72347132 -40.88317791 74.04755652 -40.859375 76.37109375 C-40.86511536 77.60739029 -40.87085571 78.84368683 -40.87677002 80.1174469 C-40.88084337 82.72553342 -40.86983879 85.33368159 -40.84472656 87.94165039 C-40.81262917 91.92148337 -40.84443017 95.8972467 -40.8828125 99.87695312 C-40.87884695 102.41667559 -40.87115818 104.95639553 -40.859375 107.49609375 C-40.87152039 108.67964951 -40.88366577 109.86320526 -40.8961792 111.08262634 C-40.76812053 118.65244162 -39.48851452 123.12739353 -34.0625 128.5 C-31.81156665 130.63758186 -29.56842667 132.66520704 -27.0625 134.5 C-26.39250977 135.01191895 -25.72251953 135.52383789 -25.03222656 136.05126953 C-20.9040962 138.06510754 -17.27707463 137.98631804 -12.73828125 138.00390625 C-11.83683884 138.01389145 -10.93539642 138.02387665 -10.00663757 138.03416443 C-8.10123264 138.04932418 -6.19574838 138.05639088 -4.2902832 138.0559082 C-1.40113839 138.0624409 1.48451406 138.11686141 4.37304688 138.17382812 C18.25040078 138.39118344 18.25040078 138.39118344 29.9375 131.5 C32.52304505 129.00205159 32.52304505 129.00205159 34.3125 126.375 C36.67567104 123.14700892 39.04181955 120.26811744 41.9375 117.5 C48.383455 122.63899955 54.61005575 127.92055361 60.64086914 133.53662109 C64.16130835 136.81325294 67.77408581 139.9391409 71.51171875 142.96484375 C73.20934589 144.79269982 73.6440749 146.03821316 73.9375 148.5 C73.6075 149.16 73.2775 149.82 72.9375 150.5 C72.2775 150.5 71.6175 150.5 70.9375 150.5 C70.69644531 151.0671875 70.45539063 151.634375 70.20703125 152.21875 C66.89014095 158.17894673 60.48957081 163.63037489 54.9375 167.5 C54.2775 167.5 53.6175 167.5 52.9375 167.5 C52.9375 168.16 52.9375 168.82 52.9375 169.5 C37.26703372 178.0976298 22.99279451 184.4626233 4.9375 185.5 C3.60138672 185.58121094 3.60138672 185.58121094 2.23828125 185.6640625 C-22.77215893 186.43146792 -45.64127055 177.36996803 -64.0625 160.5 C-70.50268513 154.14224924 -75.45669594 147.26475867 -80.0625 139.5 C-80.45179688 138.89671875 -80.84109375 138.2934375 -81.2421875 137.671875 C-93.01256313 118.87577128 -92.8664373 92.44573068 -89.0625 71.5 C-88.87945312 70.41976562 -88.69640625 69.33953125 -88.5078125 68.2265625 C-86.78290897 59.43168401 -83.35018554 52.3020214 -79.0625 44.5 C-78.64226562 43.73042969 -78.22203125 42.96085937 -77.7890625 42.16796875 C-76.31402369 39.53397088 -74.73757305 37.01260958 -73.0625 34.5 C-72.4025 34.5 -71.7425 34.5 -71.0625 34.5 C-70.65451172 33.61828125 -70.65451172 33.61828125 -70.23828125 32.71875 C-67.42515085 27.41025144 -62.9701225 22.90807118 -58.0625 19.5 C-57.4025 19.5 -56.7425 19.5 -56.0625 19.5 C-56.0625 18.84 -56.0625 18.18 -56.0625 17.5 C-48.71618584 12.20925228 -40.5358332 7.67467551 -32.0625 4.5 C-30.51949219 3.91025391 -30.51949219 3.91025391 -28.9453125 3.30859375 C-19.41861107 0.31716781 -9.90586164 0.07388488 0 0 Z " fill="#26C079" transform="translate(259.0625,157.5)"/>
<path d="M0 0 C15.51 0 31.02 0 47 0 C47.1875 13.6875 47.1875 13.6875 47.20776367 17.97924805 C47.23588135 19.10371338 47.26399902 20.22817871 47.29296875 21.38671875 C47.3086792 22.53358154 47.32438965 23.68044434 47.34057617 24.86206055 C48.19014653 28.9048328 49.90426486 30.3551142 53 33 C53.7528125 33.70382812 54.505625 34.40765625 55.28125 35.1328125 C56.0134375 35.79023438 56.745625 36.44765625 57.5 37.125 C58.2321875 37.78757812 58.964375 38.45015625 59.71875 39.1328125 C65.33573583 43.73027693 69.22612127 44.47640052 76.32421875 44.50390625 C77.22566116 44.51389145 78.12710358 44.52387665 79.05586243 44.53416443 C80.96126736 44.54932418 82.86675162 44.55639088 84.7722168 44.5559082 C87.66136161 44.5624409 90.54701406 44.61686141 93.43554688 44.67382812 C107.31290078 44.89118344 107.31290078 44.89118344 119 38 C121.58554505 35.50205159 121.58554505 35.50205159 123.375 32.875 C125.73817104 29.64700892 128.10431955 26.76811744 131 24 C137.445955 29.13899955 143.67255575 34.42055361 149.70336914 40.03662109 C153.22380835 43.31325294 156.83658581 46.4391409 160.57421875 49.46484375 C162.27184589 51.29269982 162.7065749 52.53821316 163 55 C162.67 55.66 162.34 56.32 162 57 C161.34 57 160.68 57 160 57 C159.75894531 57.5671875 159.51789063 58.134375 159.26953125 58.71875 C155.95264095 64.67894673 149.55207081 70.13037489 144 74 C143.34 74 142.68 74 142 74 C142 74.66 142 75.32 142 76 C126.32953372 84.5976298 112.05529451 90.9626233 94 92 C92.66388672 92.08121094 92.66388672 92.08121094 91.30078125 92.1640625 C66.29034107 92.93146792 43.42122945 83.86996803 25 67 C18.55981487 60.64224924 13.60580406 53.76475867 9 46 C8.61070312 45.39671875 8.22140625 44.7934375 7.8203125 44.171875 C-0.71768394 30.53755511 0 15.52322065 0 0 Z " fill="#0F3357" transform="translate(170,251)"/>
<path d="M0 0 C0 26.07 0 52.14 0 79 C-15.51 79 -31.02 79 -47 79 C-47 56.49178083 -44.4459761 40.46066391 -31 22 C-30.34 22 -29.68 22 -29 22 C-28.72800781 21.4121875 -28.45601562 20.824375 -28.17578125 20.21875 C-25.36265085 14.91025144 -20.9076225 10.40807118 -16 7 C-15.34 7 -14.68 7 -14 7 C-14 6.34 -14 5.68 -14 5 C-12.421924 4.15675328 -10.8372958 3.32576082 -9.25 2.5 C-8.36828125 2.0359375 -7.4865625 1.571875 -6.578125 1.09375 C-4 0 -4 0 0 0 Z " fill="#0E3155" transform="translate(217,170)"/>
<path d="M0 0 C0.99 0 1.98 0 3 0 C3.18433594 0.52464844 3.36867187 1.04929688 3.55859375 1.58984375 C5.79233051 7.55640283 8.51683338 13.22137649 11.4375 18.875 C11.99425415 19.98089478 11.99425415 19.98089478 12.56225586 21.10913086 C15.177651 26.08424675 17.84453635 29.42226818 23 32 C22.8203125 34.29296875 22.8203125 34.29296875 22 37 C19.7421875 38.73828125 19.7421875 38.73828125 16.875 40.3125 C11.48918575 43.27395188 7.13375168 46.6611209 4 52 C3.0618703 56.58086886 3.18164683 61.02781049 3.31640625 65.6875 C3.32631088 66.98574707 3.33621552 68.28399414 3.34642029 69.62158203 C3.37295972 73.04853237 3.44154781 76.47335646 3.51934814 79.8994751 C3.59137056 83.40534712 3.62301399 86.91156783 3.65820312 90.41796875 C3.73294198 97.27951116 3.85217577 104.1396531 4 111 C3.01 110.505 3.01 110.505 2 110 C2 100.76 2 91.52 2 82 C-13.51 82 -29.02 82 -45 82 C-44.67 88.6 -44.34 95.2 -44 102 C-51.10537279 91.34194081 -47.06359251 71.95778161 -45 60 C-44.67 60 -44.34 60 -44 60 C-44.33 66.6 -44.66 73.2 -45 80 C-29.49 80 -13.98 80 2 80 C2 53.93 2 27.86 2 1 C1.34 0.67 0.68 0.34 0 0 Z " fill="#2BA670" transform="translate(215,169)"/>
<path d="M0 0 C0.81700882 0.00141495 1.63401764 0.0028299 2.4757843 0.00428772 C5.08415393 0.00988331 7.69243759 0.02243496 10.30078125 0.03515625 C12.06966022 0.04017182 13.83854053 0.04473463 15.60742188 0.04882812 C19.94274144 0.05985129 24.27799677 0.07711287 28.61328125 0.09765625 C29.10828125 1.08765625 29.10828125 1.08765625 29.61328125 2.09765625 C27.96328125 2.42765625 26.31328125 2.75765625 24.61328125 3.09765625 C24.61328125 4.41765625 24.61328125 5.73765625 24.61328125 7.09765625 C23.61328125 9.34765625 23.61328125 9.34765625 22.61328125 11.09765625 C21.95328125 11.09765625 21.29328125 11.09765625 20.61328125 11.09765625 C20.61328125 11.75765625 20.61328125 12.41765625 20.61328125 13.09765625 C15.13709077 18.09765625 15.13709077 18.09765625 12.61328125 18.09765625 C12.61328125 18.75765625 12.61328125 19.41765625 12.61328125 20.09765625 C11.95328125 20.09765625 11.29328125 20.09765625 10.61328125 20.09765625 C10.61328125 20.75765625 10.61328125 21.41765625 10.61328125 22.09765625 C8.96328125 22.42765625 7.31328125 22.75765625 5.61328125 23.09765625 C5.27296875 22.54078125 4.93265625 21.98390625 4.58203125 21.41015625 C1.29430342 16.23373371 -2.20943725 12.04730059 -6.75 7.921875 C-8.53736366 5.92975369 -8.83512404 4.65902178 -9.38671875 2.09765625 C-10.04671875 1.76765625 -10.70671875 1.43765625 -11.38671875 1.09765625 C-7.56516495 -0.17619502 -3.97987405 -0.02587563 0 0 Z " fill="#1A8E5E" transform="translate(293.38671875,201.90234375)"/>
<path d="M0 0 C0.66 0.33 1.32 0.66 2 1 C1.1850708 1.71172363 0.3701416 2.42344727 -0.46948242 3.15673828 C-4.58751422 8.14123194 -3.61394937 14.35845514 -3.48828125 20.4921875 C-3.47766914 22.44380295 -3.47766914 22.44380295 -3.46684265 24.43484497 C-3.44783956 27.87777573 -3.39880036 31.31963558 -3.34332275 34.762146 C-3.29198333 38.28138749 -3.26929755 41.80080369 -3.24414062 45.3203125 C-3.19067219 52.21397891 -3.10544311 59.1069379 -3 66 C-3.99 65.505 -3.99 65.505 -5 65 C-5 55.76 -5 46.52 -5 37 C-20.51 37 -36.02 37 -52 37 C-51.67 43.6 -51.34 50.2 -51 57 C-58.10537279 46.34194081 -54.06359251 26.95778161 -52 15 C-51.67 15 -51.34 15 -51 15 C-51.33 21.6 -51.66 28.2 -52 35 C-36.49 35 -20.98 35 -5 35 C-5.19721206 25.72557176 -5.19721206 25.72557176 -5.45043945 16.45263672 C-5.56516617 5.7719494 -5.56516617 5.7719494 -2.48046875 2.0703125 C-1.66191406 1.38710937 -0.84335938 0.70390625 0 0 Z " fill="#B3C7D9" transform="translate(222,214)"/>
<path d="M0 0 C0.66 0.33 1.32 0.66 2 1 C-2.75 5 -2.75 5 -5 5 C-5.33 6.32 -5.66 7.64 -6 9 C-13.88539638 10.12776384 -21.72124759 10.15284701 -29.66821289 10.13037109 C-31.95660858 10.12495477 -34.24481297 10.13037228 -36.53320312 10.13671875 C-37.98958377 10.13605891 -39.44596429 10.1347797 -40.90234375 10.1328125 C-42.21710693 10.13168457 -43.53187012 10.13055664 -44.88647461 10.12939453 C-48 10 -48 10 -50 9 C-50 8.01 -50 7.02 -50 6 C-48.76958984 5.99589111 -47.53917969 5.99178223 -46.27148438 5.98754883 C-41.67894375 5.96567337 -37.08724966 5.91129673 -32.49511719 5.84741211 C-30.51277824 5.82430529 -28.5303178 5.80985366 -26.54785156 5.80444336 C-23.68738738 5.79510013 -20.82881482 5.75399319 -17.96875 5.70703125 C-16.65263733 5.71293022 -16.65263733 5.71293022 -15.30993652 5.71894836 C-9.60763766 5.58564459 -6.1850575 4.39402487 -1.59484863 0.97123718 C-0.80539856 0.49047478 -0.80539856 0.49047478 0 0 Z " fill="#5A728A" transform="translate(287,290)"/>
<path d="M0 0 C3.98145181 2.16135955 7.1359398 4.46204328 10 8 C9.8125 10.8125 9.8125 10.8125 9 13 C8.34 13 7.68 13 7 13 C6.75894531 13.5671875 6.51789063 14.134375 6.26953125 14.71875 C2.95264095 20.67894673 -3.44792919 26.13037489 -9 30 C-9.66 30 -10.32 30 -11 30 C-11 30.66 -11 31.32 -11 32 C-13.7269181 33.46256659 -16.4569188 34.91928541 -19.1875 36.375 C-20.34088867 36.99375 -20.34088867 36.99375 -21.51757812 37.625 C-32.30084503 43.36373432 -32.30084503 43.36373432 -37 42 C-34.37690901 40.82887054 -31.75171858 39.66294036 -29.125 38.5 C-28.37863281 38.16613281 -27.63226563 37.83226562 -26.86328125 37.48828125 C-26.14785156 37.17246094 -25.43242187 36.85664063 -24.6953125 36.53125 C-24.03547363 36.23798828 -23.37563477 35.94472656 -22.69580078 35.64257812 C-21 35 -21 35 -19 35 C-19 33.68 -19 32.36 -19 31 C-17.68 30.67 -16.36 30.34 -15 30 C-15 29.34 -15 28.68 -15 28 C-13.35 28 -11.7 28 -10 28 C-9.34 26.02 -8.68 24.04 -8 22 C-7.01 22.66 -6.02 23.32 -5 24 C0.85279737 19.2058263 0.85279737 19.2058263 3.5 12.5 C3.335 11.675 3.17 10.85 3 10 C3.99 10 4.98 10 6 10 C4.70721467 6.01391188 3.39841019 4.37888713 0 2 C0 1.34 0 0.68 0 0 Z " fill="#8DA0B1" transform="translate(323,295)"/>
<path d="M0 0 C13.53 0 27.06 0 41 0 C41.495 1.485 41.495 1.485 42 3 C28.14 3 14.28 3 0 3 C0 2.01 0 1.02 0 0 Z " fill="#89D7B7" transform="translate(238,201)"/>
<path d="M0 0 C0.515625 0.268125 1.03125 0.53625 1.5625 0.8125 C4.17196625 2.12476577 4.17196625 2.12476577 7.6875 3.4375 C8.780625 3.953125 9.87375 4.46875 11 5 C11.33 5.99 11.66 6.98 12 8 C12.66 8.33 13.32 8.66 14 9 C14 9.99 14 10.98 14 12 C16.64 11.67 19.28 11.34 22 11 C22 10.01 22 9.02 22 8 C23.32 8 24.64 8 26 8 C26 6.02 26 4.04 26 2 C26.99 1.67 27.98 1.34 29 1 C29.66 2.65 30.32 4.3 31 6 C30.34 6 29.68 6 29 6 C29 6.66 29 7.32 29 8 C23.52380952 13 23.52380952 13 21 13 C21 13.66 21 14.32 21 15 C20.34 15 19.68 15 19 15 C19 15.66 19 16.32 19 17 C17.35 17.33 15.7 17.66 14 18 C13.6596875 17.443125 13.319375 16.88625 12.96875 16.3125 C9.64584369 11.08069006 6.04642387 6.78538882 1.5390625 2.53125 C1.03117187 2.0259375 0.52328125 1.520625 0 1 C0 0.67 0 0.34 0 0 Z " fill="#71B69B" transform="translate(285,207)"/>
<path d="M0 0 C2.12716553 -0.00429634 4.25211893 -0.04038671 6.37890625 -0.07861328 C19.32540124 -0.18778081 31.14943511 2.25317402 42.67578125 8.43310547 C43.34609375 8.77148438 44.01640625 9.10986328 44.70703125 9.45849609 C47.86124206 11.08922308 50.63053877 12.6214531 52.92578125 15.37060547 C50.57679215 14.45710971 48.28420421 13.56487674 46.06640625 12.36279297 C43.67672713 11.25516798 41.51838608 10.81324532 38.92578125 10.37060547 C35.56655916 9.79707975 32.91192578 9.02957465 29.92578125 7.37060547 C29.92578125 6.71060547 29.92578125 6.05060547 29.92578125 5.37060547 C26.95578125 5.04060547 23.98578125 4.71060547 20.92578125 4.37060547 C20.92578125 3.71060547 20.92578125 3.05060547 20.92578125 2.37060547 C8.71578125 2.37060547 -3.49421875 2.37060547 -16.07421875 2.37060547 C-11.24471247 -0.84906538 -5.65049495 -0.00127263 0 0 Z " fill="#A5E7CA" transform="translate(256.07421875,157.62939453125)"/>
<path d="M0 0 C0 0.99 0 1.98 0 3 C-1.7491497 3.33776684 -3.49936145 3.67003671 -5.25 4 C-6.71179688 4.2784375 -6.71179688 4.2784375 -8.203125 4.5625 C-11 5 -11 5 -15 5 C-15 5.66 -15 6.32 -15 7 C-15.80824219 7.26554688 -16.61648437 7.53109375 -17.44921875 7.8046875 C-18.51785156 8.15789062 -19.58648437 8.51109375 -20.6875 8.875 C-22.27111328 9.39707031 -22.27111328 9.39707031 -23.88671875 9.9296875 C-26.63149994 10.87331366 -29.31692815 11.89491289 -32 13 C-25.17276784 4.62112417 -10.50202518 -0.41945959 0 0 Z " fill="#A1D9C5" transform="translate(240,160)"/>
<path d="M0 0 C3.98145181 2.16135955 7.1359398 4.46204328 10 8 C9.8125 10.8125 9.8125 10.8125 9 13 C8.34 13 7.68 13 7 13 C6.76539063 13.56203125 6.53078125 14.1240625 6.2890625 14.703125 C4.69337 17.54635891 2.71075457 19.48098127 0.375 21.75 C-0.44226563 22.54921875 -1.25953125 23.3484375 -2.1015625 24.171875 C-2.72804688 24.77515625 -3.35453125 25.3784375 -4 26 C-4.66 25.67 -5.32 25.34 -6 25 C-5.02546875 24.12988281 -5.02546875 24.12988281 -4.03125 23.2421875 C-3.1959375 22.46101563 -2.360625 21.67984375 -1.5 20.875 C-0.6646875 20.10929687 0.170625 19.34359375 1.03125 18.5546875 C3.41653192 15.45950024 3.39804797 13.8146264 3 10 C3.99 10 4.98 10 6 10 C4.70721467 6.01391188 3.39841019 4.37888713 0 2 C0 1.34 0 0.68 0 0 Z " fill="#96A8B8" transform="translate(323,295)"/>
<path d="M0 0 C4.8 3.32307692 4.8 3.32307692 5.8125 6.75 C5.874375 7.4925 5.93625 8.235 6 9 C4.02 9.99 4.02 9.99 2 11 C2 11.66 2 12.32 2 13 C0.21895282 14.60178593 -1.62537278 16.13381926 -3.5 17.625 C-4.5209375 18.44226563 -5.541875 19.25953125 -6.59375 20.1015625 C-7.3878125 20.72804687 -8.181875 21.35453125 -9 22 C-9.66 21.67 -10.32 21.34 -11 21 C-10.01 19.68 -9.02 18.36 -8 17 C-8.66 16.67 -9.32 16.34 -10 16 C-8.72942818 15.52014033 -7.45853152 15.0411407 -6.1875 14.5625 C-5.47980469 14.29566406 -4.77210938 14.02882812 -4.04296875 13.75390625 C-2.37327604 13.13774814 -0.68842296 12.56280765 1 12 C1.08159574 7.83861737 0.98248524 4.0527516 0 0 Z " fill="#9FE2C7" transform="translate(327,189)"/>
<path d="M0 0 C0.99 0 1.98 0 3 0 C3.33 15.18 3.66 30.36 4 46 C4.66 46.33 5.32 46.66 6 47 C4.68 48.32 3.36 49.64 2 51 C2 34.5 2 18 2 1 C1.34 0.67 0.68 0.34 0 0 Z " fill="#2A8C75" transform="translate(215,169)"/>
<path d="M0 0 C3.98175544 2.10148204 6.35039045 4.36905358 9 8 C6.08366224 6.69267618 4.24135944 5.24135944 2 3 C1.34 3 0.68 3 0 3 C-0.09796875 3.62648438 -0.1959375 4.25296875 -0.296875 4.8984375 C-0.44640625 5.71570313 -0.5959375 6.53296875 -0.75 7.375 C-0.88921875 8.18710937 -1.0284375 8.99921875 -1.171875 9.8359375 C-2 12 -2 12 -3.90625 13.25 C-6.2498292 14.08949106 -8.54660831 14.59110138 -11 15 C-10.62488281 14.50371094 -10.24976563 14.00742187 -9.86328125 13.49609375 C-6.50836081 9.04258476 -3.22288764 4.54995902 0 0 Z " fill="#889CAD" transform="translate(300,275)"/>
<path d="M0 0 C1.45823212 -0.0270043 2.91660675 -0.04639787 4.375 -0.0625 C5.18710938 -0.07410156 5.99921875 -0.08570313 6.8359375 -0.09765625 C9 0 9 0 11 1 C11 1.66 11 2.32 11 3 C11.99 3 12.98 3 14 3 C14 4.32 14 5.64 14 7 C10.2397015 6.41892368 7.46964968 5.34800504 4.1875 3.4375 C3.39730469 2.98246094 2.60710937 2.52742188 1.79296875 2.05859375 C1.20128906 1.70925781 0.60960937 1.35992187 0 1 C0 0.67 0 0.34 0 0 Z " fill="#6E8497" transform="translate(211,329)"/>
<path d="M0 0 C2 1 2 1 3 2 C2.75512635 5.10173292 2.41345882 6.58654118 0.1875 8.8125 C-2 10 -2 10 -6 10 C-6.99 10.495 -6.99 10.495 -8 11 C-6.63629701 8.00779732 -5.05091917 5.70973471 -2.875 3.25 C-2.33617187 2.63640625 -1.79734375 2.0228125 -1.2421875 1.390625 C-0.62730469 0.70226562 -0.62730469 0.70226562 0 0 Z " fill="#617A92" transform="translate(196,181)"/>
<path d="M0 0 C0.66 0.33 1.32 0.66 2 1 C1.67 1.99 1.34 2.98 1 4 C-1.5625 5.1875 -1.5625 5.1875 -4 6 C-4 5.34 -4 4.68 -4 4 C-6.53744315 4.54708727 -6.53744315 4.54708727 -9 6 C-9.89830839 9.05272465 -9.89830839 9.05272465 -10 12 C-11.65 11.67 -13.3 11.34 -15 11 C-13.625 9 -13.625 9 -12 7 C-11.34 7 -10.68 7 -10 7 C-10 6.34 -10 5.68 -10 5 C-8.38007835 4.13624104 -6.75388139 3.28424146 -5.125 2.4375 C-4.22007812 1.96183594 -3.31515625 1.48617187 -2.3828125 0.99609375 C-1.20332031 0.50302734 -1.20332031 0.50302734 0 0 Z " fill="#546E82" transform="translate(213,170)"/>
<path d="M0 0 C1.19625 0.165 2.3925 0.33 3.625 0.5 C7.10548715 0.93970567 10.48771488 1.08780713 14 1 C14 1.66 14 2.32 14 3 C17.3 3 20.6 3 24 3 C24 3.66 24 4.32 24 5 C21.31106733 4.91228454 18.62514692 4.80532075 15.9375 4.6875 C14.80924805 4.65366211 14.80924805 4.65366211 13.65820312 4.61914062 C8.45164616 4.37120934 4.67532163 3.31592957 0 1 C0 0.67 0 0.34 0 0 Z " fill="#647C91" transform="translate(226,336)"/>
<path d="M0 0 C1.5 1.375 1.5 1.375 3 3 C3 3.66 3 4.32 3 5 C2.34 5 1.68 5 1 5 C1 5.66 1 6.32 1 7 C-0.95927063 8.7143618 -2.95880212 10.38405168 -5 12 C-5.66 11.67 -6.32 11.34 -7 11 C-6.67 9.68 -6.34 8.36 -6 7 C-4.68 7 -3.36 7 -2 7 C-2 5.02 -2 3.04 -2 1 C-1.34 0.67 -0.68 0.34 0 0 Z " fill="#78BEA1" transform="translate(313,208)"/>
<path d="M0 0 C0.969375 0.86625 1.93875 1.7325 2.9375 2.625 C7.03550142 6.15196844 11.45085539 9.09102317 16 12 C14 13 14 13 10.5625 12.375 C6.4438865 10.7853597 5.91264505 9.8252901 4 6 C3.278125 5.278125 2.55625 4.55625 1.8125 3.8125 C1.214375 3.214375 0.61625 2.61625 0 2 C0 1.34 0 0.68 0 0 Z " fill="#ADBECA" transform="translate(221,283)"/>
<path d="M0 0 C1.0828125 0.495 1.0828125 0.495 2.1875 1 C5.01697427 2.00603529 7.02895466 2.16977402 10 2 C10 2.66 10 3.32 10 4 C9.34 4 8.68 4 8 4 C8 4.66 8 5.32 8 6 C6.35 6.33 4.7 6.66 3 7 C0 2.25 0 2.25 0 0 Z " fill="#9CD0BB" transform="translate(296,218)"/>
<path d="M0 0 C2.475 0.99 2.475 0.99 5 2 C5 2.66 5 3.32 5 4 C5.5775 4.2475 6.155 4.495 6.75 4.75 C9.3002997 6.16683317 11.01785701 7.87627537 13 10 C12.67 10.66 12.34 11.32 12 12 C11.2575 11.21625 10.515 10.4325 9.75 9.625 C7.45566682 7.43495469 5.87841142 6.17268614 3 5 C3 4.34 3 3.68 3 3 C2.01 3 1.02 3 0 3 C0 2.01 0 1.02 0 0 Z " fill="#B2EAD2" transform="translate(314,177)"/>
<path d="M0 0 C1.98 0 3.96 0 6 0 C5.01 0.495 5.01 0.495 4 1 C3.67 1.99 3.34 2.98 3 4 C2.67 3.67 2.34 3.34 2 3 C1.67 6.3 1.34 9.6 1 13 C0.67 13 0.34 13 0 13 C0 8.71 0 4.42 0 0 Z " fill="#193752" transform="translate(170,251)"/>
<path d="M0 0 C0.66 0.33 1.32 0.66 2 1 C1.01 2.485 1.01 2.485 0 4 C-0.70164642 5.98799818 -1.37372872 7.98698517 -2 10 C-2.99 10 -3.98 10 -5 10 C-4.38545304 6.00544473 -2.29353263 3.25533664 0 0 Z " fill="#94A4B6" transform="translate(186,192)"/>
<path d="M0 0 C1 2 1 2 0.25 5.5625 C-0.1625 6.696875 -0.575 7.83125 -1 9 C-1.99 9.33 -2.98 9.66 -4 10 C-4.33 10.66 -4.66 11.32 -5 12 C-4.35550393 8.98782888 -3.34977818 6.48344164 -1.9375 3.75 C-1.57527344 3.04359375 -1.21304688 2.3371875 -0.83984375 1.609375 C-0.56269531 1.07828125 -0.28554687 0.5471875 0 0 Z " fill="#9AABBC" transform="translate(180,202)"/>
<path d="M0 0 C0 0.99 0 1.98 0 3 C-2.64 3 -5.28 3 -8 3 C-8 2.34 -8 1.68 -8 1 C-5.29120665 -0.35439668 -2.99066732 -0.06501451 0 0 Z " fill="#7DD4AC" transform="translate(240,160)"/>
<path d="M0 0 C1.2065625 0.0309375 1.2065625 0.0309375 2.4375 0.0625 C0.625 3.0625 0.625 3.0625 -1.5625 6.0625 C-2.5525 6.0625 -3.5425 6.0625 -4.5625 6.0625 C-3.5725 4.7425 -2.5825 3.4225 -1.5625 2.0625 C-2.2225 1.7325 -2.8825 1.4025 -3.5625 1.0625 C-2.5625 0.0625 -2.5625 0.0625 0 0 Z " fill="#6BB398" transform="translate(320.5625,203.9375)"/>
<path d="M0 0 C0 0.66 0 1.32 0 2 C-3.63 2.66 -7.26 3.32 -11 4 C-10 2 -10 2 -7.75 0.875 C-4.98386705 -0.00513321 -2.87951649 -0.1645438 0 0 Z " fill="#A6E4C9" transform="translate(232,162)"/>
<path d="M0 0 C0.99 0 1.98 0 3 0 C2.67 1.65 2.34 3.3 2 5 C0.35 4.67 -1.3 4.34 -3 4 C-1.6875 2 -1.6875 2 0 0 Z " fill="#5F758A" transform="translate(201,177)"/>
<path d="M0 0 C1.98 0.99 1.98 0.99 4 2 C4 3.65 4 5.3 4 7 C3.34 7 2.68 7 2 7 C1.34 4.69 0.68 2.38 0 0 Z " fill="#576D83" transform="translate(217,279)"/>
</svg>
