<?xml version="1.0" encoding="UTF-8"?>
<svg version="1.1" xmlns="http://www.w3.org/2000/svg" width="500" height="500">
<path d="M0 0 C51.11768173 -0.04030303 51.11768173 -0.04030303 72.46679688 -0.04882812 C87.23332057 -0.05477185 101.99983858 -0.06177556 116.76635742 -0.07543945 C127.51863454 -0.08538414 138.27090706 -0.09185291 149.02318865 -0.09408849 C154.72023211 -0.09539597 160.41726242 -0.09848413 166.11430168 -0.10573006 C171.469872 -0.11248688 176.82542367 -0.11461765 182.18099785 -0.11310768 C184.15273642 -0.11338416 186.12447558 -0.11539128 188.09621048 -0.11920547 C190.77586922 -0.12413745 193.45545639 -0.12300013 196.13511658 -0.12025452 C196.92595719 -0.12316736 197.7167978 -0.1260802 198.53160328 -0.12908131 C203.88587879 -0.11412121 203.88587879 -0.11412121 205 1 C205.09425595 3.14743549 205.11742648 5.29801026 205.11352539 7.44750977 C205.11364593 8.13157111 205.11376646 8.81563246 205.11389065 9.52042294 C205.11314171 11.74411663 205.10551441 13.96772746 205.09765625 16.19140625 C205.09618677 17.56050577 205.0951661 18.92960586 205.09460449 20.29870605 C205.08935232 25.38664591 205.07539122 30.47457376 205.0625 35.5625 C205.041875 46.926875 205.02125 58.29125 205 70 C159.79 70 114.58 70 68 70 C68.495 73.465 68.495 73.465 69 77 C69.08257421 78.78284167 69.12621002 80.56799996 69.12698364 82.35275269 C69.13121338 83.86694542 69.13121338 83.86694542 69.13552856 85.41172791 C69.13249222 87.04072777 69.13249222 87.04072777 69.12939453 88.70263672 C69.13202301 90.4427729 69.13202301 90.4427729 69.13470459 92.21806335 C69.13909329 96.03862011 69.13619676 99.85913031 69.1328125 103.6796875 C69.13348612 106.33529722 69.13445506 108.99090553 69.13571167 111.64651489 C69.13752691 117.20282494 69.13514241 122.75912166 69.13037109 128.31542969 C69.12491363 134.74518008 69.12670445 141.17489883 69.1321975 147.60464847 C69.13672788 153.12832914 69.13738003 158.65200026 69.13475883 164.17568219 C69.13319771 167.47376498 69.13338932 170.77182955 69.13629532 174.06991196 C69.13881927 177.73787366 69.13498566 181.40577341 69.12939453 185.07373047 C69.13141876 186.17187576 69.13344299 187.27002106 69.13552856 188.40144348 C69.13270874 189.39398636 69.12988892 190.38652924 69.12698364 191.40914917 C69.1264181 192.71044927 69.1264181 192.71044927 69.12584114 194.03803825 C69 196 69 196 68 197 C45.56 197 23.12 197 0 197 C0 131.99 0 66.98 0 0 Z " fill="#244966" transform="translate(132,134)"/>
<path d="M0 0 C54.78 0 109.56 0 166 0 C166.917543 3.67017199 167.12569906 6.41472799 167.12698364 10.16213989 C167.12980347 11.42687134 167.13262329 12.69160278 167.13552856 13.99465942 C167.13358434 15.39373794 167.13153618 16.79281631 167.12939453 18.19189453 C167.13074972 19.66705366 167.13253031 21.14221245 167.13470459 22.61737061 C167.13926414 26.621281 167.13749563 30.62516563 167.1343255 34.62907648 C167.13179524 38.81618475 167.13414122 43.00329081 167.13571167 47.19039917 C167.13753101 54.21987301 167.1351328 61.24933635 167.13037109 68.27880859 C167.1249247 76.41315397 167.12669482 84.54747431 167.1321975 92.68181908 C167.13673028 99.6610686 167.13737849 106.64031056 167.13475883 113.61956108 C167.13319752 117.7901824 167.13299842 121.96079193 167.13629532 126.13141251 C167.13917657 130.04986753 167.13719365 133.96829013 167.13140106 137.88674164 C167.13007501 139.32753063 167.13046497 140.76832234 167.13266373 142.20911026 C167.13538114 144.170015 167.13137522 146.13092569 167.12698364 148.09182739 C167.1264181 149.74049647 167.1264181 149.74049647 167.12584114 151.422472 C167 154 167 154 166 156 C162.57331368 157.27652867 159.12236129 157.12581223 155.50291443 157.12698364 C154.8523286 157.12854363 154.20174277 157.13010362 153.53144222 157.13171089 C151.35353929 157.13569648 149.17570618 157.13254071 146.99780273 157.12939453 C145.43559732 157.13074964 143.87339223 157.13253019 142.31118774 157.13470459 C138.06961495 157.13926549 133.82806647 157.13749496 129.58649325 157.1343255 C125.15027726 157.13179544 120.71406336 157.13414121 116.27784729 157.13571167 C108.82886379 157.13753128 101.3798902 157.13513231 93.9309082 157.13037109 C85.31375155 157.12492688 76.69661855 157.12669313 68.07946247 157.1321975 C60.68491425 157.13673218 53.29037317 157.13737749 45.89582402 157.13475883 C41.47757235 157.13319827 37.05933181 157.1329963 32.64108086 157.13629532 C28.48870229 157.13917923 24.33635429 157.13718872 20.18397903 157.13140106 C18.65814451 157.13007635 17.13230743 157.1304627 15.60647392 157.13266373 C13.52764826 157.13538649 11.44892126 157.13198027 9.37010193 157.12698364 C7.6232619 157.1264181 7.6232619 157.1264181 5.84113216 157.12584114 C3 157 3 157 0 156 C0 104.52 0 53.04 0 0 Z M25 32 C25 62.69 25 93.38 25 125 C61.96 125 98.92 125 137 125 C137.020625 110.76875 137.04125 96.5375 137.0625 81.875 C137.071604 77.3876123 137.08070801 72.90022461 137.09008789 68.27685547 C137.09343309 64.24134865 137.09343309 64.24134865 137.09544373 60.20584106 C137.09697555 58.41360221 137.10048483 56.62136436 137.10557556 54.82913208 C137.1129144 52.10856343 137.11390534 49.38805756 137.11352539 46.66748047 C137.11892255 45.47729215 137.11892255 45.47729215 137.12442875 44.26305962 C137.11659746 40.06307529 136.82970696 36.13802958 136 32 C126.06925329 30.93752763 116.22192942 30.85308129 106.25 30.8671875 C104.54386379 30.86651151 102.83772768 30.86553904 101.1315918 30.86428833 C97.56802446 30.86282205 94.00448235 30.86492912 90.44091797 30.86962891 C85.93453937 30.87529057 81.42822083 30.87206302 76.92184448 30.86605644 C73.39877901 30.86239175 69.87572708 30.86361666 66.35266113 30.86618423 C64.69453931 30.86683913 63.03641615 30.86607709 61.3782959 30.86370468 C60.59442505 30.86282978 59.8105542 30.86195488 59.00292969 30.86105347 C58.3255072 30.85983427 57.64808472 30.85861507 56.95013428 30.85735893 C46.22584971 30.91161945 35.76317123 31.46184144 25 32 Z " fill="#47C09D" transform="translate(206,209)"/>
<path d="M0 0 C51.11768173 -0.04030303 51.11768173 -0.04030303 72.46679688 -0.04882812 C87.23332057 -0.05477185 101.99983858 -0.06177556 116.76635742 -0.07543945 C127.51863454 -0.08538414 138.27090706 -0.09185291 149.02318865 -0.09408849 C154.72023211 -0.09539597 160.41726242 -0.09848413 166.11430168 -0.10573006 C171.469872 -0.11248688 176.82542367 -0.11461765 182.18099785 -0.11310768 C184.15273642 -0.11338416 186.12447558 -0.11539128 188.09621048 -0.11920547 C190.77586922 -0.12413745 193.45545639 -0.12300013 196.13511658 -0.12025452 C196.92595719 -0.12316736 197.7167978 -0.1260802 198.53160328 -0.12908131 C203.88587879 -0.11412121 203.88587879 -0.11412121 205 1 C205.09425595 3.14743549 205.11742648 5.29801026 205.11352539 7.44750977 C205.11364593 8.13157111 205.11376646 8.81563246 205.11389065 9.52042294 C205.11314171 11.74411663 205.10551441 13.96772746 205.09765625 16.19140625 C205.09618677 17.56050577 205.0951661 18.92960586 205.09460449 20.29870605 C205.08935232 25.38664591 205.07539122 30.47457376 205.0625 35.5625 C205.041875 46.926875 205.02125 58.29125 205 70 C159.79 70 114.58 70 68 70 C68.495 73.465 68.495 73.465 69 77 C69.08257421 78.78284167 69.12621002 80.56799996 69.12698364 82.35275269 C69.13121338 83.86694542 69.13121338 83.86694542 69.13552856 85.41172791 C69.13249222 87.04072777 69.13249222 87.04072777 69.12939453 88.70263672 C69.13202301 90.4427729 69.13202301 90.4427729 69.13470459 92.21806335 C69.13909329 96.03862011 69.13619676 99.85913031 69.1328125 103.6796875 C69.13348612 106.33529722 69.13445506 108.99090553 69.13571167 111.64651489 C69.13752691 117.20282494 69.13514241 122.75912166 69.13037109 128.31542969 C69.12491363 134.74518008 69.12670445 141.17489883 69.1321975 147.60464847 C69.13672788 153.12832914 69.13738003 158.65200026 69.13475883 164.17568219 C69.13319771 167.47376498 69.13338932 170.77182955 69.13629532 174.06991196 C69.13881927 177.73787366 69.13498566 181.40577341 69.12939453 185.07373047 C69.13141876 186.17187576 69.13344299 187.27002106 69.13552856 188.40144348 C69.13270874 189.39398636 69.12988892 190.38652924 69.12698364 191.40914917 C69.1264181 192.71044927 69.1264181 192.71044927 69.12584114 194.03803825 C69 196 69 196 68 197 C45.56 197 23.12 197 0 197 C0 131.99 0 66.98 0 0 Z M1 2 C1 65.69 1 129.38 1 195 C22.78 195 44.56 195 67 195 C67 153.42 67 111.84 67 69 C112.21 69 157.42 69 204 69 C204 46.89 204 24.78 204 2 C137.01 2 70.02 2 1 2 Z " fill="#E0E8EE" transform="translate(132,134)"/>
<path d="M0 0 C0.33 0 0.66 0 1 0 C1 63.69 1 127.38 1 193 C22.78 193 44.56 193 67 193 C67 151.42 67 109.84 67 67 C68.91676121 70.83352242 69.24968884 72.08586851 69.24723816 76.1438446 C69.25143265 77.18283905 69.25562714 78.2218335 69.25994873 79.29231262 C69.25432922 80.42650131 69.24870972 81.56069 69.24291992 82.72924805 C69.24481827 83.92791504 69.24671661 85.12658203 69.24867249 86.36157227 C69.25174156 89.64441729 69.24587475 92.92709626 69.23571944 96.20992255 C69.22693285 99.64343087 69.22869647 103.076935 69.2290802 106.51045227 C69.22814416 112.27302327 69.21946626 118.03554155 69.20581055 123.7980957 C69.1900633 130.46806591 69.18481324 137.13797848 69.1855461 143.80796593 C69.1861555 150.21948212 69.18105957 156.63097947 69.17275429 163.04249001 C69.16921663 165.77413899 69.16739036 168.50578131 69.16686058 171.23743248 C69.16470492 175.04463008 69.15597822 178.8517537 69.14526367 182.65893555 C69.14571686 183.79919693 69.14617004 184.93945831 69.14663696 186.11427307 C69.14237198 187.14480804 69.13810699 188.17534302 69.13371277 189.23710632 C69.13203692 190.13803355 69.13036108 191.03896078 69.12863445 191.96718884 C69 194 69 194 68 195 C45.56 195 23.12 195 0 195 C0 130.65 0 66.3 0 0 Z " fill="#B5C3CF" transform="translate(132,136)"/>
<path d="M0 0 C0.99 0.495 0.99 0.495 2 1 C2.02312143 13.499571 2.04091406 25.99913695 2.05181217 38.49872494 C2.05704144 44.30213613 2.06413987 50.10553275 2.07543945 55.90893555 C2.08626678 61.50450853 2.0922765 67.10006745 2.09487724 72.6956501 C2.09673177 74.83558944 2.10035291 76.97552796 2.10573006 79.11546135 C2.11293844 82.10164966 2.11399103 85.08777907 2.11352539 88.07397461 C2.11712067 88.96805023 2.12071594 89.86212585 2.12442017 90.78329468 C2.11405216 96.88594784 2.11405216 96.88594784 1 98 C-0.85993164 98.09537374 -2.72356566 98.11883815 -4.5859375 98.11523438 C-5.80418213 98.11463013 -7.02242676 98.11402588 -8.27758789 98.11340332 C-9.64339316 98.10711363 -11.0091972 98.10055314 -12.375 98.09375 C-13.80525669 98.08994717 -15.23551389 98.08633038 -16.66577148 98.08288574 C-34.84787595 98.02507094 -53.02892559 97.77555892 -71.20935059 97.53643799 C-75.94423553 97.47461378 -80.67915027 97.4151596 -85.4140625 97.35546875 C-94.60940453 97.23921664 -103.80471234 97.12047074 -113 97 C-113 96.67 -113 96.34 -113 96 C-75.38 96 -37.76 96 1 96 C0.30339867 67.77339277 0.30339867 67.77339277 -0.40649414 39.54711914 C-0.53796387 34.06530762 -0.53796387 34.06530762 -0.59812927 31.49217224 C-0.64094154 29.71001274 -0.68613284 27.92790935 -0.73326111 26.14585876 C-0.80452032 23.4333629 -0.86802722 20.72078008 -0.92993164 18.00805664 C-0.95226647 17.22539208 -0.97460131 16.44272753 -0.99761295 15.63634586 C-1.10760794 10.33554757 -0.67389712 5.26018954 0 0 Z " fill="#6DC2A8" transform="translate(343,239)"/>
<path d="M0 0 C1.32 0.33 2.64 0.66 4 1 C3.34 1.66 2.68 2.32 2 3 C1.79477042 5.50762753 1.71487214 7.90618065 1.7215271 10.41567993 C1.7157347 11.18918018 1.7099423 11.96268042 1.70397437 12.75962007 C1.68689672 15.36534168 1.68409124 17.97088701 1.68115234 20.57666016 C1.67185951 22.43900491 1.66169182 24.30134547 1.65071106 26.16368103 C1.62332423 31.23157388 1.60823602 36.2994388 1.59528303 41.36738634 C1.57969035 46.65921274 1.55288791 51.95098178 1.5272522 57.24276733 C1.48039579 67.26893957 1.44368496 77.29512251 1.41057932 87.32134855 C1.37240632 98.73354691 1.3229836 110.14568777 1.27259517 121.55783772 C1.16917329 145.0385159 1.07994634 168.519231 1 192 C0.67 192 0.34 192 0 192 C0 128.64 0 65.28 0 0 Z " fill="#2B475D" transform="translate(133,137)"/>
</svg>
