<?xml version="1.0" encoding="UTF-8"?>
<svg version="1.1" xmlns="http://www.w3.org/2000/svg" width="500" height="500">
<path d="M0 0 C1.06176234 -0.00382555 2.12352469 -0.00765109 3.21746165 -0.01159257 C6.78105666 -0.02192481 10.34449062 -0.01792994 13.90809631 -0.01396179 C16.46064402 -0.01830812 19.01319041 -0.023491 21.56573486 -0.02944946 C27.78280713 -0.04146557 33.99981985 -0.04398988 40.21690147 -0.0416492 C45.2701304 -0.03986621 50.32334621 -0.04161528 55.37657356 -0.04587364 C56.45534977 -0.04676643 56.45534977 -0.04676643 57.55591943 -0.04767724 C59.01693737 -0.04888899 60.47795531 -0.05010313 61.93897326 -0.05131962 C75.6403209 -0.06219599 89.34164393 -0.06003216 103.04299296 -0.05393478 C115.57724751 -0.04876507 128.11142437 -0.06002228 140.64566355 -0.07903299 C153.51669942 -0.09840486 166.38769852 -0.10666857 179.25874907 -0.10290974 C186.4845263 -0.10099676 193.71023739 -0.10349469 200.93600273 -0.11762428 C207.72970682 -0.1307746 214.52322999 -0.12828695 221.31694221 -0.11521339 C223.812278 -0.11284156 226.30762466 -0.1156039 228.802948 -0.12383652 C232.20548429 -0.13425399 235.60749274 -0.12624306 239.01000977 -0.11352539 C240.49614813 -0.12458682 240.49614813 -0.12458682 242.01230949 -0.13587171 C247.28794455 -0.09430015 251.01914597 0.2805465 255.5684967 3.26069641 C258.45607105 6.30869155 260.500148 9.18154681 261.5684967 13.26069641 C261.35631818 18.98951652 259.55742338 22.53626392 256.5684967 27.26069641 C255.9084967 27.26069641 255.2484967 27.26069641 254.5684967 27.26069641 C254.5684967 27.92069641 254.5684967 28.58069641 254.5684967 29.26069641 C252.8888092 30.76850891 252.8888092 30.76850891 250.6934967 32.38569641 C249.97419983 32.92452454 249.25490295 33.46335266 248.5138092 34.01850891 C246.5684967 35.26069641 246.5684967 35.26069641 244.5684967 35.26069641 C244.5684967 35.92069641 244.5684967 36.58069641 244.5684967 37.26069641 C242.48646545 39.17085266 242.48646545 39.17085266 239.7559967 41.32319641 C238.41601624 42.39247375 238.41601624 42.39247375 237.04896545 43.48335266 C234.5684967 45.26069641 234.5684967 45.26069641 231.5684967 46.26069641 C231.5684967 46.92069641 231.5684967 47.58069641 231.5684967 48.26069641 C229.48646545 50.17085266 229.48646545 50.17085266 226.7559967 52.32319641 C225.86267639 53.03604797 224.96935608 53.74889954 224.04896545 54.48335266 C221.5684967 56.26069641 221.5684967 56.26069641 218.5684967 57.26069641 C218.5684967 57.92069641 218.5684967 58.58069641 218.5684967 59.26069641 C217.3619342 59.66288391 217.3619342 59.66288391 216.1309967 60.07319641 C215.2853717 60.46507141 214.4397467 60.85694641 213.5684967 61.26069641 C213.2384967 62.25069641 212.9084967 63.24069641 212.5684967 64.26069641 C208.11135385 68.26069641 208.11135385 68.26069641 205.5684967 68.26069641 C205.5684967 68.92069641 205.5684967 69.58069641 205.5684967 70.26069641 C203.8731842 71.78413391 203.8731842 71.78413391 201.4434967 73.63569641 C197.06706544 77.04646533 192.82609121 80.56983586 188.6309967 84.19819641 C183.45591779 88.66336966 178.22781802 93.04410698 172.91615295 97.34663391 C170.91767405 98.97600939 168.95817417 100.63914934 167.0059967 102.32319641 C164.5684967 104.26069641 164.5684967 104.26069641 162.5684967 104.26069641 C162.5684967 104.92069641 162.5684967 105.58069641 162.5684967 106.26069641 C148.8367523 116.50902036 131.9253603 123.567127 114.5684967 122.26069641 C101.13478132 120.16552979 90.77538163 115.83140403 79.5684967 108.26069641 C78.0834967 107.27069641 78.0834967 107.27069641 76.5684967 106.26069641 C76.5684967 105.60069641 76.5684967 104.94069641 76.5684967 104.26069641 C76.04771545 104.03382141 75.5269342 103.80694641 74.9903717 103.57319641 C71.69165136 101.7855028 68.78392249 99.54179317 65.8184967 97.26069641 C65.21650452 96.80952454 64.61451233 96.35835266 63.99427795 95.89350891 C62.47943314 94.73247139 61.0187985 93.50141702 59.5684967 92.26069641 C59.5684967 91.60069641 59.5684967 90.94069641 59.5684967 90.26069641 C59.00646545 90.00288391 58.4444342 89.74507141 57.8653717 89.47944641 C55.30145092 88.11899865 53.11623305 86.5328068 50.8184967 84.76069641 C50.01927795 84.15225891 49.2200592 83.54382141 48.3966217 82.91694641 C47.79334045 82.37038391 47.1900592 81.82382141 46.5684967 81.26069641 C46.5684967 80.60069641 46.5684967 79.94069641 46.5684967 79.26069641 C46.00646545 79.00288391 45.4444342 78.74507141 44.8653717 78.47944641 C42.30145092 77.11899865 40.11623305 75.5328068 37.8184967 73.76069641 C37.01927795 73.15225891 36.2200592 72.54382141 35.3966217 71.91694641 C34.79334045 71.37038391 34.1900592 70.82382141 33.5684967 70.26069641 C33.5684967 69.60069641 33.5684967 68.94069641 33.5684967 68.26069641 C32.9909967 67.99257141 32.4134967 67.72444641 31.8184967 67.44819641 C29.51299628 66.23140452 27.54793478 64.95735762 25.5684967 63.26069641 C25.5684967 62.60069641 25.5684967 61.94069641 25.5684967 61.26069641 C23.9184967 60.60069641 22.2684967 59.94069641 20.5684967 59.26069641 C20.5684967 58.60069641 20.5684967 57.94069641 20.5684967 57.26069641 C20.00646545 57.00288391 19.4444342 56.74507141 18.8653717 56.47944641 C16.30145092 55.11899865 14.11623305 53.5328068 11.8184967 51.76069641 C11.01927795 51.15225891 10.2200592 50.54382141 9.3966217 49.91694641 C8.79334045 49.37038391 8.1900592 48.82382141 7.5684967 48.26069641 C7.5684967 47.60069641 7.5684967 46.94069641 7.5684967 46.26069641 C7.00646545 46.00288391 6.4444342 45.74507141 5.8653717 45.47944641 C3.30145092 44.11899865 1.11623305 42.5328068 -1.1815033 40.76069641 C-1.98072205 40.15225891 -2.7799408 39.54382141 -3.6033783 38.91694641 C-4.20665955 38.37038391 -4.8099408 37.82382141 -5.4315033 37.26069641 C-5.4315033 36.60069641 -5.4315033 35.94069641 -5.4315033 35.26069641 C-6.1533783 35.01319641 -6.8752533 34.76569641 -7.6190033 34.51069641 C-10.70756911 33.13800049 -12.94161747 31.53716345 -15.4315033 29.26069641 C-15.4315033 28.60069641 -15.4315033 27.94069641 -15.4315033 27.26069641 C-16.4215033 26.93069641 -17.4115033 26.60069641 -18.4315033 26.26069641 C-21.1121746 22.20487554 -22.44988343 18.36350422 -22.3690033 13.51069641 C-21.06172877 8.97881137 -19.13880133 5.25505251 -15.4315033 2.26069641 C-10.51418734 -0.42733522 -5.4477112 -0.02073402 0 0 Z " fill="#1DA57A" transform="translate(130.43150329589844,155.7393035888672)"/>
<path d="M0 0 C1.76065252 0.85463317 3.48948536 1.77683947 5.1875 2.75 C6.15816406 3.28882813 7.12882812 3.82765625 8.12890625 4.3828125 C9.87294752 5.36517044 11.61157118 6.35734543 13.33984375 7.3671875 C27.72634301 15.28591017 45.1896749 17.28566397 61 13 C70.33411641 9.74534099 78.83013618 4.96788478 87.375 0.0625 C90.6048811 -1.24483283 91.7587887 -1.26486295 95 0 C97.48166364 1.49003654 99.87155797 3.03103777 102 5 C102 5.66 102 6.32 102 7 C102.61875 7.309375 103.2375 7.61875 103.875 7.9375 C105.25 8.625 106.625 9.3125 108 10 C108 10.66 108 11.32 108 12 C109.65 12.66 111.3 13.32 113 14 C113 14.66 113 15.32 113 16 C113.66 16 114.32 16 115 16 C115 16.66 115 17.32 115 18 C115.515625 18.226875 116.03125 18.45375 116.5625 18.6875 C119.89547005 20.48217618 123.14703671 22.49965015 126 25 C126 25.66 126 26.32 126 27 C126.52464844 27.21527344 127.04929687 27.43054688 127.58984375 27.65234375 C130.94539851 29.5286264 133.69070229 32.03505192 136.5625 34.5625 C137.81689615 35.6519775 139.07211356 36.74051009 140.328125 37.828125 C140.94880859 38.36630859 141.56949219 38.90449219 142.20898438 39.45898438 C148.74919699 45.08627745 155.4859693 50.45457971 162.41796875 55.58984375 C162.94003906 56.05519531 163.46210938 56.52054687 164 57 C164 57.66 164 58.32 164 59 C164.639375 59.309375 165.27875 59.61875 165.9375 59.9375 C168 61 168 61 169 62 C169.09823937 63.66429051 169.12973631 65.33281931 169.125 67 C169.12757813 67.9075 169.13015625 68.815 169.1328125 69.75 C169 72 169 72 168 73 C164.82133262 73.10476144 161.66418673 73.14331149 158.4848938 73.14044189 C157.47343509 73.14341302 156.46197637 73.14638414 155.4198674 73.1494453 C152.00272242 73.15817393 148.5856123 73.15964404 145.16845703 73.16113281 C142.72985763 73.16575802 140.29125895 73.17078227 137.85266113 73.17617798 C131.20810138 73.18933209 124.56355539 73.19578899 117.91898584 73.20018864 C113.7729228 73.20294789 109.62686209 73.20718466 105.48080063 73.21169281 C94.00978555 73.22388803 82.53877235 73.2341868 71.06775093 73.2375679 C70.33307315 73.23778747 69.59839536 73.23800703 68.84145462 73.23823325 C67.73674568 73.23856067 67.73674568 73.23856067 66.6097194 73.2388947 C65.11725434 73.23933817 63.62478928 73.23978474 62.13232422 73.24023438 C61.02184417 73.24056652 61.02184417 73.24056652 59.88893019 73.24090537 C47.88911931 73.24485462 35.88936912 73.26231134 23.8895817 73.2855939 C11.58030804 73.30928487 -0.72893514 73.32176872 -13.03823197 73.32293582 C-19.95378364 73.32385386 -26.86925627 73.32963848 -33.78478622 73.34775543 C-40.28702792 73.36472917 -46.78914571 73.36642594 -53.29141235 73.35761642 C-55.6831922 73.35684228 -58.07497991 73.36123795 -60.46673965 73.37107468 C-63.72165091 73.38368034 -66.97602001 73.37797956 -70.23092651 73.36749268 C-71.18646105 73.37554908 -72.14199558 73.38360548 -73.12648571 73.39190602 C-73.99572425 73.38531618 -74.8649628 73.37872633 -75.76054192 73.3719368 C-76.51222582 73.37253389 -77.26390972 73.37313097 -78.03837192 73.37374616 C-80.56934652 72.89152323 -81.4503744 72.02708423 -83 70 C-83.5 67.125 -83.5 67.125 -83 64 C-80.625 61.125 -80.625 61.125 -78 59 C-77.34 59 -76.68 59 -76 59 C-76 58.34 -76 57.68 -76 57 C-74.26953125 55.44140625 -74.26953125 55.44140625 -71.8125 53.5625 C-67.64747986 50.31519616 -63.57947489 46.98888394 -59.5625 43.5625 C-55.32449621 39.96471597 -51.08505412 36.36923354 -46.8125 32.8125 C-45.93207031 32.07644531 -45.05164063 31.34039062 -44.14453125 30.58203125 C-42 29 -42 29 -40 29 C-40 28.34 -40 27.68 -40 27 C-39.34 27 -38.68 27 -38 27 C-38 26.34 -38 25.68 -38 25 C-36.1015625 23.2734375 -36.1015625 23.2734375 -33.625 21.375 C-32.81289062 20.74335938 -32.00078125 20.11171875 -31.1640625 19.4609375 C-29 18 -29 18 -27 18 C-27 17.34 -27 16.68 -27 16 C-26.34 16 -25.68 16 -25 16 C-25 15.34 -25 14.68 -25 14 C-23.35 13.34 -21.7 12.68 -20 12 C-20 11.34 -20 10.68 -20 10 C-16.53846154 7 -16.53846154 7 -14 7 C-14 6.34 -14 5.68 -14 5 C-13.34 5 -12.68 5 -12 5 C-12 4.34 -12 3.68 -12 3 C-4.99599366 -1.5320041 -4.99599366 -1.5320041 0 0 Z " fill="#14425F" transform="translate(206,271)"/>
<path d="M0 0 C2.48809542 1.51474838 4.55624721 3.39933113 6.6875 5.375 C11.16301937 9.41133988 11.16301937 9.41133988 16 13 C16 13.66 16 14.32 16 15 C16.515625 15.226875 17.03125 15.45375 17.5625 15.6875 C20.89547005 17.48217618 24.14703671 19.49965015 27 22 C27 22.66 27 23.32 27 24 C27.56203125 24.2578125 28.1240625 24.515625 28.703125 24.78125 C31.26704579 26.14169777 33.45226365 27.72788962 35.75 29.5 C36.54921875 30.1084375 37.3484375 30.716875 38.171875 31.34375 C38.77515625 31.8903125 39.3784375 32.436875 40 33 C40 33.66 40 34.32 40 35 C40.56203125 35.2578125 41.1240625 35.515625 41.703125 35.78125 C44.26704579 37.14169777 46.45226365 38.72788962 48.75 40.5 C49.54921875 41.1084375 50.3484375 41.716875 51.171875 42.34375 C51.77515625 42.8903125 52.3784375 43.436875 53 44 C53 44.66 53 45.32 53 46 C53.55171875 46.24363281 54.1034375 46.48726562 54.671875 46.73828125 C59.59884668 49.40843536 63.73041634 53.40177157 68 57 C68.80050781 57.67417969 69.60101563 58.34835938 70.42578125 59.04296875 C73.4170379 61.60768423 75.79886183 63.69829274 78 67 C77.91744845 71.4577836 77.43626089 73.4742497 74.5625 76.9375 C72 79 72 79 70 79 C70 79.66 70 80.32 70 81 C66.53846154 84 66.53846154 84 64 84 C64 84.66 64 85.32 64 86 C59.52941176 90 59.52941176 90 57 90 C57 90.66 57 91.32 57 92 C55.1015625 93.7265625 55.1015625 93.7265625 52.625 95.625 C51.81289062 96.25664062 51.00078125 96.88828125 50.1640625 97.5390625 C48 99 48 99 46 99 C46 99.66 46 100.32 46 101 C45.34 101 44.68 101 44 101 C44 101.66 44 102.32 44 103 C43.34 103 42.68 103 42 103 C42 103.66 42 104.32 42 105 C40.34151823 106.01351664 38.67334039 107.01120795 37 108 C36.278125 108.721875 35.55625 109.44375 34.8125 110.1875 C34.214375 110.785625 33.61625 111.38375 33 112 C32.34 112 31.68 112 31 112 C31 112.66 31 113.32 31 114 C29.26608049 115.60634015 27.461909 117.1375287 25.625 118.625 C24.62726563 119.44226563 23.62953125 120.25953125 22.6015625 121.1015625 C20 123 20 123 18 123 C18 123.66 18 124.32 18 125 C17.34 125 16.68 125 16 125 C16 125.66 16 126.32 16 127 C14.49609375 128.296875 14.49609375 128.296875 12.4375 129.75 C9.57896777 131.80189174 6.95271236 133.91932186 4.375 136.3125 C1.35649367 138.92533008 -0.87958425 140.09156479 -5 140 C-8.16748634 138.28784522 -8.84578536 137.46264391 -10 134 C-10.0923191 132.27087129 -10.12628612 130.53836925 -10.12698364 128.80677795 C-10.12980347 127.73142288 -10.13262329 126.65606781 -10.13552856 125.54812622 C-10.13350433 124.3683017 -10.1314801 123.18847717 -10.12939453 121.97290039 C-10.13114685 120.73043045 -10.13289917 119.48796051 -10.13470459 118.20783997 C-10.13835571 114.79874554 -10.13749403 111.38971168 -10.1343255 107.98062062 C-10.13179534 104.41371024 -10.13414133 100.84680245 -10.13571167 97.27989197 C-10.13753168 91.28855932 -10.13513172 85.29723898 -10.13037109 79.3059082 C-10.12493128 72.37983717 -10.12668977 65.45379559 -10.1321975 58.52772528 C-10.13673638 52.58200137 -10.1373753 46.63628632 -10.13475883 40.69056123 C-10.13320002 37.13913677 -10.13299144 33.58772614 -10.13629532 30.03630257 C-10.13972179 26.0763548 -10.13497158 22.11643996 -10.12939453 18.15649414 C-10.13141876 16.97869385 -10.13344299 15.80089355 -10.13552856 14.58740234 C-10.13270874 13.50922745 -10.12988892 12.43105255 -10.12698364 11.32020569 C-10.12660662 10.3838733 -10.12622959 9.44754091 -10.12584114 8.48283482 C-10.00607617 6.11988228 -9.83862692 4.21204925 -9 2 C-5.43921642 -0.37385572 -4.19775625 -0.59895434 0 0 Z " fill="#144C68" transform="translate(115,194)"/>
<path d="M0 0 C2.64 0 5.28 0 8 0 C8 0.66 8 1.32 8 2 C8.66 2 9.32 2 10 2 C11.00876826 5.02630477 11.13044741 7.05935371 11.14044189 10.22445679 C11.14615204 11.30678085 11.15186218 12.38910492 11.15774536 13.50422668 C11.15942215 15.28563301 11.15942215 15.28563301 11.16113281 17.10302734 C11.16858017 18.97895317 11.16858017 18.97895317 11.17617798 20.89277649 C11.18828792 24.3246589 11.19574497 27.75648037 11.20018864 31.1883769 C11.20312061 33.33272661 11.20722563 35.47707098 11.21169281 37.621418 C11.22536467 44.3313912 11.2350331 51.0413522 11.2388947 57.75133836 C11.24337619 65.49572448 11.26092947 73.23993417 11.2898953 80.98426664 C11.31151196 86.97162054 11.32159895 92.9589248 11.32293582 98.94631732 C11.32398378 102.52187103 11.32988953 106.09725883 11.34775543 109.67277145 C11.36729773 113.6613001 11.36294718 117.64960818 11.35644531 121.63818359 C11.3656601 122.82173935 11.37487488 124.0052951 11.3843689 125.22471619 C11.37879974 126.3126799 11.37323059 127.40064362 11.36749268 128.52157593 C11.36969252 129.93575334 11.36969252 129.93575334 11.3719368 131.37849998 C10.92070342 134.55890136 9.91294285 136.43542575 8 139 C5.11328125 140.03125 5.11328125 140.03125 2 140 C-0.45703125 138.59375 -0.45703125 138.59375 -2.8125 136.5 C-3.66199219 135.76523437 -4.51148438 135.03046875 -5.38671875 134.2734375 C-6.24910156 133.52320313 -7.11148438 132.77296875 -8 132 C-10.44645604 130.12811783 -12.91134257 128.2839493 -15.3828125 126.4453125 C-15.91648437 125.96835937 -16.45015625 125.49140625 -17 125 C-17 124.34 -17 123.68 -17 123 C-17.56203125 122.7421875 -18.1240625 122.484375 -18.703125 122.21875 C-21.26704579 120.85830223 -23.45226365 119.27211038 -25.75 117.5 C-26.54921875 116.8915625 -27.3484375 116.283125 -28.171875 115.65625 C-28.77515625 115.1096875 -29.3784375 114.563125 -30 114 C-30 113.34 -30 112.68 -30 112 C-30.515625 111.773125 -31.03125 111.54625 -31.5625 111.3125 C-34.89547005 109.51782382 -38.14703671 107.50034985 -41 105 C-41 104.34 -41 103.68 -41 103 C-41.66 103 -42.32 103 -43 103 C-43 102.34 -43 101.68 -43 101 C-43.66 101 -44.32 101 -45 101 C-45 100.34 -45 99.68 -45 99 C-45.70125 98.773125 -46.4025 98.54625 -47.125 98.3125 C-50.74128535 96.66158712 -53.08769976 94.7091165 -56 92 C-56 91.34 -56 90.68 -56 90 C-56.598125 89.71125 -57.19625 89.4225 -57.8125 89.125 C-60 88 -60 88 -63 86 C-63 85.34 -63 84.68 -63 84 C-63.928125 83.5359375 -63.928125 83.5359375 -64.875 83.0625 C-66.25 82.375 -67.625 81.6875 -69 81 C-69 80.34 -69 79.68 -69 79 C-69.5775 78.773125 -70.155 78.54625 -70.75 78.3125 C-73.73759691 76.56973514 -75.21601425 74.97330958 -77 72 C-77.125 68.5 -77.125 68.5 -76 65 C-73.1875 62.3125 -73.1875 62.3125 -70 60 C-69.38898438 59.38898438 -68.77796875 58.77796875 -68.1484375 58.1484375 C-65.69931251 55.69931251 -63.11143914 53.51349753 -60.4375 51.3125 C-59.48746094 50.52488281 -58.53742188 49.73726562 -57.55859375 48.92578125 C-55 47 -55 47 -52 46 C-52 45.34 -52 44.68 -52 44 C-49.91796875 42.08984375 -49.91796875 42.08984375 -47.1875 39.9375 C-46.29417969 39.22464844 -45.40085937 38.51179688 -44.48046875 37.77734375 C-42 36 -42 36 -39 35 C-39 34.34 -39 33.68 -39 33 C-36.91796875 31.08984375 -36.91796875 31.08984375 -34.1875 28.9375 C-33.29417969 28.22464844 -32.40085937 27.51179688 -31.48046875 26.77734375 C-29 25 -29 25 -26 24 C-26 23.34 -26 22.68 -26 22 C-24.3046875 20.4765625 -24.3046875 20.4765625 -21.875 18.625 C-16.63181755 14.55364629 -11.61997273 10.25969115 -6.64794922 5.86181641 C-2.21723223 2 -2.21723223 2 0 2 C0 1.34 0 0.68 0 0 Z " fill="#184460" transform="translate(384,194)"/>
<path d="M0 0 C1.06176234 -0.00382555 2.12352469 -0.00765109 3.21746165 -0.01159257 C6.78105666 -0.02192481 10.34449062 -0.01792994 13.90809631 -0.01396179 C16.46064402 -0.01830812 19.01319041 -0.023491 21.56573486 -0.02944946 C27.78280713 -0.04146557 33.99981985 -0.04398988 40.21690147 -0.0416492 C45.2701304 -0.03986621 50.32334621 -0.04161528 55.37657356 -0.04587364 C56.45534977 -0.04676643 56.45534977 -0.04676643 57.55591943 -0.04767724 C59.01693737 -0.04888899 60.47795531 -0.05010313 61.93897326 -0.05131962 C75.6403209 -0.06219599 89.34164393 -0.06003216 103.04299296 -0.05393478 C115.57724751 -0.04876507 128.11142437 -0.06002228 140.64566355 -0.07903299 C153.51669942 -0.09840486 166.38769852 -0.10666857 179.25874907 -0.10290974 C186.4845263 -0.10099676 193.71023739 -0.10349469 200.93600273 -0.11762428 C207.72970682 -0.1307746 214.52322999 -0.12828695 221.31694221 -0.11521339 C223.812278 -0.11284156 226.30762466 -0.1156039 228.802948 -0.12383652 C232.20548429 -0.13425399 235.60749274 -0.12624306 239.01000977 -0.11352539 C240.49614813 -0.12458682 240.49614813 -0.12458682 242.01230949 -0.13587171 C247.28794455 -0.09430015 251.01914597 0.2805465 255.5684967 3.26069641 C258.45607105 6.30869155 260.500148 9.18154681 261.5684967 13.26069641 C261.35631818 18.98951652 259.55742338 22.53626392 256.5684967 27.26069641 C255.9084967 27.26069641 255.2484967 27.26069641 254.5684967 27.26069641 C254.5684967 27.92069641 254.5684967 28.58069641 254.5684967 29.26069641 C252.5684967 30.88569641 252.5684967 30.88569641 250.5684967 32.26069641 C249.9084967 31.93069641 249.2484967 31.60069641 248.5684967 31.26069641 C249.9434967 29.76069641 249.9434967 29.76069641 251.5684967 28.26069641 C252.2284967 28.26069641 252.8884967 28.26069641 253.5684967 28.26069641 C253.5684967 26.61069641 253.5684967 24.96069641 253.5684967 23.26069641 C255.2184967 22.60069641 256.8684967 21.94069641 258.5684967 21.26069641 C258.5684967 19.94069641 258.5684967 18.62069641 258.5684967 17.26069641 C257.5784967 17.59069641 256.5884967 17.92069641 255.5684967 18.26069641 C255.4434967 10.51069641 255.4434967 10.51069641 256.5684967 8.26069641 C255.9084967 8.26069641 255.2484967 8.26069641 254.5684967 8.26069641 C254.5684967 7.27069641 254.5684967 6.28069641 254.5684967 5.26069641 C236.5349647 2.74452478 218.47417873 2.98112094 200.31161308 3.02497697 C195.78286293 3.03395235 191.2541143 3.03199576 186.72535706 3.03161621 C179.06628192 3.03255002 171.40724657 3.04116391 163.7481842 3.05488586 C156.06197826 3.06861332 148.37580885 3.07591697 140.68959045 3.07539368 C89.30847505 3.07218651 37.94311772 3.43478238 -13.4315033 4.26069641 C-13.7615033 5.58069641 -14.0915033 6.90069641 -14.4315033 8.26069641 C-15.7515033 8.26069641 -17.0715033 8.26069641 -18.4315033 8.26069641 C-18.1015033 9.25069641 -17.7715033 10.24069641 -17.4315033 11.26069641 C-17.7615033 11.59069641 -18.0915033 11.92069641 -18.4315033 12.26069641 C-18.66343194 13.7753909 -18.84365568 15.29824203 -18.9940033 16.82319641 C-19.07779236 17.64948547 -19.16158142 18.47577454 -19.24790955 19.32710266 C-19.30849548 19.9651886 -19.36908142 20.60327454 -19.4315033 21.26069641 C-18.4415033 21.59069641 -17.4515033 21.92069641 -16.4315033 22.26069641 C-16.1015033 23.91069641 -15.7715033 25.56069641 -15.4315033 27.26069641 C-18.4315033 26.26069641 -18.4315033 26.26069641 -19.6346283 24.44038391 C-21.96936651 19.30047516 -23.05825294 15.90009519 -21.4315033 10.26069641 C-19.45348586 6.30466153 -17.3919097 3.33234494 -13.48190975 1.19495869 C-8.99128998 -0.18040447 -4.67142166 -0.01777946 0 0 Z " fill="#B5E0DA" transform="translate(130.43150329589844,155.7393035888672)"/>
<path d="M0 0 C2.56593241 1.7724513 4.79105388 3.80412456 7 6 C4 6 4 6 1.5625 5 C-1.16260006 3.75763834 -1.16260006 3.75763834 -5 4 C-7.21824372 5.80093736 -7.21824372 5.80093736 -7.24888897 8.27356052 C-7.2483442 9.22908282 -7.24779943 10.18460512 -7.24723816 11.16908264 C-7.25352989 12.81179893 -7.25352989 12.81179893 -7.25994873 14.48770142 C-7.25432922 15.69453583 -7.24870972 16.90137024 -7.24291992 18.14477539 C-7.24481827 19.41142532 -7.24671661 20.67807526 -7.24867249 21.98310852 C-7.25352812 25.4623329 -7.24585664 28.94142941 -7.23571944 32.42063832 C-7.22695216 36.0556876 -7.22869612 39.69073271 -7.2290802 43.32579041 C-7.22814306 49.42986193 -7.21945175 55.5338838 -7.20581055 61.63793945 C-7.19007746 68.70435716 -7.18481265 75.77072049 -7.1855461 82.83715445 C-7.18615554 89.62455698 -7.18105821 96.41194172 -7.17275429 103.19933891 C-7.16921546 106.09287085 -7.16739019 108.9863965 -7.16686058 111.8799305 C-7.16567347 115.91485307 -7.15597734 119.94971064 -7.14526367 123.98461914 C-7.14594345 125.7979071 -7.14594345 125.7979071 -7.14663696 127.64782715 C-7.14237198 128.74015152 -7.13810699 129.83247589 -7.13371277 130.957901 C-7.13203692 131.91304627 -7.13036108 132.86819155 -7.12863445 133.85228062 C-7.23947295 135.9817159 -7.23947295 135.9817159 -6 137 C-2.63370749 137.14636054 -0.21580438 137.07193479 3 136 C3 136.66 3 137.32 3 138 C0.44003219 139.67382511 -0.95830324 140.00085095 -4.0625 139.9375 C-7 139 -7 139 -8.66062546 136.78101444 C-10.11922913 133.75243824 -10.37273354 131.90439054 -10.36749268 128.56626892 C-10.37306183 127.48816452 -10.37863098 126.41006012 -10.3843689 125.29928589 C-10.37515411 124.12665192 -10.36593933 122.95401794 -10.35644531 121.74584961 C-10.35848969 120.50308762 -10.36053406 119.26032562 -10.36264038 117.97990417 C-10.3651306 114.57900556 -10.35426017 111.1786554 -10.33711338 107.77783275 C-10.3220521 104.21628113 -10.32325082 100.65473304 -10.32244873 97.09315491 C-10.31875906 91.11372711 -10.30380641 85.13441431 -10.28125 79.1550293 C-10.25236442 71.48228735 -10.24202475 63.80963791 -10.2375679 56.1368475 C-10.23358613 49.53630991 -10.22108587 42.93579239 -10.20722103 36.33526921 C-10.20312576 34.21523729 -10.20019827 32.09520607 -10.19742584 29.97517204 C-10.19161633 26.02500431 -10.17693613 22.07489683 -10.16113281 18.12475586 C-10.16001495 16.95009766 -10.15889709 15.77543945 -10.15774536 14.56518555 C-10.15203522 13.48990097 -10.14632507 12.41461639 -10.14044189 11.30674744 C-10.13746723 10.37301269 -10.13449257 9.43927794 -10.13142776 8.47724819 C-10.00632452 6.11920932 -9.8357785 4.20830382 -9 2 C-5.42529543 -0.38313638 -4.21446465 -0.64837918 0 0 Z " fill="#B3C6CF" transform="translate(115,194)"/>
<path d="M0 0 C0.495 0.99 0.495 0.99 1 2 C0.44054687 2.43828125 -0.11890625 2.8765625 -0.6953125 3.328125 C-6.49667991 7.91698796 -12.13652762 12.65896792 -17.73681641 17.48950195 C-22.31387802 21.43061787 -26.95638192 25.27724898 -31.64453125 29.0859375 C-34.4506441 31.36619504 -37.22847815 33.67791413 -40 36 C-40.66 35.67 -41.32 35.34 -42 35 C-40.68 32.69 -39.36 30.38 -38 28 C-37.34 28 -36.68 28 -36 28 C-36 27.34 -36 26.68 -36 26 C-33.03812728 23.82796 -30.49314009 22.16438003 -27 21 C-27 20.34 -27 19.68 -27 19 C-24 17 -24 17 -20 17 C-20 15.68 -20 14.36 -20 13 C-18.68 12.67 -17.36 12.34 -16 12 C-16 11.34 -16 10.68 -16 10 C-14.68 9.67 -13.36 9.34 -12 9 C-11.87625 8.21625 -11.7525 7.4325 -11.625 6.625 C-11 4 -11 4 -9 2 C-8.21625 2.185625 -7.4325 2.37125 -6.625 2.5625 C-3.92904925 3.30876352 -3.92904925 3.30876352 -1.6875 1.5625 C-1.130625 1.046875 -0.57375 0.53125 0 0 Z " fill="#70CBA8" transform="translate(335,224)"/>
<path d="M0 0 C0.76121658 -0.00043808 1.52243317 -0.00087616 2.30671692 -0.00132751 C4.82298424 0.00076265 7.33858539 0.02410382 9.85473633 0.04760742 C11.5992242 0.05320258 13.34371679 0.05747306 15.08821106 0.06047058 C19.67997245 0.07192568 24.27144922 0.10139852 28.86309814 0.13458252 C33.54842275 0.1652691 38.23379333 0.17897289 42.91918945 0.1940918 C52.11267389 0.22626763 61.30594707 0.27747199 70.49926758 0.34057617 C70.49926758 0.67057617 70.49926758 1.00057617 70.49926758 1.34057617 C32.87926758 1.83557617 32.87926758 1.83557617 -5.50073242 2.34057617 C-5.83073242 3.66057617 -6.16073242 4.98057617 -6.50073242 6.34057617 C-7.82073242 6.34057617 -9.14073242 6.34057617 -10.50073242 6.34057617 C-10.17073242 7.33057617 -9.84073242 8.32057617 -9.50073242 9.34057617 C-9.83073242 9.67057617 -10.16073242 10.00057617 -10.50073242 10.34057617 C-10.73266107 11.85527066 -10.91288481 13.37812179 -11.06323242 14.90307617 C-11.14702148 15.72936523 -11.23081055 16.5556543 -11.31713867 17.40698242 C-11.37772461 18.04506836 -11.43831055 18.6831543 -11.50073242 19.34057617 C-10.51073242 19.67057617 -9.52073242 20.00057617 -8.50073242 20.34057617 C-8.17073242 21.99057617 -7.84073242 23.64057617 -7.50073242 25.34057617 C-10.50073242 24.34057617 -10.50073242 24.34057617 -11.70385742 22.52026367 C-14.03859563 17.38035492 -15.12748207 13.97997495 -13.50073242 8.34057617 C-12.12573242 5.59057617 -12.12573242 5.59057617 -10.50073242 3.34057617 C-9.94001289 2.53900337 -9.94001289 2.53900337 -9.3679657 1.72123718 C-6.47898688 -0.4149182 -3.45251341 -0.05182254 0 0 Z " fill="#2F937D" transform="translate(122.500732421875,157.659423828125)"/>
<path d="M0 0 C2.64621913 0.44103652 4.72260415 0.84028724 7.0625 2.1875 C9.0447009 3.28251737 9.0447009 3.28251737 11.25 2.125 C12.11625 1.568125 12.11625 1.568125 13 1 C14.4606285 3.64738916 15 4.89448334 15 8 C16.43750191 9.68798827 16.43750191 9.68798827 18 11 C18.99 10.34 19.98 9.68 21 9 C21.103125 9.598125 21.20625 10.19625 21.3125 10.8125 C21.82484936 13.07883283 21.82484936 13.07883283 23.5625 14.4375 C25 16 25 16 25.1875 18.6875 C25.0946875 19.8321875 25.0946875 19.8321875 25 21 C24.34 21 23.68 21 23 21 C23 20.34 23 19.68 23 19 C22.47921875 18.773125 21.9584375 18.54625 21.421875 18.3125 C18.12315465 16.52480639 15.21542579 14.28109676 12.25 12 C11.64800781 11.54882812 11.04601562 11.09765625 10.42578125 10.6328125 C8.91093644 9.47177498 7.45030179 8.24072061 6 7 C6 6.34 6 5.68 6 5 C5.38125 4.731875 4.7625 4.46375 4.125 4.1875 C2 3 2 3 0 0 Z " fill="#2FBB7B" transform="translate(184,241)"/>
<path d="M0 0 C3.2284763 -0.17499733 6.45572926 -0.28106618 9.6875 -0.375 C11.05551758 -0.45041016 11.05551758 -0.45041016 12.45117188 -0.52734375 C19.09835887 -0.67237328 19.09835887 -0.67237328 21.71191406 1.27661133 C25.19377266 5.39916725 27.07462703 8.98507019 26.875 14.375 C25.85836788 18.58676164 24.30606294 21.35493278 22 25 C21.34 25 20.68 25 20 25 C20 25.66 20 26.32 20 27 C18 28.625 18 28.625 16 30 C15.34 29.67 14.68 29.34 14 29 C15.375 27.5 15.375 27.5 17 26 C17.66 26 18.32 26 19 26 C19 24.35 19 22.7 19 21 C20.65 20.34 22.3 19.68 24 19 C24 17.68 24 16.36 24 15 C23.01 15.33 22.02 15.66 21 16 C20.875 8.25 20.875 8.25 22 6 C21.34 6 20.68 6 20 6 C20 5.01 20 4.02 20 3 C13.4 2.34 6.8 1.68 0 1 C0 0.67 0 0.34 0 0 Z " fill="#61B2A1" transform="translate(365,158)"/>
<path d="M0 0 C-2 3 -2 3 -3.83906746 3.36914349 C-4.58940695 3.36637811 -5.33974644 3.36361273 -6.11282349 3.36076355 C-7.40431305 3.36694954 -7.40431305 3.36694954 -8.72189331 3.3732605 C-9.66847809 3.36247467 -10.61506287 3.35168884 -11.59033203 3.34057617 C-12.58548828 3.34101425 -13.58064453 3.34145233 -14.60595703 3.34190369 C-17.90677271 3.33980783 -21.20708518 3.316439 -24.5078125 3.29296875 C-26.79181643 3.28737564 -29.07582395 3.2831042 -31.35983276 3.28010559 C-37.38020715 3.26863444 -43.40036546 3.23914765 -49.4206543 3.20599365 C-55.56035437 3.17534169 -61.70008926 3.16161069 -67.83984375 3.14648438 C-79.89332426 3.1142802 -91.94664419 3.06305642 -104 3 C-104 2.67 -104 2.34 -104 2 C-102.82680206 1.98969254 -101.65360413 1.97938507 -100.44485474 1.96876526 C-89.40831564 1.87116417 -78.3718346 1.76844291 -67.33539009 1.66066074 C-61.6609507 1.60540991 -55.98650617 1.55198646 -50.31201172 1.50268555 C-44.83958206 1.45507386 -39.36721651 1.40273223 -33.89486313 1.34705925 C-31.8032172 1.32662119 -29.71155368 1.30791055 -27.61987686 1.29092598 C-24.69850532 1.26691407 -21.77725568 1.23685515 -18.85595703 1.20532227 C-17.98417816 1.1995668 -17.11239929 1.19381134 -16.21420288 1.18788147 C-10.55306306 1.11806003 -5.74577867 -0.09267385 0 0 Z " fill="#163B52" transform="translate(296,340)"/>
<path d="M0 0 C0.66 0.33 1.32 0.66 2 1 C0.73046875 2.46484375 -0.5390625 3.9296875 -1.80859375 5.39453125 C-3.20871231 7.10712971 -3.20871231 7.10712971 -4 10 C-6.05684849 11.27666458 -7.73901192 11.95394328 -10.125 12.375 C-12.19099747 12.82763643 -12.19099747 12.82763643 -13.0625 14.9375 C-13.371875 15.618125 -13.68125 16.29875 -14 17 C-14.99 17.66 -15.98 18.32 -17 19 C-16.67 19.66 -16.34 20.32 -16 21 C-16.33 21.66 -16.66 22.32 -17 23 C-18.6396875 22.9071875 -18.6396875 22.9071875 -20.3125 22.8125 C-23.84873023 22.66188096 -23.84873023 22.66188096 -25.71875 24.21875 C-27.3746715 26.52088476 -27.3094704 27.88218083 -27.1875 30.6875 C-27.16042969 31.49574219 -27.13335937 32.30398438 -27.10546875 33.13671875 C-27.07066406 33.75160156 -27.03585937 34.36648438 -27 35 C-28.49609375 33.7109375 -28.49609375 33.7109375 -30 32 C-30.0625 28.625 -30.0625 28.625 -29 25 C-26.1875 22.3125 -26.1875 22.3125 -23 20 C-22.38898438 19.38898438 -21.77796875 18.77796875 -21.1484375 18.1484375 C-18.69931251 15.69931251 -16.11143914 13.51349753 -13.4375 11.3125 C-12.48746094 10.52488281 -11.53742188 9.73726562 -10.55859375 8.92578125 C-8 7 -8 7 -5 6 C-5 5.34 -5 4.68 -5 4 C-3.37373596 2.61767557 -1.7074998 1.28062485 0 0 Z " fill="#7F9BAB" transform="translate(337,234)"/>
<path d="M0 0 C0.33 1.32 0.66 2.64 1 4 C0.34 4 -0.32 4 -1 4 C-1.66 5.98 -2.32 7.96 -3 10 C-1.906875 9.773125 -0.81375 9.54625 0.3125 9.3125 C4 9 4 9 5.9375 10.4375 C6.288125 10.953125 6.63875 11.46875 7 12 C6 15 6 15 4 16 C4.66 16.33 5.32 16.66 6 17 C6.72159424 18.64363134 7.39351421 20.31050386 8 22 C6 21 4 20 2 19 C2 18.34 2 17.68 2 17 C1.38125 16.7525 0.7625 16.505 0.125 16.25 C-2.48998244 14.71177504 -3.06708246 13.87649576 -4 11 C-4.375 7.5 -4.375 7.5 -4 4 C-2 1.5625 -2 1.5625 0 0 Z " fill="#1A435D" transform="translate(313,256)"/>
<path d="M0 0 C0 2.25 0 2.25 -1 5 C-2.95140944 6.21197402 -4.95251738 7.09653541 -7.0546875 8.01953125 C-9.45856288 9.23112306 -10.67237961 10.67666432 -12 13 C-11.34 13.33 -10.68 13.66 -10 14 C-13.92353169 16.80252264 -17.39876467 18.59962403 -22 20 C-23.34721283 20.63815344 -24.68747118 21.29325371 -26 22 C-24.71937515 20.2925002 -23.38232443 18.62626404 -22 17 C-21.34 17 -20.68 17 -20 17 C-20 16.34 -20 15.68 -20 15 C-18.55235738 13.70958086 -17.03910851 12.49232866 -15.5 11.3125 C-11.37453515 8.10706069 -7.44150928 4.78236918 -3.59375 1.25 C-2 0 -2 0 0 0 Z " fill="#6D8C9F" transform="translate(378,201)"/>
<path d="M0 0 C0.66 0.33 1.32 0.66 2 1 C-1.63190824 5.57351408 -1.63190824 5.57351408 -3.37890625 7.59765625 C-6.11216316 10.39422112 -6.11216316 10.39422112 -7 14 C-7.66 14 -8.32 14 -9 14 C-8.67 14.99 -8.34 15.98 -8 17 C-8.99 16.67 -9.98 16.34 -11 16 C-11 15.34 -11 14.68 -11 14 C-13.60943058 15.0645852 -13.60943058 15.0645852 -16 17 C-16.41746608 20.12635209 -16.41746608 20.12635209 -16 23 C-16.66 22.67 -17.32 22.34 -18 22 C-18.3125 19.3125 -18.3125 19.3125 -18 16 C-15.625 13.125 -15.625 13.125 -13 11 C-12.34 11 -11.68 11 -11 11 C-11 10.34 -11 9.68 -11 9 C-9.40591302 7.58528397 -7.74893135 6.24075901 -6.0625 4.9375 C-4.68771484 3.86822266 -4.68771484 3.86822266 -3.28515625 2.77734375 C-2.53105469 2.19082031 -1.77695313 1.60429687 -1 1 C-0.67 0.67 -0.34 0.34 0 0 Z " fill="#7795A5" transform="translate(141,319)"/>
<path d="M0 0 C-1.41644771 4.6492813 -3.75568463 6.95203451 -7.375 10.125 C-8.80972656 11.39730469 -8.80972656 11.39730469 -10.2734375 12.6953125 C-12.46805408 14.5503609 -14.67492212 16.31404305 -17 18 C-17.66 17.67 -18.32 17.34 -19 17 C-17.68 14.69 -16.36 12.38 -15 10 C-14.34 10 -13.68 10 -13 10 C-13 9.34 -13 8.68 -13 8 C-10.03812728 5.82796 -7.49314009 4.16438003 -4 3 C-4 2.34 -4 1.68 -4 1 C-2 0 -2 0 0 0 Z " fill="#38B87F" transform="translate(312,242)"/>
<path d="M0 0 C0.99 0.33 1.98 0.66 3 1 C3 1.66 3 2.32 3 3 C3.515625 3.226875 4.03125 3.45375 4.5625 3.6875 C7.89547005 5.48217618 11.14703671 7.49965015 14 10 C14 10.66 14 11.32 14 12 C14.58265625 12.26554688 15.1653125 12.53109375 15.765625 12.8046875 C18.06174228 14.03302996 19.80356018 15.40314939 21.75 17.125 C22.36359375 17.66382813 22.9771875 18.20265625 23.609375 18.7578125 C24.06828125 19.16773438 24.5271875 19.57765625 25 20 C21.74138748 20 19.99064182 19.21049788 17 18 C16.113125 17.835 15.22625 17.67 14.3125 17.5 C12 17 12 17 10 15 C10.99 14.67 11.98 14.34 13 14 C13 13.01 13 12.02 13 11 C12.1028125 10.566875 12.1028125 10.566875 11.1875 10.125 C9 9 9 9 6 7 C4.34450469 6.61500109 2.6777567 6.27206865 1 6 C0.67 4.02 0.34 2.04 0 0 Z " fill="#9EB9C5" transform="translate(128,206)"/>
<path d="M0 0 C9.53424658 2.22465753 9.53424658 2.22465753 12 4 C12.12375 4.59554688 12.2475 5.19109375 12.375 5.8046875 C13.17931014 8.62982686 14.58720334 10.09513092 16.5625 12.25 C17.52349609 13.30960937 17.52349609 13.30960937 18.50390625 14.390625 C18.99761719 14.92171875 19.49132812 15.4528125 20 16 C16.06111246 16 15.26454258 14.71256133 12.4375 12.0625 C9.45371254 9.19301173 9.45371254 9.19301173 6 7 C6 6.34 6 5.68 6 5 C5.38125 4.731875 4.7625 4.46375 4.125 4.1875 C2 3 2 3 0 0 Z " fill="#798F9F" transform="translate(361,312)"/>
<path d="M0 0 C0.99 0.33 1.98 0.66 3 1 C2.195625 1.556875 1.39125 2.11375 0.5625 2.6875 C-2.40718273 5.36745759 -2.65466382 6.11496799 -3 10 C-3.18635805 11.60429973 -3.37393706 13.20845793 -3.5625 14.8125 C-3.71048442 16.20810692 -3.85704109 17.60386935 -4 19 C-3.01 19.33 -2.02 19.66 -1 20 C-0.67 21.65 -0.34 23.3 0 25 C-3 24 -3 24 -4.203125 22.1796875 C-6.53786321 17.03977875 -7.62674965 13.63939878 -6 8 C-4.40503793 4.81007586 -2.64156315 2.3899857 0 0 Z " fill="#97D0C6" transform="translate(115,158)"/>
<path d="M0 0 C0 0.66 0 1.32 0 2 C-2.23046875 3.69140625 -2.23046875 3.69140625 -5.1875 5.5625 C-6.15042969 6.18253906 -7.11335938 6.80257813 -8.10546875 7.44140625 C-10.83595315 8.91166708 -12.949475 9.59289154 -16 10 C-16.33 9.01 -16.66 8.02 -17 7 C-15.02 6.34 -13.04 5.68 -11 5 C-11 4.34 -11 3.68 -11 3 C-4.5 0 -4.5 0 0 0 Z " fill="#73D3A5" transform="translate(293,260)"/>
<path d="M0 0 C1.65 0 3.3 0 5 0 C5 0.66 5 1.32 5 2 C2.91796875 3.91015625 2.91796875 3.91015625 0.1875 6.0625 C-0.70582031 6.77535156 -1.59914063 7.48820313 -2.51953125 8.22265625 C-5 10 -5 10 -8 11 C-8 11.66 -8 12.32 -8 13 C-9.62626404 14.38232443 -11.2925002 15.71937515 -13 17 C-13.66 16.67 -14.32 16.34 -15 16 C-13.71034824 14.62437146 -12.37310707 13.29233607 -11 12 C-10.34 12 -9.68 12 -9 12 C-9 10.35 -9 8.7 -9 7 C-8.01 7 -7.02 7 -6 7 C-5.67 6.01 -5.34 5.02 -5 4 C-3.35 4 -1.7 4 0 4 C0 2.68 0 1.36 0 0 Z " fill="#80C7B5" transform="translate(370,191)"/>
<path d="M0 0 C3.23693164 1.48483103 5.9325625 3.32707435 8.75 5.5 C9.54921875 6.1084375 10.3484375 6.716875 11.171875 7.34375 C11.77515625 7.8903125 12.3784375 8.436875 13 9 C13 9.66 13 10.32 13 11 C13.639375 11.2475 14.27875 11.495 14.9375 11.75 C17 13 17 13 17.75 15.125 C17.87375 16.053125 17.87375 16.053125 18 17 C17.34 17.33 16.68 17.66 16 18 C16 17.34 16 16.68 16 16 C15.01 15.67 14.02 15.34 13 15 C12.67 13.35 12.34 11.7 12 10 C8.41672247 8.99782936 8.41672247 8.99782936 5 10 C4.28385417 8.27473958 3.56770833 6.54947917 2.8515625 4.82421875 C1.93193308 2.73466068 1.93193308 2.73466068 0 0 Z " fill="#9AB0BB" transform="translate(357,319)"/>
<path d="M0 0 C3.39255434 1.35702174 6.37645251 3.10137309 9.5 5 C8.51 5.495 8.51 5.495 7.5 6 C6.51 5.34 5.52 4.68 4.5 4 C1.04213985 3.49992206 1.04213985 3.49992206 -2.5 4 C-3.87310707 5.29233607 -5.21034824 6.62437146 -6.5 8 C-9.25 8.25 -9.25 8.25 -11.5 8 C-11.5 7.34 -11.5 6.68 -11.5 6 C-10.84 6 -10.18 6 -9.5 6 C-9.5 5.34 -9.5 4.68 -9.5 4 C-3.31818182 0 -3.31818182 0 0 0 Z " fill="#8BA4B1" transform="translate(203.5,270)"/>
<path d="M0 0 C5.19525146 1.3606611 8.17555757 3.35767388 12 7 C12 7.66 12 8.32 12 9 C12.804375 9.2475 13.60875 9.495 14.4375 9.75 C17 11 17 11 17.8125 13.125 C17.874375 13.74375 17.93625 14.3625 18 15 C15.50638429 13.79618552 13.31856917 12.54571278 11 11 C11 10.34 11 9.68 11 9 C10.12601563 8.59974609 10.12601563 8.59974609 9.234375 8.19140625 C6.95523863 6.97613248 5.19537168 5.62930828 3.25 3.9375 C2.63640625 3.41027344 2.0228125 2.88304687 1.390625 2.33984375 C0.93171875 1.89769531 0.4728125 1.45554688 0 1 C0 0.67 0 0.34 0 0 Z " fill="#91D6BC" transform="translate(166,226)"/>
<path d="M0 0 C2.80921339 1.30228944 5.06973828 2.73636108 7.41796875 4.75 C8.03220703 5.2759375 8.64644531 5.801875 9.27929688 6.34375 C10.22385742 7.16359375 10.22385742 7.16359375 11.1875 8 C11.82880859 8.5465625 12.47011719 9.093125 13.13085938 9.65625 C17.86983998 13.73967996 17.86983998 13.73967996 19 16 C16.17462936 14.80465088 14.32924926 13.43875959 11.9375 11.4375 C9.19794312 8.86462201 9.19794312 8.86462201 6 8 C6 7.34 6 6.68 6 6 C4.02 6 2.04 6 0 6 C-0.38218767 4.34385343 -0.71395102 2.67542976 -1 1 C-0.67 0.67 -0.34 0.34 0 0 Z " fill="#8EA4B1" transform="translate(338,303)"/>
<path d="M0 0 C2.48493047 1.48369544 4.87207244 3.0315137 7 5 C7 5.66 7 6.32 7 7 C4 7 4 7 1.8125 5 C1.214375 4.34 0.61625 3.68 0 3 C0 3.66 0 4.32 0 5 C-0.66 5 -1.32 5 -2 5 C-2.33 5.66 -2.66 6.32 -3 7 C-3 4 -3 4 -2 3 C-6.54805635 2.82164485 -9.8794254 3.00214565 -14 5 C-9.90189752 0.4465528 -6.10759551 -2.18128411 0 0 Z " fill="#93AAB7" transform="translate(301,271)"/>
<path d="M0 0 C3.8356593 -0.35680552 5.50350247 -0.35794008 8.6875 1.9375 C9.450625 2.618125 10.21375 3.29875 11 4 C11.99 4.33 12.98 4.66 14 5 C14.6875 7.0625 14.6875 7.0625 15 9 C11.79638418 8.34172278 9.23428792 7.20286791 6.375 5.625 C5.59898437 5.20476562 4.82296875 4.78453125 4.0234375 4.3515625 C2 3 2 3 0 0 Z " fill="#7ED5AA" transform="translate(209,262)"/>
<path d="M0 0 C0.66 0.33 1.32 0.66 2 1 C0.73046875 2.46484375 -0.5390625 3.9296875 -1.80859375 5.39453125 C-3.20871231 7.10712971 -3.20871231 7.10712971 -4 10 C-6.01452627 11.25039562 -7.74335692 11.94556056 -10.0625 12.4375 C-12.40586999 13.11783322 -13.41902573 14.18187959 -15 16 C-15.66 15.67 -16.32 15.34 -17 15 C-15.38050958 13.49405319 -13.75424026 11.99539332 -12.125 10.5 C-11.22007812 9.6646875 -10.31515625 8.829375 -9.3828125 7.96875 C-7 6 -7 6 -5 6 C-5 5.34 -5 4.68 -5 4 C-3.37373596 2.61767557 -1.7074998 1.28062485 0 0 Z " fill="#8BA3B2" transform="translate(337,234)"/>
<path d="M0 0 C3.47984709 1.88099843 6.20056745 3.40113491 8 7 C8 11.58037182 7.47357873 13.45711706 4.4375 16.9375 C3.633125 17.618125 2.82875 18.29875 2 19 C1.34 18.67 0.68 18.34 0 18 C0.66 17.34 1.32 16.68 2 16 C2.6425235 13.93125966 2.6425235 13.93125966 3 12 C3.99 12 4.98 12 6 12 C5.67 10.02 5.34 8.04 5 6 C3.68 6 2.36 6 1 6 C0.67 4.02 0.34 2.04 0 0 Z " fill="#97B0BC" transform="translate(185,254)"/>
<path d="M0 0 C3.50298864 1.05089659 6.70483308 2.31119935 9.9375 4 C13.56245056 5.87184345 17.04691472 7.01172868 21 8 C21 8.33 21 8.66 21 9 C20.071875 8.979375 19.14375 8.95875 18.1875 8.9375 C14.97713989 8.84230396 14.97713989 8.84230396 12 10 C12 9.01 12 8.02 12 7 C10.02 7.99 8.04 8.98 6 10 C6.33 8.02 6.66 6.04 7 4 C6.030625 3.71125 5.06125 3.4225 4.0625 3.125 C1 2 1 2 0 0 Z M10 10 C10.99 10.495 10.99 10.495 12 11 C11.01 11.495 11.01 11.495 10 12 C10 11.34 10 10.68 10 10 Z " fill="#829EAE" transform="translate(213,276)"/>
<path d="M0 0 C2.375 0.625 2.375 0.625 5 2 C6.3125 5.125 6.3125 5.125 7 8 C6.34 8.66 5.68 9.32 5 10 C5 9.34 5 8.68 5 8 C3.02 8 1.04 8 -1 8 C-1.04241723 5.66705225 -1.04092937 3.33297433 -1 1 C-0.67 0.67 -0.34 0.34 0 0 Z " fill="#123955" transform="translate(364,327)"/>
<path d="M0 0 C1.32 0.66 2.64 1.32 4 2 C4 2.66 4 3.32 4 4 C1.9635505 4.84600276 -0.07943487 5.6762825 -2.125 6.5 C-3.83042969 7.19609375 -3.83042969 7.19609375 -5.5703125 7.90625 C-8.9471645 8.98315041 -11.48614728 9.21360807 -15 9 C-14.67 8.34 -14.34 7.68 -14 7 C-12.4221875 6.7834375 -12.4221875 6.7834375 -10.8125 6.5625 C-6.90788536 5.98640932 -4.34197178 5.06883967 -1 3 C-0.67 2.01 -0.34 1.02 0 0 Z " fill="#3FC07B" transform="translate(273,266)"/>
<path d="M0 0 C4.64178614 0.78822784 7.04494863 3.31428325 10.3125 6.5625 C7.3125 6.5625 7.3125 6.5625 4.875 5.5625 C2.14989994 4.32013834 2.14989994 4.32013834 -1.6875 4.5625 C-2.3475 5.2225 -3.0075 5.8825 -3.6875 6.5625 C-4.0175 5.5725 -4.3475 4.5825 -4.6875 3.5625 C-2.6875 0.5625 -2.6875 0.5625 0 0 Z " fill="#779AA9" transform="translate(111.6875,193.4375)"/>
<path d="M0 0 C0.66 0.33 1.32 0.66 2 1 C0.66666667 2.66666667 -0.66666667 4.33333333 -2 6 C-2.639375 6.928125 -3.27875 7.85625 -3.9375 8.8125 C-6 11 -6 11 -8.75 11.3125 C-9.86375 11.1578125 -9.86375 11.1578125 -11 11 C-11 10.34 -11 9.68 -11 9 C-9.40591302 7.58528397 -7.74893135 6.24075901 -6.0625 4.9375 C-5.14597656 4.22464844 -4.22945312 3.51179688 -3.28515625 2.77734375 C-2.15400391 1.89755859 -2.15400391 1.89755859 -1 1 C-0.67 0.67 -0.34 0.34 0 0 Z " fill="#87A1AF" transform="translate(141,319)"/>
<path d="M0 0 C0 0.66 0 1.32 0 2 C-0.63808594 2.26554687 -1.27617187 2.53109375 -1.93359375 2.8046875 C-2.75988281 3.15789062 -3.58617187 3.51109375 -4.4375 3.875 C-5.67306641 4.39707031 -5.67306641 4.39707031 -6.93359375 4.9296875 C-9.15746715 5.8244937 -9.15746715 5.8244937 -10 8 C-12.28515625 8.4140625 -12.28515625 8.4140625 -15.0625 8.625 C-15.98160156 8.69976562 -16.90070313 8.77453125 -17.84765625 8.8515625 C-18.91306641 8.92503906 -18.91306641 8.92503906 -20 9 C-18.44464191 5.88928381 -15.88562714 5.66683615 -12.6875 4.5 C-8.12293083 2.84403766 -8.12293083 2.84403766 -3.70703125 0.84375 C-2 0 -2 0 0 0 Z " fill="#A7BCC6" transform="translate(287,276)"/>
<path d="M0 0 C4.455 1.98 4.455 1.98 9 4 C9.33 3.34 9.66 2.68 10 2 C10 2.66 10 3.32 10 4 C10.99 4.33 11.98 4.66 13 5 C12.34 5 11.68 5 11 5 C11.66 6.98 12.32 8.96 13 11 C12.01 10.67 11.02 10.34 10 10 C10 9.34 10 8.68 10 8 C9.278125 7.7525 8.55625 7.505 7.8125 7.25 C4.72393418 5.87730408 2.48988582 4.27646704 0 2 C0 1.34 0 0.68 0 0 Z " fill="#88CBBD" transform="translate(115,183)"/>
<path d="M0 0 C4.63708939 2.60836278 8.78744458 5.77002574 13 9 C12.67 9.66 12.34 10.32 12 11 C10.35 11 8.7 11 7 11 C6.67 10.01 6.34 9.02 6 8 C5.34 8 4.68 8 4 8 C3.71125 7.195625 3.4225 6.39125 3.125 5.5625 C2.26737432 2.8673532 2.26737432 2.8673532 0 2 C0 1.34 0 0.68 0 0 Z " fill="#7A9EAB" transform="translate(172,243)"/>
<path d="M0 0 C2.76276177 0.52268466 5.3260876 1.10869587 8 2 C8.33 2.99 8.66 3.98 9 5 C9.66 5.33 10.32 5.66 11 6 C11.625 8.0625 11.625 8.0625 12 10 C10 9 8 8 6 7 C6 6.34 6 5.68 6 5 C5.38125 4.731875 4.7625 4.46375 4.125 4.1875 C2 3 2 3 0 0 Z " fill="#8BD5B3" transform="translate(184,241)"/>
<path d="M0 0 C-3.63 3.3 -7.26 6.6 -11 10 C-11.66 9.67 -12.32 9.34 -13 9 C-12.67 7.68 -12.34 6.36 -12 5 C-10.68 5 -9.36 5 -8 5 C-8 3.68 -8 2.36 -8 1 C-2.25 -1.125 -2.25 -1.125 0 0 Z " fill="#93DABB" transform="translate(323,236)"/>
<path d="M0 0 C0.66 0.33 1.32 0.66 2 1 C0.42870761 5.80117118 0.42870761 5.80117118 -1 8 C-3.9375 8.8125 -3.9375 8.8125 -7 9 C-9.28480253 9.97348627 -9.28480253 9.97348627 -11 11 C-9.71937515 9.2925002 -8.38232443 7.62626404 -7 6 C-6.34 6 -5.68 6 -5 6 C-5 5.34 -5 4.68 -5 4 C-3.37373596 2.61767557 -1.7074998 1.28062485 0 0 Z " fill="#83A0B0" transform="translate(350,223)"/>
<path d="M0 0 C0 2.25 0 2.25 -1 5 C-3.51226396 6.69592189 -6.21781041 7.81795656 -9 9 C-10.33746532 9.65833785 -11.6720813 10.32261226 -13 11 C-4.91176471 0 -4.91176471 0 0 0 Z " fill="#89A3B2" transform="translate(378,201)"/>
<path d="M0 0 C0.66 0.33 1.32 0.66 2 1 C0.2519799 2.6063702 -1.49831644 4.21013297 -3.25 5.8125 C-3.74113281 6.26431641 -4.23226563 6.71613281 -4.73828125 7.18164062 C-7.39507648 9.60818027 -10.07465076 11.90349971 -13 14 C-13.66 13.67 -14.32 13.34 -15 13 C-14.3125 11.125 -14.3125 11.125 -13 9 C-11.34795544 8.29788106 -9.68076231 7.63028587 -8 7 C-7.34 6.01 -6.68 5.02 -6 4 C-4.35857037 2.9590934 -2.69287785 1.95495674 -1 1 C-0.67 0.67 -0.34 0.34 0 0 Z " fill="#B3EAD1" transform="translate(308,246)"/>
<path d="M0 0 C2 1 2 1 3 3 C3.33333333 4.66666667 3.66666667 6.33333333 4 8 C4.33 8.66 4.66 9.32 5 10 C0.95579349 8.22054913 -2.46078487 5.60470327 -6 3 C-5.67 2.34 -5.34 1.68 -5 1 C-3.02 1.495 -3.02 1.495 -1 2 C-0.67 1.34 -0.34 0.68 0 0 Z " fill="#839BAB" transform="translate(349,296)"/>
<path d="M0 0 C0.33 0.99 0.66 1.98 1 3 C-0.3125 5.1875 -0.3125 5.1875 -2 7 C-2.66 7 -3.32 7 -4 7 C-4 7.66 -4 8.32 -4 9 C-6 10.625 -6 10.625 -8 12 C-8.66 11.67 -9.32 11.34 -10 11 C-8.625 9.5 -8.625 9.5 -7 8 C-6.34 8 -5.68 8 -5 8 C-5.103125 7.236875 -5.20625 6.47375 -5.3125 5.6875 C-5.1578125 4.3571875 -5.1578125 4.3571875 -5 3 C-2.5 1.1875 -2.5 1.1875 0 0 Z " fill="#99D2C6" transform="translate(389,176)"/>
<path d="M0 0 C0.66 0 1.32 0 2 0 C2 0.66 2 1.32 2 2 C0.34151823 3.01351664 -1.32665961 4.01120795 -3 5 C-4.36984198 6.29579647 -5.7151049 7.61992749 -7 9 C-7.66 8.67 -8.32 8.34 -9 8 C-9 6.35 -9 4.7 -9 3 C-7.68 3.33 -6.36 3.66 -5 4 C-5 3.34 -5 2.68 -5 2 C-4.360625 1.855625 -3.72125 1.71125 -3.0625 1.5625 C-1.02454854 1.18992819 -1.02454854 1.18992819 0 0 Z " fill="#8EA8B4" transform="translate(155,297)"/>
<path d="M0 0 C1.98 0.99 1.98 0.99 4 2 C4 2.99 4 3.98 4 5 C4.9590625 4.9071875 4.9590625 4.9071875 5.9375 4.8125 C10.23492674 5.07560776 13.97876168 6.52817421 18 8 C14.35968563 9.21343812 12.68930241 8.6723256 9 7.75 C7.948125 7.49734375 6.89625 7.2446875 5.8125 6.984375 C3.02471471 6.00865015 1.70037613 5.38524984 0 3 C0 2.01 0 1.02 0 0 Z " fill="#3EBD7C" transform="translate(223,266)"/>
<path d="M0 0 C2.96783129 1.45668783 5.86415313 3.01232086 8.75 4.625 C9.94882813 5.29402344 9.94882813 5.29402344 11.171875 5.9765625 C11.77515625 6.31429688 12.3784375 6.65203125 13 7 C13 8.32 13 9.64 13 11 C12.34 11 11.68 11 11 11 C11 10.34 11 9.68 11 9 C10.12601563 8.59974609 10.12601563 8.59974609 9.234375 8.19140625 C6.95523863 6.97613248 5.19537168 5.62930828 3.25 3.9375 C2.63640625 3.41027344 2.0228125 2.88304687 1.390625 2.33984375 C0.93171875 1.89769531 0.4728125 1.45554688 0 1 C0 0.67 0 0.34 0 0 Z " fill="#9ADFC0" transform="translate(196,251)"/>
<path d="M0 0 C2.64 0 5.28 0 8 0 C8 0.66 8 1.32 8 2 C6.948125 2.268125 5.89625 2.53625 4.8125 2.8125 C1.048764 3.8201548 1.048764 3.8201548 -1.8125 5.6875 C-2.534375 6.120625 -3.25625 6.55375 -4 7 C-4.66 6.67 -5.32 6.34 -6 6 C-4.71034824 4.62437146 -3.37310707 3.29233607 -2 2 C-1.34 2 -0.68 2 0 2 C0 1.34 0 0.68 0 0 Z " fill="#99AFBC" transform="translate(384,194)"/>
<path d="M0 0 C-1.375 1.5 -1.375 1.5 -3 3 C-3.66 3 -4.32 3 -5 3 C-5 3.66 -5 4.32 -5 5 C-5.66 5 -6.32 5 -7 5 C-7 5.66 -7 6.32 -7 7 C-8.65 7.66 -10.3 8.32 -12 9 C-7.2360515 0.4248927 -7.2360515 0.4248927 -4 -0.6875 C-2 -1 -2 -1 0 0 Z " fill="#9EB7C6" transform="translate(138,314)"/>
<path d="M0 0 C-0.370309 2.62582744 -0.68983419 3.73573316 -2.7421875 5.484375 C-3.44601563 5.90203125 -4.14984375 6.3196875 -4.875 6.75 C-5.92300781 7.39195312 -5.92300781 7.39195312 -6.9921875 8.046875 C-9 9 -9 9 -12 9 C-10.38050958 7.49405319 -8.75424026 5.99539332 -7.125 4.5 C-6.22007812 3.6646875 -5.31515625 2.829375 -4.3828125 1.96875 C-2 0 -2 0 0 0 Z " fill="#92AEBA" transform="translate(155,309)"/>
<path d="M0 0 C0.53625 0.28875 1.0725 0.5775 1.625 0.875 C4.35280484 2.16711808 7.12612718 3.08558592 10 4 C10.33 5.65 10.66 7.3 11 9 C8.03469503 7.64199529 5.70868729 6.07571737 3.25 3.9375 C2.63640625 3.41027344 2.0228125 2.88304687 1.390625 2.33984375 C0.93171875 1.89769531 0.4728125 1.45554688 0 1 C0 0.67 0 0.34 0 0 Z " fill="#8AD0BE" transform="translate(140,204)"/>
<path d="M0 0 C0.99 0 1.98 0 3 0 C3.33 0.99 3.66 1.98 4 3 C2.78515625 4.82421875 2.78515625 4.82421875 1.0625 6.6875 C0.49660156 7.31011719 -0.06929688 7.93273437 -0.65234375 8.57421875 C-1.09707031 9.04472656 -1.54179687 9.51523438 -2 10 C-2.66 9.67 -3.32 9.34 -4 9 C-3.34 7.68 -2.68 6.36 -2 5 C-1.34 5 -0.68 5 0 5 C-0.2784375 4.0409375 -0.2784375 4.0409375 -0.5625 3.0625 C-0.706875 2.381875 -0.85125 1.70125 -1 1 C-0.67 0.67 -0.34 0.34 0 0 Z " fill="#4DAB97" transform="translate(379,181)"/>
<path d="M0 0 C2.31 0.33 4.62 0.66 7 1 C7 1.66 7 2.32 7 3 C5.04072937 4.7143618 3.04119788 6.38405168 1 8 C0.34 7.67 -0.32 7.34 -1 7 C-0.67 5.68 -0.34 4.36 0 3 C0.66 3 1.32 3 2 3 C2 2.34 2 1.68 2 1 C1.34 0.67 0.68 0.34 0 0 Z " fill="#7697A7" transform="translate(139,305)"/>
<path d="M0 0 C0.66 0.33 1.32 0.66 2 1 C-0.88341534 5.21422242 -3.04303419 6.76075855 -8 8 C-8 8.99 -8 9.98 -8 11 C-8.99 11 -9.98 11 -11 11 C-11 10.34 -11 9.68 -11 9 C-10.34 9 -9.68 9 -9 9 C-9 8.34 -9 7.68 -9 7 C-7.35 6.34 -5.7 5.68 -4 5 C-4 4.34 -4 3.68 -4 3 C-2 1.375 -2 1.375 0 0 Z " fill="#9BB3C0" transform="translate(190,278)"/>
<path d="M0 0 C2 1 2 1 4 4 C4 4.99 4 5.98 4 7 C2.68 7 1.36 7 0 7 C0 6.34 0 5.68 0 5 C-0.99 4.67 -1.98 4.34 -3 4 C-2.01 2.68 -1.02 1.36 0 0 Z " fill="#26B674" transform="translate(195,242)"/>
<path d="M0 0 C0.66 0.33 1.32 0.66 2 1 C0.71034824 2.37562854 -0.62689293 3.70766393 -2 5 C-2.66 5 -3.32 5 -4 5 C-4 5.66 -4 6.32 -4 7 C-5.65 7.66 -7.3 8.32 -9 9 C-9 7.35 -9 5.7 -9 4 C-7.88625 3.71125 -6.7725 3.4225 -5.625 3.125 C-1.99708908 2.30758671 -1.99708908 2.30758671 0 0 Z " fill="#90D5BD" transform="translate(353,208)"/>
<path d="M0 0 C0.556875 0.28875 1.11375 0.5775 1.6875 0.875 C4.00808578 2.06620729 4.00808578 2.06620729 6.625 2.875 C9.46570594 4.22059755 9.87358321 5.1406343 11 8 C11.99 9.485 11.99 9.485 13 11 C10.05043472 9.63055898 7.47531189 8.12169591 5 6 C5 5.34 5 4.68 5 4 C4.360625 3.71125 3.72125 3.4225 3.0625 3.125 C1 2 1 2 0 0 Z " fill="#B2C4CD" transform="translate(323,280)"/>
<path d="M0 0 C0.99 0.33 1.98 0.66 3 1 C3 2.98 3 4.96 3 7 C2.01 7 1.02 7 0 7 C0 7.99 0 8.98 0 10 C-0.99 9.67 -1.98 9.34 -3 9 C-2 7 -1 5 0 3 C0 2.01 0 1.02 0 0 Z " fill="#13445E" transform="translate(188,259)"/>
<path d="M0 0 C0.99 0 1.98 0 3 0 C3 0.66 3 1.32 3 2 C3.886875 1.896875 4.77375 1.79375 5.6875 1.6875 C10.00684858 2.09498572 11.25642975 3.7722703 14 7 C13.15308594 6.5359375 13.15308594 6.5359375 12.2890625 6.0625 C9.27067329 4.66147293 6.27856191 4.16810454 3.0234375 3.5625 C1 3 1 3 -1 1 C-0.67 0.67 -0.34 0.34 0 0 Z " fill="#568596" transform="translate(139,220)"/>
<path d="M0 0 C2.046875 3.71875 2.046875 3.71875 1.625 6.25 C1.41875 6.8275 1.2125 7.405 1 8 C1.99 8.33 2.98 8.66 4 9 C4 9.66 4 10.32 4 11 C5.32 11.33 6.64 11.66 8 12 C5.125 12.125 5.125 12.125 2 12 C0 10 0 10 -0.1953125 7.6171875 C-0.17210938 6.71226562 -0.14890625 5.80734375 -0.125 4.875 C-0.10695313 3.96492188 -0.08890625 3.05484375 -0.0703125 2.1171875 C-0.04710938 1.41851562 -0.02390625 0.71984375 0 0 Z " fill="#1F4A5D" transform="translate(107,320)"/>
<path d="M0 0 C0.66 0.33 1.32 0.66 2 1 C1.51789063 1.39832031 1.03578125 1.79664063 0.5390625 2.20703125 C-0.09257812 2.73683594 -0.72421875 3.26664062 -1.375 3.8125 C-2.00148437 4.33457031 -2.62796875 4.85664063 -3.2734375 5.39453125 C-5.2221048 7.08225739 -5.2221048 7.08225739 -7 10 C-9.125 10.6875 -9.125 10.6875 -11 11 C-11 10.34 -11 9.68 -11 9 C-10.34 9 -9.68 9 -9 9 C-9 8.34 -9 7.68 -9 7 C-7.03125 5.2734375 -7.03125 5.2734375 -4.5 3.375 C-3.6646875 2.74335938 -2.829375 2.11171875 -1.96875 1.4609375 C-0.99421875 0.73777344 -0.99421875 0.73777344 0 0 Z " fill="#B4C7D4" transform="translate(177,289)"/>
<path d="M0 0 C0.66 0.33 1.32 0.66 2 1 C0.96368671 3.82630897 0.39919994 4.81090529 -2.375 6.125 C-3.24125 6.41375 -4.1075 6.7025 -5 7 C-6.34050052 7.65213539 -7.67661368 8.31379969 -9 9 C-6.21000549 5.51250686 -3.74764169 2.49842779 0 0 Z " fill="#98B0BD" transform="translate(164,300)"/>
<path d="M0 0 C-0.99 0.33 -1.98 0.66 -3 1 C-2.34 2.32 -1.68 3.64 -1 5 C-2.32 5 -3.64 5 -5 5 C-5.33 3.35 -5.66 1.7 -6 0 C-3.50907189 -1.24546405 -2.58919267 -0.7767578 0 0 Z " fill="#26987F" transform="translate(120,178)"/>
<path d="M0 0 C0.556875 0.28875 1.11375 0.5775 1.6875 0.875 C4.00238964 2.07361818 4.00238964 2.07361818 6.625 2.8125 C9 4 9 4 10.3125 6.625 C10.6528125 7.800625 10.6528125 7.800625 11 9 C9 8 7 7 5 6 C5 5.34 5 4.68 5 4 C4.360625 3.71125 3.72125 3.4225 3.0625 3.125 C1 2 1 2 0 0 Z " fill="#A1B7C1" transform="translate(310,269)"/>
<path d="M0 0 C0.99 0.33 1.98 0.66 3 1 C2.625 3.4375 2.625 3.4375 2 6 C1.01 6.495 1.01 6.495 0 7 C0 6.34 0 5.68 0 5 C-0.99 4.67 -1.98 4.34 -3 4 C-2.01 2.68 -1.02 1.36 0 0 Z " fill="#1B455E" transform="translate(370,208)"/>
<path d="M0 0 C2.86724686 0.57344937 3.8614515 0.8614515 6 3 C5.625 5.125 5.625 5.125 5 7 C4.67 6.34 4.34 5.68 4 5 C3.01 4.67 2.02 4.34 1 4 C0.3125 1.9375 0.3125 1.9375 0 0 Z " fill="#6A8091" transform="translate(369,330)"/>
<path d="M0 0 C0.66 0.33 1.32 0.66 2 1 C2 2.98 2 4.96 2 7 C1.34 7 0.68 7 0 7 C0 6.34 0 5.68 0 5 C-0.66 5 -1.32 5 -2 5 C-2 4.34 -2 3.68 -2 3 C-2.99 2.67 -3.98 2.34 -5 2 C-4.34 1.67 -3.68 1.34 -3 1 C-2.01 1.33 -1.02 1.66 0 2 C0 1.34 0 0.68 0 0 Z " fill="#6F8A9D" transform="translate(341,290)"/>
<path d="M0 0 C3.29456702 1.09818901 4.45501927 1.91003854 6 5 C5.34 5 4.68 5 4 5 C4 5.66 4 6.32 4 7 C2 7 2 7 0.3125 5.75 C-1 4 -1 4 -0.6875 1.8125 C-0.460625 1.214375 -0.23375 0.61625 0 0 Z " fill="#4D758B" transform="translate(155,290)"/>
<path d="M0 0 C7.75 1.875 7.75 1.875 10 3 C9.01 3.33 8.02 3.66 7 4 C7.33 4.99 7.66 5.98 8 7 C7.34 7 6.68 7 6 7 C6 6.34 6 5.68 6 5 C5.38125 4.731875 4.7625 4.46375 4.125 4.1875 C2 3 2 3 0 0 Z " fill="#899EAD" transform="translate(361,312)"/>
<path d="M0 0 C4.04420651 1.77945087 7.46078487 4.39529673 11 7 C10.67 7.66 10.34 8.32 10 9 C9.52949219 8.65066406 9.05898438 8.30132812 8.57421875 7.94140625 C7.95160156 7.48636719 7.32898438 7.03132813 6.6875 6.5625 C6.07261719 6.11003906 5.45773437 5.65757812 4.82421875 5.19140625 C2.90322899 3.82663692 2.90322899 3.82663692 0 3 C0 2.01 0 1.02 0 0 Z " fill="#B3C2CB" transform="translate(321,289)"/>
<path d="M0 0 C0.75 1.75 0.75 1.75 1 4 C-0.9375 6.25 -0.9375 6.25 -3 8 C-3.66 6.68 -4.32 5.36 -5 4 C-3.35 2.68 -1.7 1.36 0 0 Z " fill="#174962" transform="translate(343,231)"/>
<path d="M0 0 C0.99 0.33 1.98 0.66 3 1 C2.67 1.99 2.34 2.98 2 4 C-1.3 4 -4.6 4 -8 4 C-8 3.67 -8 3.34 -8 3 C-6.865625 2.690625 -5.73125 2.38125 -4.5625 2.0625 C-1.21224901 1.37075469 -1.21224901 1.37075469 0 0 Z " fill="#143750" transform="translate(371,339)"/>
<path d="M0 0 C0.66 0.33 1.32 0.66 2 1 C-0.97 3.475 -0.97 3.475 -4 6 C-6 3 -6 3 -6 1 C-4.7934375 1.0309375 -4.7934375 1.0309375 -3.5625 1.0625 C-1.06645115 1.29633621 -1.06645115 1.29633621 0 0 Z " fill="#7598AA" transform="translate(123,324)"/>
<path d="M0 0 C0.66 0.33 1.32 0.66 2 1 C0.8803014 2.00593243 -0.2459412 3.0045849 -1.375 4 C-2.00148437 4.556875 -2.62796875 5.11375 -3.2734375 5.6875 C-5 7 -5 7 -7 7 C-7 5.68 -7 4.36 -7 3 C-6.21625 2.87625 -5.4325 2.7525 -4.625 2.625 C-1.85942178 2.20882007 -1.85942178 2.20882007 0 0 Z " fill="#95AFBC" transform="translate(168,286)"/>
<path d="M0 0 C1.65 0 3.3 0 5 0 C5.66 1.98 6.32 3.96 7 6 C4.50638429 4.79618552 2.31856917 3.54571278 0 2 C0 1.34 0 0.68 0 0 Z " fill="#90A3AE" transform="translate(354,306)"/>
<path d="M0 0 C1.32 0 2.64 0 4 0 C4.33 1.32 4.66 2.64 5 4 C4.01 4.33 3.02 4.66 2 5 C1.34 4.67 0.68 4.34 0 4 C0 2.68 0 1.36 0 0 Z " fill="#249A7F" transform="translate(370,187)"/>
<path d="M0 0 C0.66 0.99 1.32 1.98 2 3 C0.68 4.32 -0.64 5.64 -2 7 C-3.32 6.34 -4.64 5.68 -6 5 C-5.01 5 -4.02 5 -3 5 C-3 4.01 -3 3.02 -3 2 C-2.01 1.34 -1.02 0.68 0 0 Z " fill="#1C4960" transform="translate(185,284)"/>
<path d="M0 0 C0.66 0.33 1.32 0.66 2 1 C0.625 2.5 0.625 2.5 -1 4 C-1.66 4 -2.32 4 -3 4 C-3 4.66 -3 5.32 -3 6 C-3.66 6 -4.32 6 -5 6 C-5.33 5.01 -5.66 4.02 -6 3 C-5.67 2.34 -5.34 1.68 -5 1 C-3.68 1 -2.36 1 -1 1 C-0.67 0.67 -0.34 0.34 0 0 Z " fill="#87A7B4" transform="translate(175,280)"/>
<path d="M0 0 C0.99 0.33 1.98 0.66 3 1 C3 1.66 3 2.32 3 3 C3.99 3.33 4.98 3.66 6 4 C6 4.66 6 5.32 6 6 C4.35 6 2.7 6 1 6 C0.67 4.02 0.34 2.04 0 0 Z " fill="#6D93A1" transform="translate(128,206)"/>
<path d="M0 0 C2.475 0.495 2.475 0.495 5 1 C5 1.99 5 2.98 5 4 C4.34 4 3.68 4 3 4 C2.67 4.66 2.34 5.32 2 6 C1.34 5.67 0.68 5.34 0 5 C0 3.35 0 1.7 0 0 Z " fill="#0C3856" transform="translate(352,319)"/>
<path d="M0 0 C0 3.10551666 -0.5393715 4.35261084 -2 7 C-2.66 6.67 -3.32 6.34 -4 6 C-2.84826645 3.53199953 -1.95216435 1.95216435 0 0 Z M-5 6 C-4.34 6.66 -3.68 7.32 -3 8 C-3.66 8 -4.32 8 -5 8 C-5 7.34 -5 6.68 -5 6 Z " fill="#1E4B65" transform="translate(143,319)"/>
<path d="M0 0 C0.99 0 1.98 0 3 0 C2.43628586 3.26954202 1.50037734 4.82575883 -1 7 C-1.66 6.67 -2.32 6.34 -3 6 C-2.34 5.34 -1.68 4.68 -1 4 C-0.3574765 1.93125966 -0.3574765 1.93125966 0 0 Z " fill="#809CA9" transform="translate(188,266)"/>
<path d="M0 0 C0.66 0 1.32 0 2 0 C2 0.66 2 1.32 2 2 C3.65 1.34 5.3 0.68 7 0 C6.34 1.32 5.68 2.64 5 4 C3.0625 3.6875 3.0625 3.6875 1 3 C0.67 2.01 0.34 1.02 0 0 Z " fill="#33BE7A" transform="translate(288,256)"/>
<path d="M0 0 C5.75 1.75 5.75 1.75 8 4 C7.67 4.66 7.34 5.32 7 6 C6.34 6 5.68 6 5 6 C5 5.34 5 4.68 5 4 C4.360625 3.71125 3.72125 3.4225 3.0625 3.125 C1 2 1 2 0 0 Z " fill="#9BD9C3" transform="translate(159,220)"/>
<path d="M0 0 C1.65 0 3.3 0 5 0 C5 0.66 5 1.32 5 2 C3.37373596 3.38232443 1.7074998 4.71937515 0 6 C-0.66 5.67 -1.32 5.34 -2 5 C-1.34 3.35 -0.68 1.7 0 0 Z " fill="#99D6C5" transform="translate(370,191)"/>
</svg>
