<?xml version="1.0" encoding="UTF-8"?>
<svg version="1.1" xmlns="http://www.w3.org/2000/svg" width="500" height="500">
<path d="M0 0 C0.33 0.99 0.66 1.98 1 3 C0.20078125 3.37769531 -0.5984375 3.75539062 -1.421875 4.14453125 C-17.38254886 12.14360137 -29.09544689 23.85293919 -35 41 C-35.391875 42.051875 -35.78375 43.10375 -36.1875 44.1875 C-37.12525383 47.43357096 -37.54113332 50.65682844 -38 54 C-39.70142866 55.70142866 -41.93220765 55.36673285 -44.21826172 55.59472656 C-62.10838956 57.40115559 -75.91153608 64.81240382 -88.0078125 78.2265625 C-98.98464414 91.67436923 -102.10069018 106.85240564 -101 124 C-100.07138402 132.16264911 -97.62791614 140.6453476 -93.37109375 147.69921875 C-92 150 -92 150 -92 152 C-91.34 152 -90.68 152 -90 152 C-89.07478427 153.40495722 -88.15220685 154.8117149 -87.2421875 156.2265625 C-79.19167117 167.72006695 -65.04844698 175.20563447 -51.5 177.625 C-34.61503125 179.3852091 -19.34012125 177.51015874 -5 168 C-2.454507 165.92589459 -0.05414341 163.7987636 2.29296875 161.50390625 C4 160 4 160 6 160 C6.26039063 159.44570313 6.52078125 158.89140625 6.7890625 158.3203125 C8.15290929 155.70700607 9.73830928 153.32646252 11.375 150.875 C21.34620879 135.21482353 23.1534291 119.33568514 20.453125 101.359375 C18.68429762 88.2456548 21.3497775 75.98897546 29.3125 65.3125 C37.39635845 55.43987288 46.52183869 50.55763555 59 48 C60.32 48 61.64 48 63 48 C64.96484375 50.4921875 64.96484375 50.4921875 66.9375 53.875 C67.28522461 54.46853271 67.63294922 55.06206543 67.99121094 55.67358398 C69.01416151 57.4385774 70.01148333 59.21553484 71 61 C71.49113281 61.88042969 71.98226562 62.76085937 72.48828125 63.66796875 C86.61754596 90.482951 87.45860183 124.29771421 79.31640625 153.05078125 C75.88889336 163.78923613 70.85488965 173.94422612 65.125 183.625 C64.74384033 184.27082031 64.36268066 184.91664063 63.9699707 185.58203125 C63.04107359 187.09396619 62.02816737 188.55373967 61 190 C60.34 190 59.68 190 59 190 C58.814375 190.66 58.62875 191.32 58.4375 192 C56.39191226 196.26905268 53.42815357 199.74163706 50 203 C49.34 203 48.68 203 48 203 C48 203.66 48 204.32 48 205 C47.34 205 46.68 205 46 205 C46 205.66 46 206.32 46 207 C41.52941176 211 41.52941176 211 39 211 C39 211.66 39 212.32 39 213 C37.53808594 214.23339844 37.53808594 214.23339844 35.484375 215.609375 C34.73406006 216.11388184 33.98374512 216.61838867 33.21069336 217.13818359 C32.39866455 217.67008301 31.58663574 218.20198242 30.75 218.75 C29.92314697 219.29350098 29.09629395 219.83700195 28.24438477 220.39697266 C7.00515341 234.18126484 -14.86939604 240.20756061 -40.0625 240.375 C-41.07426804 240.38705475 -41.07426804 240.38705475 -42.10647583 240.39935303 C-69.06015386 240.64255888 -92.85631767 230.76245488 -115 216 C-115 215.34 -115 214.68 -115 214 C-115.87205078 213.60361328 -115.87205078 213.60361328 -116.76171875 213.19921875 C-120.67807594 211.10092615 -123.74762984 207.99463516 -127 205 C-127.58007812 204.4740625 -128.16015625 203.948125 -128.7578125 203.40625 C-143.43095257 189.48382873 -154.29405945 170.58176604 -159 151 C-159.350625 149.80375 -159.70125 148.6075 -160.0625 147.375 C-168.42063733 117.2857056 -163.73946756 84.99996554 -148.78759766 57.79394531 C-145.70697384 52.41106295 -142.44040282 47.16060423 -139 42 C-138.34 42 -137.68 42 -137 42 C-136.690625 41.38125 -136.38125 40.7625 -136.0625 40.125 C-135.375 38.75 -134.6875 37.375 -134 36 C-133.34 36 -132.68 36 -132 36 C-131.72929687 35.40574219 -131.45859375 34.81148437 -131.1796875 34.19921875 C-127.02225324 26.44877011 -118.15475198 20.78792962 -111 16 C-110.34 16 -109.68 16 -109 16 C-109 15.34 -109 14.68 -109 14 C-108.01 14 -107.02 14 -106 14 C-106 13.34 -106 12.68 -106 12 C-74.18033378 -4.46126507 -34.74246497 -14.88962785 0 0 Z " fill="#092F4E" transform="translate(290,133)"/>
<path d="M0 0 C1.96484375 2.4921875 1.96484375 2.4921875 3.9375 5.875 C4.28522461 6.46853271 4.63294922 7.06206543 4.99121094 7.67358398 C6.01416151 9.4385774 7.01148333 11.21553484 8 13 C8.49113281 13.88042969 8.98226562 14.76085937 9.48828125 15.66796875 C18.07423916 31.96268144 21.21813563 50.25471592 21.0625 68.5 C21.05798828 69.51320313 21.05347656 70.52640625 21.04882812 71.5703125 C21.03714593 74.04693827 21.02076582 76.52343657 21 79 C20.01 79.33 19.02 79.66 18 80 C17.27517354 81.97966438 16.61780799 83.98437163 16 86 C11.00045237 95.77484114 4.86156866 104.35090617 -3 112 C-3.556875 112.78375 -4.11375 113.5675 -4.6875 114.375 C-8.22502562 118.39056963 -12.5560276 121.06256576 -17 124 C-17.83660156 124.58007812 -18.67320312 125.16015625 -19.53515625 125.7578125 C-41.13382305 140.2872324 -67.09264264 145.62443469 -92.84765625 142.5390625 C-102.47103117 140.62564292 -111.75559516 137.23868605 -121 134 C-121 133.34 -121 132.68 -121 132 C-121.763125 131.71125 -122.52625 131.4225 -123.3125 131.125 C-126 130 -126 130 -129 128 C-129 127.34 -129 126.68 -129 126 C-128.29875 126.20496094 -127.5975 126.40992188 -126.875 126.62109375 C-109.37696635 131.58996472 -90.76229431 132.2442769 -74.1875 123.8125 C-69.11874283 120.91252646 -64.87699349 117.58103074 -60.70703125 113.50390625 C-59 112 -59 112 -57 112 C-56.73960937 111.44570313 -56.47921875 110.89140625 -56.2109375 110.3203125 C-54.84709071 107.70700607 -53.26169072 105.32646252 -51.625 102.875 C-41.65379121 87.21482353 -39.8465709 71.33568514 -42.546875 53.359375 C-44.31570238 40.2456548 -41.6502225 27.98897546 -33.6875 17.3125 C-25.2091746 6.95811962 -13.73900847 0 0 0 Z " fill="#038567" transform="translate(353,181)"/>
<path d="M0 0 C6.11337689 5.6783008 9.549054 10.4153823 10.375 18.8125 C10.10886416 26.16625359 6.96271678 31.45935174 1.6875 36.4375 C-3.48767557 40.675572 -7.80261005 42.31027898 -14.5 41.8125 C-22.52977879 40.57610428 -27.17581619 37.51888365 -32.328125 31.328125 C-36.05955121 26.13202681 -36.39930239 21.31099132 -35.45703125 15.19140625 C-33.77762058 7.1388474 -29.52233907 2.68382739 -23 -2 C-15.42725764 -5.38068855 -7.06816313 -4.11238582 0 0 Z " fill="#0B886B" transform="translate(263,231)"/>
<path d="M0 0 C0.66 0 1.32 0 2 0 C2.18451025 9.41002278 2.18451025 9.41002278 1 14 C-1.475 13.01 -1.475 13.01 -4 12 C-4.20625 12.66 -4.4125 13.32 -4.625 14 C-6.49463306 18.07919941 -8.96134606 21.69072803 -12 25 C-12.99 25.33 -13.98 25.66 -15 26 C-13.966964 23.67566899 -12.90311905 21.88581888 -11.25 19.9375 C-6.61844807 13.89075165 -3.32615107 6.83708831 0 0 Z " fill="#033D4B" transform="translate(371,261)"/>
<path d="M0 0 C0.97900269 0.30417847 0.97900269 0.30417847 1.9777832 0.61450195 C9.05597927 2.69470409 15.8417505 3.67391007 23.1875 4.1875 C24.23486328 4.26935547 25.28222656 4.35121094 26.36132812 4.43554688 C28.90699267 4.63315554 31.45295989 4.82116459 34 5 C33.67 5.66 33.34 6.32 33 7 C29.00039101 7.14638209 25.00147942 7.23443323 21 7.3125 C19.87464844 7.35439453 18.74929687 7.39628906 17.58984375 7.43945312 C11.07988222 7.534628 6.68611528 7.05675371 1.29296875 3.27807617 C0.86628906 2.85631104 0.43960938 2.4345459 0 2 C0 1.34 0 0.68 0 0 Z " fill="#379582" transform="translate(224,307)"/>
<path d="M0 0 C0.66 0.33 1.32 0.66 2 1 C1.2575 1.721875 0.515 2.44375 -0.25 3.1875 C-2.9872109 5.87178923 -2.9872109 5.87178923 -5 8.625 C-7.12239247 11.14534106 -9.15888304 12.38747416 -12 14 C-12.33 14.66 -12.66 15.32 -13 16 C-16.0625 16.625 -16.0625 16.625 -19 17 C-13.67766322 10.00492881 -7.01562037 5.17323935 0 0 Z " fill="#446077" transform="translate(179,149)"/>
<path d="M0 0 C0.66 0 1.32 0 2 0 C5.47903402 7.75563315 8.65274637 15.55904361 10 24 C9.67 24.66 9.34 25.32 9 26 C8.73445313 25.28972656 8.46890625 24.57945312 8.1953125 23.84765625 C7.84210938 22.92855469 7.48890625 22.00945312 7.125 21.0625 C6.77695312 20.14597656 6.42890625 19.22945312 6.0703125 18.28515625 C5.2180914 15.85058944 5.2180914 15.85058944 3 15 C2.40234375 12.96875 2.40234375 12.96875 1.9375 10.5 C1.54135157 7.46226779 1.54135157 7.46226779 0 5 C-0.04063832 3.33382885 -0.042721 1.66611905 0 0 Z " fill="#328D79" transform="translate(361,198)"/>
<path d="M0 0 C5.74124781 0.50361823 11.34715338 1.38234993 17 2.5 C17.6710376 2.63059814 18.3420752 2.76119629 19.03344727 2.89575195 C23.87623091 3.87623091 23.87623091 3.87623091 25 5 C26.51469448 5.23192865 28.03754562 5.41215238 29.5625 5.5625 C30.38878906 5.64628906 31.21507812 5.73007812 32.06640625 5.81640625 C32.70449219 5.87699219 33.34257812 5.93757813 34 6 C34 6.33 34 6.66 34 7 C22.31764974 7.74217284 10.91140547 5.01999149 0 1 C0 0.67 0 0.34 0 0 Z " fill="#4B667A" transform="translate(210,366)"/>
<path d="M0 0 C0.66 0.33 1.32 0.66 2 1 C-4.98642453 8.68506698 -14.48639649 14.90386515 -24 19 C-24.66 18.67 -25.32 18.34 -26 18 C-25.360625 17.896875 -24.72125 17.79375 -24.0625 17.6875 C-23.0415625 17.3471875 -23.0415625 17.3471875 -22 17 C-21.67 16.01 -21.34 15.02 -21 14 C-17.16449568 11.77005563 -13.22903599 10.30898733 -9 9 C-9 8.34 -9 7.68 -9 7 C-4.64705882 3 -4.64705882 3 -1 3 C-0.67 2.01 -0.34 1.02 0 0 Z " fill="#0B776A" transform="translate(346,294)"/>
<path d="M0 0 C0.33 0 0.66 0 1 0 C1 1.98 1 3.96 1 6 C0.401875 6.28875 -0.19625 6.5775 -0.8125 6.875 C-5.83096429 9.45592449 -6.98091565 11.80806882 -9 17 C-10.65 17 -12.3 17 -14 17 C-13.43867066 13.4628562 -12.30442253 12.00738321 -9.5625 9.75 C-8.94503906 9.22921875 -8.32757813 8.7084375 -7.69140625 8.171875 C-6 7 -6 7 -4 7 C-3.71125 6.401875 -3.4225 5.80375 -3.125 5.1875 C-2 3 -2 3 0 0 Z " fill="#4CA08E" transform="translate(300,286)"/>
<path d="M0 0 C-5.10919624 3.40613083 -10.81147183 3.12529276 -16.80859375 3.09765625 C-18.04931641 3.09443359 -19.29003906 3.09121094 -20.56835938 3.08789062 C-21.84517578 3.07951172 -23.12199219 3.07113281 -24.4375 3.0625 C-26.39333008 3.05573242 -26.39333008 3.05573242 -28.38867188 3.04882812 C-31.59249552 3.03709251 -34.79622363 3.02067363 -38 3 C-38 2.67 -38 2.34 -38 2 C-37.43192627 1.98018066 -36.86385254 1.96036133 -36.27856445 1.93994141 C-21.30880868 1.39663325 -21.30880868 1.39663325 -6.49609375 -0.6953125 C-3.98952513 -1.00127862 -2.3754029 -0.79366403 0 0 Z " fill="#01434D" transform="translate(302,322)"/>
<path d="M0 0 C0.33 0 0.66 0 1 0 C1 2.64 1 5.28 1 8 C0.34 8 -0.32 8 -1 8 C-1.2578125 8.85980469 -1.515625 9.71960938 -1.78125 10.60546875 C-3.04208635 14.11722128 -4.61100831 17.09881286 -6.5 20.3125 C-7.1084375 21.36050781 -7.716875 22.40851563 -8.34375 23.48828125 C-10 26 -10 26 -12 27 C-10.67347117 20.93586823 -7.68995619 15.91994158 -4 11 C-3.65772583 9.66893378 -3.32248257 8.33599921 -3 7 C-2.34 6.67 -1.68 6.34 -1 6 C-0.34227572 2.97065509 -0.34227572 2.97065509 0 0 Z " fill="#0D7368" transform="translate(372,253)"/>
<path d="M0 0 C2.44243215 3.66364822 2.19418294 6.34465561 2.0625 10.5625 C1.73429477 15.42334712 1.73429477 15.42334712 3 20 C2.67 20.66 2.34 21.32 2 22 C0 21 0 21 -1 20 C-1.01662231 18.5086609 -0.963192 17.01639195 -0.87890625 15.52734375 C-0.83056641 14.62822266 -0.78222656 13.72910156 -0.73242188 12.80273438 C-0.67634766 11.85720703 -0.62027344 10.91167969 -0.5625 9.9375 C-0.51029297 8.98810547 -0.45808594 8.03871094 -0.40429688 7.06054688 C-0.27418642 4.70673048 -0.13920888 2.35329301 0 0 Z " fill="#1E8670" transform="translate(313,240)"/>
<path d="M0 0 C6.35714175 -0.30272104 12.27553642 -0.10501038 18 3 C18.33 3.99 18.66 4.98 19 6 C17.02 6.66 15.04 7.32 13 8 C13.33 6.68 13.66 5.36 14 4 C9.38 3.34 4.76 2.68 0 2 C0 1.34 0 0.68 0 0 Z " fill="#334B62" transform="translate(272,130)"/>
<path d="M0 0 C0.33 0 0.66 0 1 0 C1 7.26 1 14.52 1 22 C0.67 22 0.34 22 0 22 C-0.39096459 19.27227014 -0.76316706 16.54411534 -1.125 13.8125 C-1.23714844 13.04357422 -1.34929687 12.27464844 -1.46484375 11.48242188 C-2.03355298 7.06544686 -2.197359 4.06104497 0 0 Z " fill="#5AA396" transform="translate(373,238)"/>
<path d="M0 0 C1.3357457 3.77371512 0.72408671 6.85831347 0.0625 10.75 C-0.13214844 11.92046875 -0.32679688 13.0909375 -0.52734375 14.296875 C-0.68332031 15.18890625 -0.83929688 16.0809375 -1 17 C-1.99 17.33 -2.98 17.66 -4 18 C-3.48914188 11.56318772 -2.27057103 6.04057576 0 0 Z " fill="#4F6878" transform="translate(133,209)"/>
<path d="M0 0 C0 0.99 0 1.98 0 3 C-2.77627845 5.67345333 -5.2241456 6.47557578 -9 7 C-9 7.99 -9 8.98 -9 10 C-10.32 9.67 -11.64 9.34 -13 9 C-8.9096916 5.26063522 -5.13217903 2.25315177 0 0 Z " fill="#53A594" transform="translate(336,185)"/>
<path d="M0 0 C1.97566188 1.97566188 2.89579072 3.52337094 4.125 6 C4.47820312 6.70125 4.83140625 7.4025 5.1953125 8.125 C6 10 6 10 6 12 C6.66 12 7.32 12 8 12 C7.67 12.66 7.34 13.32 7 14 C5.68 14 4.36 14 3 14 C2.814375 12.63875 2.814375 12.63875 2.625 11.25 C2.17190136 8.10451321 2.17190136 8.10451321 0.9375 5.875 C0 4 0 4 0 0 Z " fill="#4C6379" transform="translate(192,273)"/>
<path d="M0 0 C0.66 0 1.32 0 2 0 C1.62671065 5.35048061 0.0042343 7.50912907 -4 11 C-4.36997319 5.45040214 -4.36997319 5.45040214 -2.5625 3.25 C-2.046875 2.8375 -1.53125 2.425 -1 2 C-0.67 1.34 -0.34 0.68 0 0 Z " fill="#3D9982" transform="translate(270,254)"/>
<path d="M0 0 C2.17622725 2.64932013 3.38686173 4.62773954 4 8 C4.185625 8.9075 4.37125 9.815 4.5625 10.75 C4.706875 11.4925 4.85125 12.235 5 13 C4.01 13.66 3.02 14.32 2 15 C0.73694665 9.92523206 -0.27036084 5.27203646 0 0 Z " fill="#4E657E" transform="translate(128,268)"/>
<path d="M0 0 C6.875 0.875 6.875 0.875 8 2 C9.51469448 2.23192865 11.03754562 2.41215238 12.5625 2.5625 C13.38878906 2.64628906 14.21507812 2.73007812 15.06640625 2.81640625 C15.70449219 2.87699219 16.34257812 2.93757813 17 3 C17 3.33 17 3.66 17 4 C11.21408489 4.10477512 5.70690634 3.99250545 0 3 C0 2.01 0 1.02 0 0 Z " fill="#667D8C" transform="translate(227,369)"/>
<path d="M0 0 C-0.57344937 2.86724686 -0.8614515 3.8614515 -3 6 C-4.32 6 -5.64 6 -7 6 C-6.6875 4.125 -6.6875 4.125 -6 2 C-3 0 -3 0 0 0 Z " fill="#308F78" transform="translate(293,297)"/>
<path d="M0 0 C2.375 -0.1875 2.375 -0.1875 5 0 C5.66 0.99 6.32 1.98 7 3 C7.99 3.66 8.98 4.32 10 5 C10.33 5.99 10.66 6.98 11 8 C8.525 7.01 8.525 7.01 6 6 C6 5.34 6 4.68 6 4 C5.38125 3.71125 4.7625 3.4225 4.125 3.125 C2 2 2 2 0 0 Z " fill="#4A6477" transform="translate(169,343)"/>
<path d="M0 0 C0.33 0 0.66 0 1 0 C1.19294408 4.82360189 0.75747614 8.49646738 -1 13 C-1.33 13 -1.66 13 -2 13 C-2.05391993 11.20866022 -2.09275571 9.41686101 -2.125 7.625 C-2.14820313 6.62726563 -2.17140625 5.62953125 -2.1953125 4.6015625 C-2 2 -2 2 0 0 Z " fill="#365069" transform="translate(369,277)"/>
<path d="M0 0 C0.33 0.99 0.66 1.98 1 3 C0.01 3.33 -0.98 3.66 -2 4 C-2.309375 4.99 -2.61875 5.98 -2.9375 7 C-3.288125 7.99 -3.63875 8.98 -4 10 C-6.125 10.875 -6.125 10.875 -8 11 C-8 10.34 -8 9.68 -8 9 C-7.34 9 -6.68 9 -6 9 C-5.690625 8.38125 -5.38125 7.7625 -5.0625 7.125 C-4.375 5.75 -3.6875 4.375 -3 3 C-2.34 3 -1.68 3 -1 3 C-0.67 2.01 -0.34 1.02 0 0 Z " fill="#576F7F" transform="translate(159,166)"/>
<path d="M0 0 C0 0.66 0 1.32 0 2 C-1.134375 2.12375 -2.26875 2.2475 -3.4375 2.375 C-5.2009375 2.684375 -5.2009375 2.684375 -7 3 C-7.33 3.66 -7.66 4.32 -8 5 C-10.475 4.01 -10.475 4.01 -13 3 C-13 2.67 -13 2.34 -13 2 C-8.46298506 0.54815522 -4.81938524 -0.23509196 0 0 Z " fill="#314D60" transform="translate(226,130)"/>
<path d="M0 0 C2.78637633 4.1795645 1.79562512 6.14668677 1 11 C-1 10 -1 10 -1.75 7.75 C-2.03830777 4.57861448 -1.37610249 2.83315218 0 0 Z " fill="#37556B" transform="translate(371,264)"/>
<path d="M0 0 C0.99 0.495 0.99 0.495 2 1 C2 1.99 2 2.98 2 4 C2.99 4 3.98 4 5 4 C5.33 5.98 5.66 7.96 6 10 C2.46413986 6.82679218 0.41421969 4.83256305 0 0 Z " fill="#479E89" transform="translate(229,256)"/>
<path d="M0 0 C3.93774177 -0.36630156 5.56539771 -0.30233203 8.875 2 C9.926875 2.99 9.926875 2.99 11 4 C8 5 8 5 5.95703125 4.22265625 C5.24933594 3.83980469 4.54164063 3.45695312 3.8125 3.0625 C3.09707031 2.68222656 2.38164062 2.30195313 1.64453125 1.91015625 C1.10183594 1.60980469 0.55914062 1.30945313 0 1 C0 0.67 0 0.34 0 0 Z " fill="#4C6676" transform="translate(191,358)"/>
<path d="M0 0 C0.66 0 1.32 0 2 0 C1.67 1.65 1.34 3.3 1 5 C-0.98 5.66 -2.96 6.32 -5 7 C-4.21654285 5.82780457 -3.42297164 4.66236332 -2.625 3.5 C-2.18414062 2.8503125 -1.74328125 2.200625 -1.2890625 1.53125 C-0.65097656 0.77328125 -0.65097656 0.77328125 0 0 Z " fill="#02424C" transform="translate(353,288)"/>
<path d="M0 0 C0.66 0 1.32 0 2 0 C3.06775224 1.96466413 4.06553465 3.96855359 5 6 C4 8 4 8 2 9 C0.14223235 5.86501708 -0.20140476 3.62528568 0 0 Z " fill="#3E9483" transform="translate(361,198)"/>
<path d="M0 0 C1 2 1 2 0.44140625 3.9453125 C0.15136719 4.66460937 -0.13867188 5.38390625 -0.4375 6.125 C-0.72496094 6.84945312 -1.01242188 7.57390625 -1.30859375 8.3203125 C-1.53675781 8.87460938 -1.76492187 9.42890625 -2 10 C-2.99 10 -3.98 10 -5 10 C-3.66511872 6.40608886 -2.03977277 3.24509304 0 0 Z " fill="#4B5F72" transform="translate(146,183)"/>
<path d="M0 0 C0.33 0.66 0.66 1.32 1 2 C0.34 2 -0.32 2 -1 2 C-1.268125 2.78375 -1.53625 3.5675 -1.8125 4.375 C-3 7 -3 7 -6 9 C-5.67 7.02 -5.34 5.04 -5 3 C-4.01 3 -3.02 3 -2 3 C-2 2.34 -2 1.68 -2 1 C-1.34 0.67 -0.68 0.34 0 0 Z " fill="#5A707E" transform="translate(350,321)"/>
<path d="M0 0 C0.66 0.33 1.32 0.66 2 1 C2.59355614 3.64860427 2.74209269 6.29197322 3 9 C1.68 8.34 0.36 7.68 -1 7 C-0.67 4.69 -0.34 2.38 0 0 Z " fill="#218E72" transform="translate(236,260)"/>
<path d="M0 0 C3.2542015 2.83430453 4.5206753 4.68607774 5 9 C3.68 8.67 2.36 8.34 1 8 C0.67 5.36 0.34 2.72 0 0 Z " fill="#2C917D" transform="translate(267,236)"/>
<path d="M0 0 C2.475 0.99 2.475 0.99 5 2 C5 2.66 5 3.32 5 4 C3.02 4.66 1.04 5.32 -1 6 C-0.67 4.02 -0.34 2.04 0 0 Z " fill="#677988" transform="translate(286,132)"/>
<path d="M0 0 C0.33 0 0.66 0 1 0 C1 2.31 1 4.62 1 7 C0.34 7 -0.32 7 -1 7 C-1.33 7.99 -1.66 8.98 -2 10 C-3.39195915 5.82412255 -1.82323219 3.86525224 0 0 Z " fill="#52A595" transform="translate(314,207)"/>
<path d="M0 0 C1.32 0 2.64 0 4 0 C3.34 2.64 2.68 5.28 2 8 C-0.1519437 4.77208445 -0.20086443 3.71599191 0 0 Z " fill="#4C6378" transform="translate(252,170)"/>
<path d="M0 0 C0.66 0.33 1.32 0.66 2 1 C-0.57784846 3.64752004 -2.91648098 5.94432065 -6 8 C-4.73058503 4.08597051 -3.48832306 2.20927127 0 0 Z " fill="#2C495E" transform="translate(179,149)"/>
<path d="M0 0 C4.455 0.99 4.455 0.99 9 2 C7.68 2.99 6.36 3.98 5 5 C2.5 3.625 2.5 3.625 0 2 C0 1.34 0 0.68 0 0 Z " fill="#488584" transform="translate(224,307)"/>
</svg>
