<?xml version="1.0" encoding="UTF-8"?>
<svg version="1.1" xmlns="http://www.w3.org/2000/svg" width="500" height="500">
<path d="M0 0 C0.89820465 -0.00029205 1.7964093 -0.00058411 2.72183228 -0.00088501 C5.67614569 0.00050285 8.63020357 0.01603847 11.58447266 0.03173828 C13.63855858 0.03547034 15.69264628 0.0383164 17.74673462 0.04031372 C23.14228261 0.04793495 28.53772224 0.06757051 33.93322754 0.08972168 C39.44326308 0.11021263 44.95331621 0.11932239 50.46337891 0.12939453 C61.26681183 0.1508178 72.07016447 0.18493554 82.87353516 0.22705078 C82.87353516 3.74471117 81.91945399 5.70721665 80.49853516 8.91455078 C74.59646444 22.84676279 73.94623813 37.2092091 72.87353516 52.22705078 C55.71353516 52.22705078 38.55353516 52.22705078 20.87353516 52.22705078 C20.87353516 65.09705078 20.87353516 77.96705078 20.87353516 91.22705078 C24.54349609 91.21544922 28.21345703 91.20384766 31.99462891 91.19189453 C35.53246982 91.18410526 39.0703098 91.17802776 42.6081543 91.17211914 C45.07495549 91.16707722 47.54175368 91.16024388 50.00854492 91.15161133 C53.54558044 91.13953953 57.08257661 91.13382122 60.61962891 91.12939453 C61.73003036 91.12423325 62.84043182 91.11907196 63.98448181 91.11375427 C65.51595604 91.11364098 65.51595604 91.11364098 67.07836914 91.11352539 C67.98215805 91.11130478 68.88594696 91.10908417 69.81712341 91.10679626 C71.87353516 91.22705078 71.87353516 91.22705078 72.87353516 92.22705078 C73.15339782 95.44759162 73.10539482 98.68330364 73.12353516 101.91455078 C73.14416016 102.81367188 73.16478516 103.71279297 73.18603516 104.63916016 C73.22429804 111.15819831 72.22643222 115.41875429 67.93603516 120.53955078 C60.07134876 124.87315349 48.59518442 123.38637365 39.80322266 123.39501953 C37.99979904 123.40001213 37.99979904 123.40001213 36.15994263 123.40510559 C33.63723123 123.41013352 31.11451328 123.41251521 28.59179688 123.41235352 C24.75200454 123.4145488 20.91249593 123.43277296 17.07275391 123.45166016 C14.60791113 123.45459328 12.143067 123.45657862 9.67822266 123.45751953 C8.54254852 123.46470505 7.40687439 123.47189056 6.23678589 123.47929382 C-4.89184788 123.44764042 -14.16069132 122.48261317 -22.75146484 114.91455078 C-32.05608045 104.38564365 -32.44153711 94.93088069 -32.42724609 81.23095703 C-32.43114004 79.67211291 -32.43547614 78.11326983 -32.44023132 76.5544281 C-32.44766479 73.2973994 -32.44742302 70.04047915 -32.44213867 66.78344727 C-32.4363448 62.62995403 -32.45328681 58.47690684 -32.47648335 54.32348728 C-32.4912839 51.10708565 -32.49208388 47.89078993 -32.48897362 44.67436028 C-32.48948356 43.1439011 -32.49465915 41.61343548 -32.50478554 40.08300972 C-32.56480472 29.74586056 -32.1333765 20.96597382 -26.06396484 12.16455078 C-25.55736328 11.41044922 -25.05076172 10.65634766 -24.52880859 9.87939453 C-24.06603516 9.33412109 -23.60326172 8.78884766 -23.12646484 8.22705078 C-22.46646484 8.22705078 -21.80646484 8.22705078 -21.12646484 8.22705078 C-21.12646484 7.56705078 -21.12646484 6.90705078 -21.12646484 6.22705078 C-14.25970516 0.99523388 -8.35398246 -0.07162276 0 0 Z " fill="#2E5873" transform="translate(164.12646484375,129.77294921875)"/>
<path d="M0 0 C0.71603897 -0.00846954 1.43207794 -0.01693909 2.16981506 -0.02566528 C4.53510364 -0.04904467 6.89974134 -0.05005671 9.26513672 -0.04882812 C10.91698464 -0.05593306 12.5688301 -0.06363254 14.22067261 -0.07189941 C17.68575895 -0.08534918 21.15061751 -0.08691256 24.61572266 -0.08105469 C29.03405614 -0.07518126 33.45128213 -0.10564863 37.86940193 -0.14617157 C41.28404522 -0.17216654 44.69842679 -0.17491495 48.11315536 -0.17127991 C49.7404952 -0.17296254 51.36784826 -0.18252178 52.99509048 -0.20042419 C62.24733477 -0.29095546 69.87849085 0.03200833 77.81982422 5.41992188 C77.81982422 6.07992187 77.81982422 6.73992187 77.81982422 7.41992188 C78.37669922 7.60554687 78.93357422 7.79117188 79.50732422 7.98242188 C84.76757264 11.25230603 87.18060371 16.62347409 88.81982422 22.41992188 C89.01173996 24.98725204 89.11375681 27.44574315 89.11035156 30.01074219 C89.11706879 30.74658035 89.12378601 31.48241852 89.13070679 32.24055481 C89.14961702 34.65978862 89.15360771 37.07874386 89.15576172 39.49804688 C89.16219555 41.19187531 89.16892434 42.88570265 89.17593384 44.57952881 C89.18788994 48.12677585 89.19161649 51.67392564 89.19042969 55.22119141 C89.19022684 59.74466122 89.2175011 64.2675004 89.25197411 68.79082108 C89.27432324 72.28949795 89.27826475 75.78802513 89.27721024 79.28676605 C89.27955522 80.95317503 89.28831595 82.61958883 89.30387497 84.28592682 C89.40343528 96.05203423 88.7058418 106.04079981 80.34716797 115.08007812 C78.34815902 116.83368444 76.38067757 117.74204893 73.81982422 118.41992188 C73.81982422 119.07992187 73.81982422 119.73992187 73.81982422 120.41992188 C67.55088702 122.88395859 62.15767404 123.84895375 55.44458008 123.76049805 C54.11124634 123.76115517 54.11124634 123.76115517 52.75097656 123.76182556 C49.84530818 123.75975404 46.94023416 123.73650105 44.03466797 123.71289062 C42.00729182 123.70728884 39.97991158 123.70302149 37.95252991 123.70002747 C32.64080407 123.68862459 27.32932799 123.6591969 22.0177002 123.62591553 C16.5878436 123.59511605 11.15794629 123.58150108 5.72802734 123.56640625 C-4.90814953 123.53432261 -15.54414181 123.48318179 -26.18017578 123.41992188 C-26.18017578 119.95882218 -25.3022681 118.26795106 -23.80517578 115.16992188 C-17.27100278 101.07083308 -17.04384428 86.96595487 -16.18017578 71.41992188 C0.97982422 71.41992188 18.13982422 71.41992188 35.81982422 71.41992188 C35.81982422 58.21992188 35.81982422 45.01992188 35.81982422 31.41992188 C18.98982422 31.41992188 2.15982422 31.41992188 -15.18017578 31.41992188 C-15.18017578 7.52544006 -15.18017578 7.52544006 -9.37893677 1.57116699 C-6.20550573 -0.09040378 -3.57103265 0.02324648 0 0 Z " fill="#1EAE7C" transform="translate(279.18017578125,247.580078125)"/>
<path d="M0 0 C0.71297241 -0.00992981 1.42594482 -0.01985962 2.16052246 -0.03009033 C4.51061943 -0.05920582 6.86044592 -0.0729196 9.21069336 -0.08398438 C10.01857237 -0.08963913 10.82645138 -0.09529388 11.65881157 -0.10112 C15.93905816 -0.13106278 20.2191708 -0.14954416 24.49951172 -0.15820312 C28.89194391 -0.16913108 33.28312305 -0.21710589 37.67516422 -0.27414703 C41.07699481 -0.31166359 44.47853243 -0.321825 47.88055229 -0.32487488 C49.49790694 -0.33087587 51.1152597 -0.34675454 52.73240852 -0.37324524 C63.01392352 -0.52956646 70.832472 0.61836244 79.73803711 6.32226562 C79.73803711 6.98226562 79.73803711 7.64226562 79.73803711 8.32226562 C80.34389648 8.57492188 80.94975586 8.82757813 81.57397461 9.08789062 C84.03644442 10.49247629 84.91491229 11.6618385 86.36303711 14.07226562 C86.76780273 14.72710937 87.17256836 15.38195312 87.58959961 16.05664062 C90.58182608 21.95967244 91.02004327 27.05914108 90.96508789 33.54052734 C90.96537994 34.44848557 90.965672 35.35644379 90.9659729 36.29191589 C90.9645849 39.2786938 90.94904859 42.26521905 90.93334961 45.25195312 C90.9296176 47.32845931 90.92677151 49.40496725 90.92477417 51.48147583 C90.91715254 56.93620703 90.89751662 62.39083105 90.87536621 67.84552002 C90.85487614 73.41587881 90.84576569 78.98625498 90.83569336 84.55664062 C90.81426938 95.47856261 90.78015115 106.40040519 90.73803711 117.32226562 C87.45916853 116.77021122 85.45292297 116.16325967 82.48803711 114.50976562 C68.89773022 107.57593558 52.41532531 107.59855156 37.73803711 106.32226562 C37.73803711 88.50226563 37.73803711 70.68226563 37.73803711 52.32226562 C24.86803711 52.32226562 11.99803711 52.32226562 -1.26196289 52.32226562 C-1.26196289 69.15226562 -1.26196289 85.98226562 -1.26196289 103.32226562 C-19.5696552 102.01457332 -19.5696552 102.01457332 -25.63696289 95.94726562 C-28.62606501 91.11871605 -29.5124794 86.66223852 -29.55249023 81.0324707 C-29.56524994 79.80712112 -29.57800964 78.58177155 -29.59115601 77.31929016 C-29.59338165 76.00671738 -29.5956073 74.69414459 -29.59790039 73.34179688 C-29.6043384 71.96424729 -29.61106748 70.58669904 -29.61807251 69.20915222 C-29.63001898 66.32519365 -29.63375629 63.44135459 -29.63256836 60.55737305 C-29.63236584 56.89038623 -29.65960884 53.22418027 -29.69411278 49.55737782 C-29.71653179 46.71146745 -29.72040129 43.86574016 -29.71934891 41.0197506 C-29.72280876 39.01976635 -29.74438279 37.01983926 -29.76644897 35.01997375 C-29.7202347 25.69857032 -28.64502184 16.59525584 -22.26196289 9.32226562 C-21.60196289 9.32226562 -20.94196289 9.32226562 -20.26196289 9.32226562 C-20.26196289 8.66226563 -20.26196289 8.00226563 -20.26196289 7.32226562 C-18.68774414 6.10351562 -18.68774414 6.10351562 -16.57446289 4.82226562 C-15.8899707 4.39945313 -15.20547852 3.97664062 -14.50024414 3.54101562 C-9.53165814 0.83560754 -5.69080098 0.06047425 0 0 Z " fill="#4ED685" transform="translate(277.261962890625,129.677734375)"/>
<path d="M0 0 C2.4778291 1.21736821 4.85445455 2.49295455 7.25 3.875 C21.1889856 10.69187617 36.80680625 10.73390052 52 12 C52 30.15 52 48.3 52 67 C64.87 67 77.74 67 91 67 C90.98839844 63.33003906 90.97679687 59.66007812 90.96484375 55.87890625 C90.95705448 52.34106533 90.95097698 48.80322536 90.94506836 45.26538086 C90.94002644 42.79857967 90.93319309 40.33178148 90.92456055 37.86499023 C90.91248875 34.32795471 90.90677044 30.79095855 90.90234375 27.25390625 C90.89718246 26.14350479 90.89202118 25.03310333 90.88670349 23.88905334 C90.88662796 22.86807053 90.88655243 21.84708771 90.88647461 20.79516602 C90.884254 19.89137711 90.88203339 18.9875882 90.87974548 18.05641174 C91 16 91 16 92 15 C99.39193233 14.94572737 106.99515225 15.26299713 113 20 C116.90698399 23.98582402 117.5845554 27.1094353 117.53344727 32.5090332 C117.54637062 33.61739029 117.54637062 33.61739029 117.55955505 34.74813843 C117.58219462 37.18271261 117.57547854 39.61613332 117.56640625 42.05078125 C117.57164415 43.75083252 117.57792124 45.45088088 117.58518982 47.15092468 C117.59559134 50.71265339 117.59103841 54.27398256 117.57641602 57.83569336 C117.55926079 62.38538158 117.58268343 66.933803 117.61790562 71.4833498 C117.63994272 74.99487066 117.63842243 78.50609164 117.6301403 82.01766014 C117.6293236 83.69408746 117.63613299 85.37053742 117.65091133 87.0468998 C117.77371335 103.50341403 117.77371335 103.50341403 112 110 C111.34 110 110.68 110 110 110 C110 110.66 110 111.32 110 112 C109.34 112 108.68 112 108 112 C108 112.66 108 113.32 108 114 C106.77493102 114.65357278 105.54470484 115.29748233 104.3125 115.9375 C103.28576172 116.47697266 103.28576172 116.47697266 102.23828125 117.02734375 C97.61479381 119.03650321 93.11004931 119.12955368 88.11767578 119.14526367 C87.44543976 119.14862228 86.77320374 119.1519809 86.08059692 119.15544128 C83.8688164 119.16490304 81.65711197 119.16689197 79.4453125 119.16796875 C77.89981048 119.17118461 76.35430876 119.17454893 74.80880737 119.17805481 C71.57256363 119.1840341 68.33634654 119.18589594 65.10009766 119.18530273 C60.96548049 119.18520117 56.83103527 119.19885265 52.69645882 119.21607494 C49.5050275 119.227226 46.31363736 119.22922099 43.12218857 119.22869301 C41.59845258 119.22986847 40.07471537 119.23426575 38.55099869 119.24202538 C36.41424974 119.25188846 34.27786892 119.24892267 32.14111328 119.24291992 C30.32173752 119.24505745 30.32173752 119.24505745 28.46560669 119.24723816 C20.55469574 118.68286971 14.30443553 115.83237332 8.375 110.75 C0.96729786 102.17266068 -1.31952977 93.94104177 -1.24291992 82.75415039 C-1.24481827 81.86701355 -1.24671661 80.97987671 -1.24867249 80.06585693 C-1.25235087 77.15969761 -1.24172292 74.253793 -1.23046875 71.34765625 C-1.22927577 69.32124358 -1.22882404 67.29483036 -1.2290802 65.26841736 C-1.22752073 61.03624985 -1.2192681 56.80416757 -1.20581055 52.57202148 C-1.1887453 47.13546259 -1.18499865 41.69899653 -1.18575573 36.26241398 C-1.1854846 32.08557746 -1.18001389 27.90876142 -1.17275429 23.73193169 C-1.16956428 21.72596835 -1.16759944 19.72000268 -1.16686058 17.71403694 C-1.16470483 14.9226798 -1.15597956 12.13142354 -1.14526367 9.34008789 C-1.14571686 8.50533432 -1.14617004 7.67058075 -1.14663696 6.81053162 C-1.11448141 1.11448141 -1.11448141 1.11448141 0 0 Z " fill="#204B69" transform="translate(133,252)"/>
<path d="M0 0 C-0.268125 0.515625 -0.53625 1.03125 -0.8125 1.5625 C-2.1341787 4.16072611 -2.1341787 4.16072611 -3.3125 7.6875 C-5 11 -5 11 -7.6875 11.9375 C-8.450625 11.958125 -9.21375 11.97875 -10 12 C-9.690625 12.928125 -9.690625 12.928125 -9.375 13.875 C-9.25125 14.57625 -9.1275 15.2775 -9 16 C-9.66 16.66 -10.32 17.32 -11 18 C-11.99 18 -12.98 18 -14 18 C-13.96447021 18.83772949 -13.92894043 19.67545898 -13.89233398 20.53857422 C-13.76320662 23.64323576 -13.63887952 26.74804148 -13.51782227 29.85302734 C-13.43812762 31.85920071 -13.35287482 33.86515076 -13.26757812 35.87109375 C-13.21923828 37.12792969 -13.17089844 38.38476562 -13.12109375 39.6796875 C-13.05039673 41.42354736 -13.05039673 41.42354736 -12.97827148 43.20263672 C-13 46 -13 46 -14 48 C-12.515 47.505 -12.515 47.505 -11 47 C-8.09764019 46.9509633 -5.21397049 46.95878517 -2.3125 47 C5.57203676 47.06716432 13.43908872 46.96174924 21.3203125 46.74609375 C22.22141251 46.72157135 23.12251251 46.69704895 24.05091858 46.67178345 C28.63471322 46.54483984 33.21816015 46.40950149 37.80151367 46.26757812 C39.50959963 46.218637 41.21768869 46.16980409 42.92578125 46.12109375 C44.1258934 46.08054115 44.1258934 46.08054115 45.35025024 46.03916931 C47.23283306 45.98737499 49.11674247 45.98809166 51 46 C52 47 52 47 52.12025452 49.13233948 C52.11803391 50.07165817 52.11581329 51.01097687 52.11352539 51.97875977 C52.11341209 53.57029625 52.11341209 53.57029625 52.11329651 55.19398499 C52.10813522 56.348134 52.10297394 57.50228302 52.09765625 58.69140625 C52.0962413 59.86638168 52.09482635 61.04135712 52.09336853 62.25193787 C52.08774992 66.02215064 52.07519426 69.79230504 52.0625 73.5625 C52.0574874 76.11132727 52.05292408 78.66015547 52.04882812 81.20898438 C52.03777444 87.47267633 52.02101821 93.73633399 52 100 C54.31 100 56.62 100 59 100 C59 100.66 59 101.32 59 102 C60.11117187 102.06058594 61.22234375 102.12117188 62.3671875 102.18359375 C66.20716954 102.39695008 70.04593134 102.6267143 73.88427734 102.86767578 C75.63742915 102.97732363 77.39094021 103.08121017 79.14453125 103.18359375 C84.08316153 103.55531861 87.66621337 104.37691862 92 107 C92 107.66 92 108.32 92 109 C89.39533418 108.52342708 86.79128286 108.04385281 84.1875 107.5625 C83.08051758 107.36043945 83.08051758 107.36043945 81.95117188 107.15429688 C78.88684924 106.58580263 75.96071047 105.98690349 73 105 C65.41 104.34 57.82 103.68 50 103 C50 85.18 50 67.36 50 49 C37.13 49 24.26 49 11 49 C11 65.83 11 82.66 11 100 C-7.30769231 98.69230769 -7.30769231 98.69230769 -13.375 92.625 C-16.36410212 87.79645043 -17.25051651 83.33997289 -17.29052734 77.71020508 C-17.30328705 76.4848555 -17.31604675 75.25950592 -17.32919312 73.99702454 C-17.33141876 72.68445175 -17.33364441 71.37187897 -17.3359375 70.01953125 C-17.3423755 68.64198167 -17.34910459 67.26443341 -17.35610962 65.8868866 C-17.36805608 63.00292803 -17.3717934 60.11908897 -17.37060547 57.23510742 C-17.37040295 53.56812061 -17.39764595 49.90191465 -17.43214989 46.23511219 C-17.4545689 43.38920182 -17.4584384 40.54347453 -17.45738602 37.69748497 C-17.46084587 35.69750073 -17.4824199 33.69757363 -17.50448608 31.69770813 C-17.45827181 22.3763047 -16.38305895 13.27299022 -10 6 C-9.34 6 -8.68 6 -8 6 C-8 5.34 -8 4.68 -8 4 C-2.58823529 0 -2.58823529 0 0 0 Z " fill="#6DDB9C" transform="translate(265,133)"/>
<path d="M0 0 C1.01775513 -0.00315216 2.03551025 -0.00630432 3.08410645 -0.009552 C4.19137085 -0.00752777 5.29863525 -0.00550354 6.43945312 -0.00341797 C7.56766479 -0.00437469 8.69587646 -0.00533142 9.85827637 -0.00631714 C12.24910538 -0.00699915 14.63993624 -0.00514344 17.03076172 -0.00097656 C20.70479464 0.00437137 24.37870529 -0.0009209 28.05273438 -0.00732422 C30.3691409 -0.00666344 32.68554734 -0.00538229 35.00195312 -0.00341797 C36.66284973 -0.00645432 36.66284973 -0.00645432 38.3572998 -0.009552 C39.37505493 -0.00639984 40.39281006 -0.00324768 41.44140625 0 C42.79256531 0.00119339 42.79256531 0.00119339 44.17102051 0.00241089 C46.22070312 0.12939453 46.22070312 0.12939453 47.22070312 1.12939453 C47.50056579 4.34993537 47.45256279 7.58564739 47.47070312 10.81689453 C47.49132812 11.71601563 47.51195312 12.61513672 47.53320312 13.54150391 C47.571466 20.06054206 46.57360019 24.32109804 42.28320312 29.44189453 C33.23022225 34.43027175 19.16009406 32.24703418 8.97070312 32.19189453 C7.33919409 32.18686602 5.70768355 32.18230552 4.07617188 32.17822266 C0.12431082 32.1673321 -3.82747579 32.15014319 -7.77929688 32.12939453 C-7.11929688 31.79939453 -6.45929688 31.46939453 -5.77929688 31.12939453 C-5.7871521 29.77406616 -5.7871521 29.77406616 -5.79516602 28.39135742 C-5.81217373 25.04987964 -5.82473021 21.70844762 -5.83422852 18.36694336 C-5.83926788 16.91869381 -5.84609941 15.47044936 -5.85473633 14.0222168 C-5.86681935 11.94464865 -5.87252899 9.86714756 -5.87695312 7.78955078 C-5.88218994 6.53795166 -5.88742676 5.28635254 -5.89282227 3.99682617 C-5.70825992 -0.66486141 -4.20993564 0.00371836 0 0 Z " fill="#436B86" transform="translate(189.779296875,220.87060546875)"/>
<path d="M0 0 C8.14025126 0.49533102 14.37615121 1.2772065 20.4206543 6.98413086 C23.15324293 11.30600778 22.84352155 14.90480323 22.73046875 19.9140625 C22.72480896 20.86141769 22.71914917 21.80877289 22.71331787 22.78483582 C22.69098459 25.8010886 22.64079355 28.81613947 22.58984375 31.83203125 C22.56977482 33.88084218 22.55152474 35.92967179 22.53515625 37.97851562 C22.49112969 42.99264834 22.42212285 48.00588624 22.33984375 53.01953125 C18.38152566 53.04845982 14.42323458 53.06630552 10.46484375 53.08203125 C8.77294922 53.09459961 8.77294922 53.09459961 7.046875 53.10742188 C5.97050781 53.11064453 4.89414063 53.11386719 3.78515625 53.1171875 C2.79016113 53.12242432 1.79516602 53.12766113 0.77001953 53.13305664 C-1.66015625 53.01953125 -1.66015625 53.01953125 -3.66015625 52.01953125 C-3.68542364 44.77466574 -3.70298805 37.52981151 -3.71508789 30.28491211 C-3.72012981 27.81811092 -3.72696316 25.35131273 -3.7355957 22.88452148 C-3.7476675 19.34748596 -3.75338581 15.8104898 -3.7578125 12.2734375 C-3.76297379 11.16303604 -3.76813507 10.05263458 -3.77345276 8.90858459 C-3.77352829 7.88760178 -3.77360382 6.86661896 -3.77368164 5.81469727 C-3.77590225 4.91090836 -3.77812286 4.00711945 -3.78041077 3.07594299 C-3.59604361 -0.07682655 -3.18739518 0.02340231 0 0 Z " fill="#436B86" transform="translate(227.66015625,266.98046875)"/>
<path d="M0 0 C1 1 1 1 1.12025452 3.13233948 C1.11803391 4.07165817 1.11581329 5.01097687 1.11352539 5.97875977 C1.11344986 7.03978409 1.11337433 8.10080841 1.11329651 9.19398499 C1.10813522 10.348134 1.10297394 11.50228302 1.09765625 12.69140625 C1.0962413 13.86638168 1.09482635 15.04135712 1.09336853 16.25193787 C1.08774992 20.02215064 1.07519426 23.79230504 1.0625 27.5625 C1.0574874 30.11132727 1.05292408 32.66015547 1.04882812 35.20898438 C1.03777444 41.47267633 1.02101821 47.73633399 1 54 C3.31 54 5.62 54 8 54 C8 54.66 8 55.32 8 56 C9.66675781 56.09087891 9.66675781 56.09087891 11.3671875 56.18359375 C15.20716954 56.39695008 19.04593134 56.6267143 22.88427734 56.86767578 C24.63742915 56.97732363 26.39094021 57.08121017 28.14453125 57.18359375 C33.08316153 57.55531861 36.66621337 58.37691862 41 61 C41 61.66 41 62.32 41 63 C38.39533418 62.52342708 35.79128286 62.04385281 33.1875 61.5625 C32.44951172 61.42779297 31.71152344 61.29308594 30.95117188 61.15429688 C27.88684924 60.58580263 24.96071047 59.98690349 22 59 C14.41 58.34 6.82 57.68 -1 57 C-1 38.85 -1 20.7 -1 2 C-13.87 2 -26.74 2 -40 2 C-40 1.67 -40 1.34 -40 1 C-35.58924441 0.8559378 -31.17843772 0.71358717 -26.76757812 0.57275391 C-25.27016749 0.52471037 -23.77277123 0.47621662 -22.27539062 0.42724609 C-20.11071427 0.35653333 -17.94598968 0.28749368 -15.78125 0.21875 C-14.48251953 0.17685547 -13.18378906 0.13496094 -11.84570312 0.09179688 C-7.88803114 -0.0026727 -3.95809802 -0.08430684 0 0 Z " fill="#71CD9A" transform="translate(316,179)"/>
<path d="M0 0 C-0.268125 0.515625 -0.53625 1.03125 -0.8125 1.5625 C-2.1341787 4.16072611 -2.1341787 4.16072611 -3.3125 7.6875 C-5 11 -5 11 -7.6875 11.9375 C-8.450625 11.958125 -9.21375 11.97875 -10 12 C-9.690625 12.928125 -9.690625 12.928125 -9.375 13.875 C-9.25125 14.57625 -9.1275 15.2775 -9 16 C-9.66 16.66 -10.32 17.32 -11 18 C-11.99 18 -12.98 18 -14 18 C-14.02312611 26.71844003 -14.04091646 35.43686956 -14.05181217 44.15533352 C-14.05704041 48.20325742 -14.06413699 52.25116041 -14.07543945 56.29907227 C-14.08627043 60.20235971 -14.09227728 64.10562699 -14.09487724 68.0089283 C-14.09673111 69.50133647 -14.100351 70.99374348 -14.10573006 72.48614311 C-14.11294331 74.56948139 -14.11399083 76.65273531 -14.11352539 78.73608398 C-14.115746 79.92411118 -14.11796661 81.11213837 -14.12025452 82.33616638 C-14.30362595 84.92120693 -14.30362595 84.92120693 -13 86 C-12.95936168 87.66617115 -12.957279 89.33388095 -13 91 C-15 90 -15 90 -16.10684204 87.33061218 C-17.00788225 83.97060687 -17.26586202 81.18076659 -17.29052734 77.71020508 C-17.30328705 76.4848555 -17.31604675 75.25950592 -17.32919312 73.99702454 C-17.33141876 72.68445175 -17.33364441 71.37187897 -17.3359375 70.01953125 C-17.3423755 68.64198167 -17.34910459 67.26443341 -17.35610962 65.8868866 C-17.36805608 63.00292803 -17.3717934 60.11908897 -17.37060547 57.23510742 C-17.37040295 53.56812061 -17.39764595 49.90191465 -17.43214989 46.23511219 C-17.4545689 43.38920182 -17.4584384 40.54347453 -17.45738602 37.69748497 C-17.46084587 35.69750073 -17.4824199 33.69757363 -17.50448608 31.69770813 C-17.45827181 22.3763047 -16.38305895 13.27299022 -10 6 C-9.34 6 -8.68 6 -8 6 C-8 5.34 -8 4.68 -8 4 C-2.58823529 0 -2.58823529 0 0 0 Z " fill="#8BE7B2" transform="translate(265,133)"/>
<path d="M0 0 C0.33 0 0.66 0 1 0 C0.67 7.59 0.34 15.18 0 23 C24.75 23.495 24.75 23.495 50 24 C50.495 28.95 50.495 28.95 51 34 C51.33 34.99 51.66 35.98 52 37 C51.75316617 39.75489248 51.4470867 42.45239581 51.0625 45.1875 C50.96259766 45.93708984 50.86269531 46.68667969 50.75976562 47.45898438 C50.51260359 49.30681482 50.25710389 51.1535266 50 53 C49.67 53 49.34 53 49 53 C49 44.09 49 35.18 49 26 C32.17 26 15.34 26 -2 26 C-2 4 -2 4 0 0 Z " fill="#58B699" transform="translate(266,253)"/>
<path d="M0 0 C0.33 0 0.66 0 1 0 C1 1.65 1 3.3 1 5 C30.04 5 59.08 5 89 5 C89 5.66 89 6.32 89 7 C58.97 7 28.94 7 -2 7 C-2 3.89448334 -1.4606285 2.64738916 0 0 Z " fill="#64BBA2" transform="translate(255,364)"/>
<path d="M0 0 C1.08084869 -0.00744736 1.08084869 -0.00744736 2.18353271 -0.01504517 C4.57394357 -0.02968134 6.96428797 -0.03647272 9.35473633 -0.04199219 C11.01662701 -0.04774437 12.67851768 -0.0535021 14.34040833 -0.05926514 C17.82996937 -0.06978058 21.31950736 -0.07561905 24.80908203 -0.07910156 C29.27006078 -0.08457416 33.73073242 -0.10857325 38.1916151 -0.13707352 C41.62753675 -0.15574784 45.06338531 -0.16090814 48.49935341 -0.16243744 C50.1431171 -0.1654559 51.78687975 -0.1734571 53.43059349 -0.18662262 C55.73781627 -0.20377671 58.04430091 -0.20177997 60.3515625 -0.1953125 C61.66235275 -0.19895813 62.97314301 -0.20260376 64.32365417 -0.20635986 C68.5290372 0.21409988 71.22962184 1.31783199 74.99926758 3.16113281 C74.99926758 3.49113281 74.99926758 3.82113281 74.99926758 4.16113281 C71.27602767 4.24035068 67.86319545 4.14358014 64.15722656 3.66552734 C57.59058929 2.91154138 51.01013134 3.01700713 44.40942383 3.02832031 C43.01460249 3.02764547 41.61978127 3.02667395 40.22496033 3.02542114 C37.32118597 3.02395607 34.4174426 3.02606245 31.51367188 3.03076172 C27.78901017 3.03649575 24.06441995 3.03314947 20.33976078 3.02718925 C17.46851559 3.02358311 14.59728749 3.02472183 11.72604179 3.02731705 C10.35168893 3.02798424 8.97733453 3.02716512 7.60298347 3.02483749 C5.69088901 3.02230613 3.7787891 3.02684649 1.86669922 3.03173828 C0.23529747 3.03293167 0.23529747 3.03293167 -1.42906189 3.03414917 C-3.98912784 2.98759793 -3.98912784 2.98759793 -6.00073242 4.16113281 C-8.00873698 3.88001217 -10.01087293 3.55045315 -12.00073242 3.16113281 C-7.54679211 0.19183927 -5.37688882 0.02809387 0 0 Z " fill="#7ADA9D" transform="translate(277.000732421875,129.8388671875)"/>
<path d="M0 0 C4.97397463 5.87833366 5.2894335 11.86090193 5.22705078 19.21826172 C5.22734283 20.12621994 5.22763489 21.03417816 5.22793579 21.96965027 C5.22654779 24.95642818 5.21101148 27.94295342 5.1953125 30.9296875 C5.19158049 33.00619368 5.18873441 35.08270163 5.18673706 37.15921021 C5.17911543 42.6139414 5.15947951 48.06856542 5.1373291 53.52325439 C5.11683903 59.09361318 5.10772858 64.66398936 5.09765625 70.234375 C5.07623227 81.15629699 5.04211404 92.07813957 5 103 C3.35 102.67 1.7 102.34 0 102 C1.98 101.505 1.98 101.505 4 101 C3.97494385 100.42000244 3.9498877 99.84000488 3.92407227 99.24243164 C3.34771695 85.41905249 2.97415052 71.60350222 2.78125 57.76953125 C2.76287582 56.51199539 2.74450165 55.25445953 2.72557068 53.95881653 C2.63265702 47.56253671 2.54949114 41.16635996 2.48071289 34.76977539 C2.44717119 32.35432393 2.41325092 29.93887768 2.37890625 27.5234375 C2.37052734 26.42526199 2.36214844 25.32708649 2.35351562 24.19563293 C2.25615574 18.07968597 1.69071264 12.34516482 0.42417908 6.3565979 C0 4 0 4 0 0 Z " fill="#A4E7C1" transform="translate(363,144)"/>
<path d="M0 0 C2 1 2 1 3.10882568 3.58410645 C4.08822392 7.3381645 4.28139713 10.80662372 4.25878906 14.65429688 C4.2622937 15.39656021 4.26579834 16.13882355 4.26940918 16.90357971 C4.27816717 19.34206669 4.27239846 21.78026039 4.265625 24.21875 C4.26697336 25.92216039 4.26891531 27.62557041 4.27142334 29.32897949 C4.27436656 32.89302242 4.27010278 36.45696487 4.26074219 40.02099609 C4.24934813 44.58055369 4.25591189 49.13987578 4.26788712 53.69942474 C4.27512737 57.21508547 4.27280784 60.73069072 4.26763153 64.24635315 C4.26630103 65.92721078 4.26792169 67.6080735 4.27259064 69.28892517 C4.27769155 71.64131948 4.26989589 73.99333677 4.25878906 76.34570312 C4.26283752 77.03471207 4.26688599 77.72372101 4.27105713 78.43360901 C4.23431971 82.65129472 3.5313964 86.07493573 2 90 C1.67 90 1.34 90 1 90 C1.00222061 89.00521133 1.00444122 88.01042267 1.00672913 86.98548889 C1.02705053 77.58467806 1.04201539 68.18387172 1.05181217 58.78304386 C1.05701819 53.95064944 1.0640742 49.11827284 1.07543945 44.28588867 C1.08634967 39.61746993 1.09229401 34.94906826 1.09487724 30.28063774 C1.09671688 28.50456918 1.10030911 26.7285015 1.10573006 24.95244026 C1.1130486 22.45403184 1.11398642 19.9556929 1.11352539 17.45727539 C1.11712067 16.73222305 1.12071594 16.00717072 1.12442017 15.26014709 C1.11423474 10.11863525 0.65504865 5.09810822 0 0 Z " fill="#7FCDB1" transform="translate(364,263)"/>
<path d="M0 0 C0.33 0 0.66 0 1 0 C1 1.65 1 3.3 1 5 C-16.16 5 -33.32 5 -51 5 C-51 17.87 -51 30.74 -51 44 C-51.33 44 -51.66 44 -52 44 C-52.19207142 38.34034606 -52.37082399 32.68048989 -52.53710938 27.02001953 C-52.59559792 25.09347181 -52.65775936 23.16703201 -52.72363281 21.24072266 C-52.81755244 18.47578581 -52.89836327 15.71073297 -52.9765625 12.9453125 C-53.00875885 12.0806839 -53.0409552 11.2160553 -53.0741272 10.32522583 C-53.12723194 8.21734128 -53.07310184 6.10728582 -53 4 C-51 2 -51 2 -48.86129761 1.75949097 C-47.5355925 1.7661528 -47.5355925 1.7661528 -46.18310547 1.77294922 C-45.18221893 1.77310028 -44.1813324 1.77325134 -43.15011597 1.77340698 C-41.52506638 1.78889084 -41.52506638 1.78889084 -39.8671875 1.8046875 C-38.20672897 1.80893234 -38.20672897 1.80893234 -36.51272583 1.81326294 C-32.96670863 1.82448481 -29.42094125 1.84959309 -25.875 1.875 C-23.47526406 1.8850272 -21.07552417 1.8941535 -18.67578125 1.90234375 C-12.78376849 1.92443068 -6.89190209 1.95792793 -1 2 C-0.67 1.34 -0.34 0.68 0 0 Z " fill="#577386" transform="translate(236,177)"/>
<path d="M0 0 C0.71939758 -0.0071553 1.43879517 -0.01431061 2.17999268 -0.02168274 C4.54992893 -0.03854219 6.91796521 -0.01918015 9.2878418 0.00219727 C10.9430507 0.00136803 12.59825951 -0.00109343 14.25346375 -0.00511169 C17.72114886 -0.00796815 21.18818757 0.00671099 24.65576172 0.03417969 C29.08428114 0.06818276 33.511639 0.06226977 37.9402132 0.04351711 C41.35910075 0.03290604 44.77772186 0.04192333 48.1965847 0.05690193 C49.82833246 0.06205955 51.46010834 0.06163153 53.09185219 0.05535698 C68.7782376 0.01769336 68.7782376 0.01769336 75.67456055 4.63110352 C73.59902406 5.18457991 71.83090091 5.63110352 69.67456055 5.63110352 C69.67456055 4.97110352 69.67456055 4.31110352 69.67456055 3.63110352 C66.60002495 4.40749672 66.60002495 4.40749672 64.67456055 6.63110352 C64.17956055 5.14610352 64.17956055 5.14610352 63.67456055 3.63110352 C60.87388018 2.23076333 58.55361476 2.49611705 55.4206543 2.48583984 C54.10589111 2.47945999 52.79112793 2.47308014 51.43652344 2.46650696 C49.99503618 2.46497852 48.55354843 2.46386443 47.11206055 2.46313477 C45.63997362 2.45992297 44.16788702 2.45655895 42.69580078 2.45304871 C39.60896057 2.44705668 36.52214836 2.44520893 33.43530273 2.44580078 C29.47385917 2.44590252 25.51259438 2.43223883 21.55119324 2.41502857 C18.51093719 2.40392865 15.47072468 2.40188094 12.43045044 2.40241051 C10.96956769 2.40122779 9.50868392 2.39678979 8.04782104 2.38907814 C6.00805963 2.37931729 3.96824598 2.38341038 1.9284668 2.38818359 C0.76645752 2.38675858 -0.39555176 2.38533356 -1.59277344 2.38386536 C-4.47156315 2.35021718 -4.47156315 2.35021718 -6.32543945 4.63110352 C-8.31365258 5.02874614 -10.31488284 5.368857 -12.32543945 5.63110352 C-8.40448019 0.90682148 -6.09257813 0.00451735 0 0 Z " fill="#55BA90" transform="translate(279.325439453125,247.368896484375)"/>
<path d="M0 0 C0.89762054 -0.00014603 1.79524109 -0.00029205 2.72006226 -0.0004425 C5.6960489 0.00025586 8.67197347 0.00804472 11.64794922 0.01586914 C13.70775315 0.01773359 15.76755753 0.01915737 17.82736206 0.02015686 C23.25581074 0.02397991 28.68423277 0.03380841 34.1126709 0.04486084 C39.64916626 0.05507951 45.18566591 0.05965546 50.72216797 0.06469727 C61.59066927 0.07543084 72.45915078 0.09250474 83.32763672 0.11352539 C83.32763672 3.80770741 82.04584377 5.89188717 80.32763672 9.11352539 C79.28213764 5.97702814 79.32593355 5.11863489 80.32763672 2.11352539 C80.65763672 1.78352539 80.98763672 1.45352539 81.32763672 1.11352539 C51.95763672 1.11352539 22.58763672 1.11352539 -7.67236328 1.11352539 C-8.00236328 2.10352539 -8.33236328 3.09352539 -8.67236328 4.11352539 C-8.67236328 3.45352539 -8.67236328 2.79352539 -8.67236328 2.11352539 C-9.33236328 1.78352539 -9.99236328 1.45352539 -10.67236328 1.11352539 C-7.35484735 -0.54523258 -3.64639275 -0.01536764 0 0 Z " fill="#5F788A" transform="translate(163.67236328125,129.886474609375)"/>
<path d="M0 0 C0.99 0.33 1.98 0.66 3 1 C2.34 1.66 1.68 2.32 1 3 C0.78227448 5.82976367 0.68856858 8.56454103 0.68115234 11.39697266 C0.67110672 12.26533249 0.6610611 13.13369232 0.65071106 14.02836609 C0.61974858 16.90692464 0.60280778 19.78538965 0.5859375 22.6640625 C0.56723635 24.6566143 0.54766374 26.6491581 0.5272522 28.64169312 C0.47581372 33.89253022 0.43625083 39.14339304 0.39910889 44.39434814 C0.35914251 49.74994324 0.30801666 55.10543032 0.2578125 60.4609375 C0.16091457 70.97388258 0.07655433 81.48688849 0 92 C-0.33 92 -0.66 92 -1 92 C-1.02312202 80.15234827 -1.04091437 68.30470186 -1.05181217 56.4570322 C-1.05704131 50.95629138 -1.06413951 45.45556595 -1.07543945 39.95483398 C-1.08626725 34.6510344 -1.0922766 29.34724965 -1.09487724 24.04343987 C-1.09673169 22.01514388 -1.10035267 19.98684874 -1.10573006 17.95855904 C-1.11293906 15.12803486 -1.113991 12.29757282 -1.11352539 9.46704102 C-1.11712067 8.61971909 -1.12071594 7.77239716 -1.12442017 6.8993988 C-1.11405216 1.11405216 -1.11405216 1.11405216 0 0 Z " fill="#C0C5FA" transform="translate(133,252)"/>
<path d="M0 0 C0.33 0 0.66 0 1 0 C1.01981934 0.72590332 1.03963867 1.45180664 1.06005859 2.19970703 C1.1556819 5.50848475 1.26521007 8.8166633 1.375 12.125 C1.4059375 13.26710938 1.436875 14.40921875 1.46875 15.5859375 C1.50742188 16.69453125 1.54609375 17.803125 1.5859375 18.9453125 C1.6173584 19.96125488 1.6487793 20.97719727 1.68115234 22.02392578 C1.95453918 25.57484296 1.95453918 25.57484296 4 31 C10.27 31 16.54 31 23 31 C23.33 25.06 23.66 19.12 24 13 C24.33 13 24.66 13 25 13 C25 19.6 25 26.2 25 33 C21.02078906 33.02682614 17.04175659 33.04675393 13.0625 33.0625 C11.35803711 33.07506836 11.35803711 33.07506836 9.61914062 33.08789062 C8.53955078 33.09111328 7.45996094 33.09433594 6.34765625 33.09765625 C4.84730835 33.10551147 4.84730835 33.10551147 3.31665039 33.11352539 C1 33 1 33 0 32 C-0.0883967 29.6243148 -0.11530305 27.27791326 -0.09765625 24.90234375 C-0.0962413 24.19348526 -0.09482635 23.48462677 -0.09336853 22.75428772 C-0.08775443 20.48198288 -0.07519963 18.20977525 -0.0625 15.9375 C-0.05748681 14.40039204 -0.05292359 12.86328255 -0.04882812 11.32617188 C-0.03778042 7.55074358 -0.02050641 3.77538829 0 0 Z " fill="#395F76" transform="translate(225,287)"/>
<path d="M0 0 C0.92515915 0.00707474 1.8503183 0.01414948 2.80351257 0.0214386 C5.74874878 0.0493531 8.69206048 0.11208568 11.63671875 0.17578125 C13.63734227 0.20086795 15.63799569 0.22368047 17.63867188 0.24414062 C22.53459191 0.29917017 27.42907943 0.38542224 32.32421875 0.48828125 C32.32421875 0.81828125 32.32421875 1.14828125 32.32421875 1.48828125 C21.68171869 2.27870566 11.13627489 2.59140876 0.46240234 2.36328125 C-0.88797119 2.34587891 -0.88797119 2.34587891 -2.265625 2.328125 C-3.06863037 2.31128662 -3.87163574 2.29444824 -4.69897461 2.27709961 C-6.91022409 2.3040618 -6.91022409 2.3040618 -8.67578125 4.48828125 C-10.66399438 4.88592388 -12.66522464 5.22603474 -14.67578125 5.48828125 C-10.35563509 -0.14076401 -6.84869936 -0.19794152 0 0 Z " fill="#51AC8F" transform="translate(281.67578125,247.51171875)"/>
<path d="M0 0 C-1.46057987 4.51451961 -3.73058619 7.57852044 -7 11 C-9.8125 12.375 -9.8125 12.375 -12 13 C-12 13.66 -12 14.32 -12 15 C-13.65 15.33 -15.3 15.66 -17 16 C-17.33 15.34 -17.66 14.68 -18 14 C-17.525625 13.54625 -17.05125 13.0925 -16.5625 12.625 C-14.90972192 11.06741796 -14.90972192 11.06741796 -14 9 C-11.03 9.495 -11.03 9.495 -8 10 C-8 9.34 -8 8.68 -8 8 C-7.34 8 -6.68 8 -6 8 C-6 6.68 -6 5.36 -6 4 C-2.66666667 0 -2.66666667 0 0 0 Z " fill="#51B497" transform="translate(365,353)"/>
<path d="M0 0 C25.94377231 -0.27087465 25.94377231 -0.27087465 33 4 C33 4.66 33 5.32 33 6 C30.39533418 5.52342708 27.79128286 5.04385281 25.1875 4.5625 C24.44951172 4.42779297 23.71152344 4.29308594 22.95117188 4.15429688 C19.88684924 3.58580263 16.96071047 2.98690349 14 2 C11.60745424 1.77439324 9.21071877 1.59151405 6.8125 1.4375 C5.54019531 1.35371094 4.26789063 1.26992187 2.95703125 1.18359375 C1.98121094 1.12300781 1.00539063 1.06242188 0 1 C0 0.67 0 0.34 0 0 Z " fill="#7DD1A8" transform="translate(324,236)"/>
<path d="M0 0 C5.28 0 10.56 0 16 0 C16.22786458 2.24609375 16.45572917 4.4921875 16.68359375 6.73828125 C16.95265693 9.16087179 16.95265693 9.16087179 18 12 C17.75316617 14.75489248 17.4470867 17.45239581 17.0625 20.1875 C16.96259766 20.93708984 16.86269531 21.68667969 16.75976562 22.45898438 C16.51260359 24.30681482 16.25710389 26.1535266 16 28 C15.67 28 15.34 28 15 28 C15 19.09 15 10.18 15 1 C10.05 1 5.1 1 0 1 C0 0.67 0 0.34 0 0 Z " fill="#76C3A9" transform="translate(300,278)"/>
<path d="M0 0 C0.33 0 0.66 0 1 0 C1.76713266 10.45218246 2.10154689 20.82318911 1.96289062 31.30541992 C1.95451172 32.16369385 1.94613281 33.02196777 1.9375 33.90625 C1.92589844 34.67259766 1.91429687 35.43894531 1.90234375 36.22851562 C1.80388539 38.02625651 1.80388539 38.02625651 3 39 C3.04063832 40.66617115 3.042721 42.33388095 3 44 C1 43 1 43 0 40 C-0.08544291 38.66471193 -0.11774625 37.32556112 -0.11352539 35.98754883 C-0.11344986 35.18694534 -0.11337433 34.38634186 -0.11329651 33.56147766 C-0.10813522 32.70201035 -0.10297394 31.84254303 -0.09765625 30.95703125 C-0.0962413 30.0734343 -0.09482635 29.18983734 -0.09336853 28.27946472 C-0.08777069 25.45710872 -0.07521861 22.63483203 -0.0625 19.8125 C-0.05748472 17.89908969 -0.05292186 15.98567813 -0.04882812 14.07226562 C-0.03780197 9.38147986 -0.02053883 4.69075337 0 0 Z " fill="#83D3A7" transform="translate(249,180)"/>
<path d="M0 0 C1.32 0.66 2.64 1.32 4 2 C3.01 2.495 3.01 2.495 2 3 C2.33 3.66 2.66 4.32 3 5 C-1.30769231 10.78461538 -1.30769231 10.78461538 -4.8125 11.875 C-5.8953125 11.936875 -5.8953125 11.936875 -7 12 C-5.44298069 7.32894208 -2.91552627 3.91294315 0 0 Z " fill="#41637C" transform="translate(141,138)"/>
<path d="M0 0 C4.29 1.65 8.58 3.3 13 5 C13 5.33 13 5.66 13 6 C11.02 6 9.04 6 7 6 C7 6.99 7 7.98 7 9 C3.64630514 8.40112592 1.53881228 7.27617653 -1 5 C-1.33 4.01 -1.66 3.02 -2 2 C-1.34 2 -0.68 2 0 2 C0 1.34 0 0.68 0 0 Z " fill="#3F667E" transform="translate(136,254)"/>
<path d="M0 0 C5.65974964 6.68879503 5.24310205 13.65349629 5 22 C4.34 22.33 3.68 22.66 3 23 C2.80083984 21.38931641 2.80083984 21.38931641 2.59765625 19.74609375 C2.41930436 18.30989167 2.24091705 16.87369399 2.0625 15.4375 C1.97548828 14.73302734 1.88847656 14.02855469 1.79882812 13.30273438 C1.24615509 8.86088073 0.64605404 4.42925336 0 0 Z " fill="#8EDCAB" transform="translate(363,144)"/>
<path d="M0 0 C2.475 0.99 2.475 0.99 5 2 C5 2.66 5 3.32 5 4 C5.61875 4.2475 6.2375 4.495 6.875 4.75 C9.35068687 6.20628639 9.95125002 7.37812506 11 10 C7.65626525 9.44271087 4.96687001 8.64826111 2 7 C2 6.01 2 5.02 2 4 C1.34 3.67 0.68 3.34 0 3 C0 2.01 0 1.02 0 0 Z " fill="#6DDA9B" transform="translate(352,134)"/>
<path d="M0 0 C0.33 0 0.66 0 1 0 C1.27576382 8.4720774 0.33501386 15.13889589 -3 23 C-3.66 22.67 -4.32 22.34 -5 22 C-4.80664062 21.24976563 -4.61328125 20.49953125 -4.4140625 19.7265625 C-2.74892681 13.18142519 -1.24817824 6.63737133 0 0 Z " fill="#68BBA0" transform="translate(261,342)"/>
<path d="M0 0 C0.33 0 0.66 0 1 0 C1 5.94 1 11.88 1 18 C3.31 18 5.62 18 8 18 C8 18.66 8 19.32 8 20 C10.64 20 13.28 20 16 20 C16 20.33 16 20.66 16 21 C14.2709226 21.02725341 12.54171824 21.04650987 10.8125 21.0625 C9.36810547 21.07990234 9.36810547 21.07990234 7.89453125 21.09765625 C5 21 5 21 0 20 C0 13.4 0 6.8 0 0 Z " fill="#56C58F" transform="translate(316,215)"/>
<path d="M0 0 C0.33 0.99 0.66 1.98 1 3 C-1.39185303 6.50235623 -3.69093441 9.53200583 -8.04296875 10.4140625 C-8.75066406 10.48367187 -9.45835937 10.55328125 -10.1875 10.625 C-11.445625 10.74875 -12.70375 10.8725 -14 11 C-13.67 10.34 -13.34 9.68 -13 9 C-11.02 9 -9.04 9 -7 9 C-6.8453125 8.1028125 -6.8453125 8.1028125 -6.6875 7.1875 C-5.89496146 4.66578648 -5.08408591 3.60314301 -3 2 C-2.01 2 -1.02 2 0 2 C0 1.34 0 0.68 0 0 Z " fill="#6F8794" transform="translate(235,242)"/>
<path d="M0 0 C0 0.66 0 1.32 0 2 C-0.61875 2.2475 -1.2375 2.495 -1.875 2.75 C-4.11738845 3.80962759 -4.11738845 3.80962759 -4.9375 5.875 C-6.38551685 8.77103371 -8.37533481 10.16273437 -11 12 C-11.66 12 -12.32 12 -13 12 C-12 10 -11 8 -10 6 C-9.34 6 -8.68 6 -8 6 C-8 5.34 -8 4.68 -8 4 C-2.58823529 0 -2.58823529 0 0 0 Z " fill="#8CDEAB" transform="translate(265,133)"/>
<path d="M0 0 C2.12563103 0.11376617 4.2505261 0.24135631 6.375 0.375 C8.15003906 0.47941406 8.15003906 0.47941406 9.9609375 0.5859375 C13 1 13 1 15 3 C9.77254141 4.2063366 5.23471686 3.75612577 0 3 C0 2.01 0 1.02 0 0 Z " fill="#6A8397" transform="translate(225,267)"/>
<path d="M0 0 C0 0.66 0 1.32 0 2 C-5.94 2 -11.88 2 -18 2 C-17.67 1.34 -17.34 0.68 -17 0 C-11.1142177 -1.15613581 -5.9057942 -0.88860329 0 0 Z " fill="#79919F" transform="translate(204,251)"/>
<path d="M0 0 C0 0.66 0 1.32 0 2 C-4.62 2 -9.24 2 -14 2 C-14 1.67 -14 1.34 -14 1 C-9.35846395 -0.76820421 -4.68450286 -2.34225143 0 0 Z " fill="#8FA5B1" transform="translate(219,251)"/>
<path d="M0 0 C0.66 0.99 1.32 1.98 2 3 C3.65 2.67 5.3 2.34 7 2 C6.01 3.485 6.01 3.485 5 5 C3.0546875 5.29296875 3.0546875 5.29296875 0.875 5.1875 C-0.40375 5.125625 -1.6825 5.06375 -3 5 C-1.125 1.125 -1.125 1.125 0 0 Z " fill="#29B286" transform="translate(308,272)"/>
<path d="M0 0 C10.55808656 -0.3690205 10.55808656 -0.3690205 15 2 C15 2.33 15 2.66 15 3 C9.5814234 3.22577402 5.22512279 2.46670113 0 1 C0 0.67 0 0.34 0 0 Z " fill="#72D597" transform="translate(337,131)"/>
<path d="M0 0 C0.99 0 1.98 0 3 0 C2.67 1.98 2.34 3.96 2 6 C0.35 6.33 -1.3 6.66 -3 7 C-3.33 6.34 -3.66 5.68 -4 5 C-3.525625 4.54625 -3.05125 4.0925 -2.5625 3.625 C-0.90972192 2.06741796 -0.90972192 2.06741796 0 0 Z " fill="#3DAE8C" transform="translate(351,362)"/>
<path d="M0 0 C3.34249629 0.59687434 5.46436342 1.73603877 8 4 C8 4.66 8 5.32 8 6 C5.6875 6.25 5.6875 6.25 3 6 C1.02389614 3.95575462 0 2.8823175 0 0 Z " fill="#6C8897" transform="translate(240,270)"/>
<path d="M0 0 C2 1 2 1 5 3 C5 4.32 5 5.64 5 7 C2.5625 6.25 2.5625 6.25 0 5 C-0.875 2.9375 -0.875 2.9375 -1 1 C-0.67 0.67 -0.34 0.34 0 0 Z " fill="#45647A" transform="translate(145,243)"/>
<path d="M0 0 C0 0.99 0 1.98 0 3 C-6.93 2.505 -6.93 2.505 -14 2 C-14 1.67 -14 1.34 -14 1 C-12.22932584 0.83165067 -10.45845388 0.66538091 -8.6875 0.5 C-7.70136719 0.4071875 -6.71523438 0.314375 -5.69921875 0.21875 C-3 0 -3 0 0 0 Z " fill="#9EDFBB" transform="translate(276,230)"/>
<path d="M0 0 C0.33 0 0.66 0 1 0 C0.855625 1.134375 0.71125 2.26875 0.5625 3.4375 C-0.00301367 7.95353056 -0.50774809 12.47547181 -1 17 C-1.33 17 -1.66 17 -2 17 C-2 12.05 -2 7.1 -2 2 C-1.34 2 -0.68 2 0 2 C0 1.34 0 0.68 0 0 Z " fill="#859BAE" transform="translate(240,145)"/>
<path d="M0 0 C0.66 0.33 1.32 0.66 2 1 C1.01 2.98 0.02 4.96 -1 7 C-1.66 7 -2.32 7 -3 7 C-3 6.34 -3 5.68 -3 5 C-3.99 4.67 -4.98 4.34 -6 4 C-4.02 2.68 -2.04 1.36 0 0 Z " fill="#648395" transform="translate(149,132)"/>
<path d="M0 0 C1.08667969 0.01804688 2.17335938 0.03609375 3.29296875 0.0546875 C4.54013672 0.08949219 4.54013672 0.08949219 5.8125 0.125 C5.8125 0.455 5.8125 0.785 5.8125 1.125 C4.141875 1.3415625 4.141875 1.3415625 2.4375 1.5625 C-1.00892047 1.90872035 -1.00892047 1.90872035 -3.1875 3.125 C-5.19550456 2.84387936 -7.19764051 2.51432033 -9.1875 2.125 C-5.66070901 -0.22619399 -4.15870515 -0.08943452 0 0 Z " fill="#76D99D" transform="translate(274.1875,130.875)"/>
<path d="M0 0 C0.66 0.33 1.32 0.66 2 1 C2 1.99 2 2.98 2 4 C-1 6 -1 6 -3.1875 5.625 C-3.785625 5.41875 -4.38375 5.2125 -5 5 C-3.35 3.35 -1.7 1.7 0 0 Z " fill="#1AA279" transform="translate(349,363)"/>
<path d="M0 0 C1.5 1.1875 1.5 1.1875 3 3 C3.1875 5.6875 3.1875 5.6875 3 8 C2.01 8 1.02 8 0 8 C0 5.36 0 2.72 0 0 Z " fill="#30B183" transform="translate(316,279)"/>
<path d="M0 0 C0.33 0.99 0.66 1.98 1 3 C0.236875 3.28875 -0.52625 3.5775 -1.3125 3.875 C-4.15029308 4.96269013 -4.15029308 4.96269013 -7 7 C-7 5.68 -7 4.36 -7 3 C-4.69 2.01 -2.38 1.02 0 0 Z " fill="#35AC85" transform="translate(274,250)"/>
<path d="M0 0 C1.98 0.495 1.98 0.495 4 1 C2.68 3.64 1.36 6.28 0 9 C-1.15941038 5.52176885 -0.70820884 3.54104422 0 0 Z " fill="#6B838E" transform="translate(244,130)"/>
<path d="M0 0 C2.475 0.495 2.475 0.495 5 1 C4.34 2.32 3.68 3.64 3 5 C2.01 5 1.02 5 0 5 C0 3.35 0 1.7 0 0 Z " fill="#16A57B" transform="translate(256,364)"/>
<path d="M0 0 C-0.625 1.9375 -0.625 1.9375 -2 4 C-5.125 4.75 -5.125 4.75 -8 5 C-3.375 0 -3.375 0 0 0 Z " fill="#69C2A9" transform="translate(275,248)"/>
<path d="M0 0 C1.2077558 3.62326739 0.54311128 4.64146369 -1 8 C-1.99 8 -2.98 8 -4 8 C-2.87548273 5.0280615 -1.77706209 2.66559313 0 0 Z " fill="#6E8796" transform="translate(138,142)"/>
<path d="M0 0 C2.475 0.99 2.475 0.99 5 2 C5 2.66 5 3.32 5 4 C5.99 4.33 6.98 4.66 8 5 C5 6 5 6 2.3125 4.75 C1.549375 4.1725 0.78625 3.595 0 3 C0 2.01 0 1.02 0 0 Z " fill="#84D8A8" transform="translate(352,134)"/>
<path d="M0 0 C0.99 0.33 1.98 0.66 3 1 C2.67 2.65 2.34 4.3 2 6 C0.68 5.67 -0.64 5.34 -2 5 C-2 4.01 -2 3.02 -2 2 C-1.34 2 -0.68 2 0 2 C0 1.34 0 0.68 0 0 Z " fill="#3A5971" transform="translate(136,254)"/>
</svg>
